<?xml version="1.0" encoding="UTF-8" standalone="no"?>
<svg xmlns:xlink="http://www.w3.org/1999/xlink" height="83.0px" width="194.95px" xmlns="http://www.w3.org/2000/svg">
  <g transform="matrix(1.0, 0.0, 0.0, 1.0, 0.0, 0.0)">
    <path d="M82.1 63.5 Q72.9 68.95 53.2 76.05 33.85 83.0 28.35 83.0 8.35 83.0 2.45 76.75 0.45 74.6 0.05 71.55 L0.0 67.4 Q0.0 53.75 17.3 37.85 34.55 21.9 51.5 20.8 68.45 19.7 117.95 9.85 167.45 0.0 180.35 0.0 190.35 0.0 193.6 5.5 195.25 8.3 194.85 11.15 194.85 17.5 188.35 26.5 184.25 32.4 181.85 34.0 174.2 38.85 148.5 37.55 L123.85 35.25 Q96.7 35.25 94.35 48.5 92.6 57.35 82.1 63.5" fill="#ff9900" fill-opacity="0.0" fill-rule="evenodd" stroke="none"/>
  </g>
</svg>
