<?xml version="1.0" encoding="UTF-8" standalone="no"?>
<svg xmlns:xlink="http://www.w3.org/1999/xlink" height="71.4px" width="71.4px" xmlns="http://www.w3.org/2000/svg">
  <g transform="matrix(1.0, 0.0, 0.0, 1.0, 0.5, 0.5)">
    <path d="M59.3 35.2 Q59.1 25.85 52.45 19.2 45.6 12.35 35.95 12.35 L35.25 12.35 M35.25 28.55 Q38.0 28.55 39.95 30.5 41.9 32.45 41.9 35.2 L41.9 35.25 Q41.9 38.05 39.95 40.0 38.0 41.95 35.2 41.95 32.4 41.95 30.45 40.0 28.5 38.05 28.5 35.25 L28.5 35.2 Q28.5 32.45 30.45 30.5 32.4 28.55 35.2 28.55 L35.25 28.55 M35.2 59.05 L35.95 59.05 Q45.6 59.05 52.45 52.2 59.3 45.35 59.3 35.7 L59.3 35.2 M35.2 59.05 Q26.05 58.8 19.45 52.2 12.6 45.35 12.6 35.7 L12.6 35.2 Q12.8 25.85 19.45 19.2 26.05 12.6 35.25 12.35" fill="none" stroke="#ffffff" stroke-linecap="round" stroke-linejoin="round" stroke-width="1.0"/>
    <path d="M35.25 12.35 L35.25 28.55 35.2 35.2 41.9 35.2 59.3 35.2 70.4 35.2 M35.2 41.95 L35.2 59.05 35.2 70.4 M12.6 35.2 L0.0 35.2 M35.25 12.35 L35.3 0.0 M28.5 35.2 L12.6 35.2 M28.5 35.2 L35.2 35.2 35.2 41.95" fill="none" stroke="#ffffff" stroke-linecap="round" stroke-linejoin="round" stroke-width="1.0"/>
  </g>
</svg>
