<?xml version="1.0" encoding="UTF-8" standalone="no"?>
<svg xmlns:xlink="http://www.w3.org/1999/xlink" height="48.85px" width="48.15px" xmlns="http://www.w3.org/2000/svg">
  <g transform="matrix(1.0, 0.0, 0.0, 1.0, 0.0, 0.0)">
    <path d="M24.1 4.1 L25.4 19.15 26.6 19.5 48.1 0.0 29.35 22.2 29.75 23.4 44.85 24.1 29.8 25.4 29.4 26.7 48.15 48.85 26.65 29.45 25.4 29.85 24.1 44.85 23.35 29.8 22.15 29.45 0.0 48.15 19.4 26.65 19.05 25.35 4.0 24.6 19.1 23.35 Q19.2 22.75 19.45 22.25 L0.05 0.8 22.25 19.5 Q22.75 19.25 23.35 19.15 L24.1 4.1" fill="#e9ff8e" fill-rule="evenodd" stroke="none"/>
  </g>
</svg>
