<?xml version="1.0" encoding="UTF-8" standalone="no"?>
<svg xmlns:xlink="http://www.w3.org/1999/xlink" height="82.55px" width="43.5px" xmlns="http://www.w3.org/2000/svg">
  <g transform="matrix(1.0, 0.0, 0.0, 1.0, 0.5, 0.5)">
    <path d="M37.95 11.15 Q36.3 10.05 35.4 8.9 L26.8 8.9 M25.1 10.8 L28.35 12.55 34.5 12.55 M36.15 0.0 L36.15 2.0 Q34.0 4.4 34.35 6.6 L40.4 6.6 M35.4 8.9 Q34.5 7.8 34.35 6.6 M0.35 34.15 L6.6 38.3 12.9 41.1 16.75 33.8 M0.0 42.15 L6.6 38.3 M33.15 24.4 L28.8 24.4 31.35 26.8 M23.7 21.95 L25.05 20.8 20.9 18.45 M21.7 24.4 L16.4 16.2 17.8 24.4 21.7 24.4 28.8 24.4 25.05 20.8 30.65 16.0 Q28.1 13.85 28.35 12.55 M36.25 37.6 L36.2 37.0 34.7 35.65 34.4 35.5 Q33.1 34.65 32.0 33.25 L31.95 33.2 Q29.7 32.4 26.85 32.4 L21.7 24.4 M35.35 36.0 L36.0 36.3 35.95 36.2 35.2 35.85 35.35 36.0 34.7 35.65 34.6 35.55 34.4 35.5 M28.9 29.25 L33.2 33.75 33.5 33.95 Q35.3 34.9 35.95 36.2 L36.55 36.5 40.4 36.6 M36.75 37.5 L36.2 36.9 36.2 37.0 36.75 37.5 40.4 40.75 M41.1 38.65 L36.55 36.5 36.0 36.3 36.2 36.9 35.35 36.0 M32.0 33.25 L34.6 35.55 35.2 35.85 33.2 33.75 31.95 33.2 M37.3 49.45 L31.75 49.45 23.85 56.5 22.8 59.15 27.55 64.8 M36.75 37.5 L41.85 42.85 24.75 42.85 21.9 45.0 31.75 49.45 M23.85 56.5 L22.0 58.15 22.8 59.15 18.85 69.35 M36.9 40.75 L27.85 37.6 24.55 39.7 21.25 41.8 M12.9 41.1 L19.0 47.2 21.9 45.0 M24.55 39.7 L21.95 36.25 M19.0 47.2 L13.25 51.55 M15.0 8.0 L16.4 16.2 M37.6 81.55 L37.6 71.8 32.75 71.8 31.25 67.45 28.9 71.8 M42.4 66.35 L37.6 71.8 42.5 71.8 M29.25 61.7 L31.25 67.45 35.55 59.6" fill="none" stroke="#ffffff" stroke-linecap="round" stroke-linejoin="round" stroke-width="1.0"/>
  </g>
</svg>
