<?xml version="1.0" encoding="UTF-8" standalone="no"?>
<svg xmlns:xlink="http://www.w3.org/1999/xlink" height="97.45px" width="98.75px" xmlns="http://www.w3.org/2000/svg">
  <g transform="matrix(1.0, 0.0, 0.0, 1.0, 5.6, 4.2)">
    <path d="M30.6 92.75 L32.05 86.9 Q21.35 83.95 12.95 75.55 0.0 62.6 0.0 44.25 0.0 37.7 1.65 31.85 4.6 21.3 12.95 12.95 25.9 0.0 44.25 0.0 62.6 0.0 75.55 12.95 86.55 23.95 88.2 38.8 L88.5 44.25 Q88.5 50.45 87.05 56.0 L92.65 57.35 M87.05 56.0 Q85.6 61.45 82.8 66.3 L90.35 70.3 M53.6 35.35 L53.3 35.05 53.0 34.75 Q48.9 30.65 43.1 30.65 37.3 30.65 33.15 34.75 31.3 36.6 30.3 38.8 29.05 41.5 29.05 44.7 29.05 50.5 33.15 54.6 37.3 58.75 43.1 58.75 48.9 58.75 53.0 54.6 57.15 50.5 57.15 44.7 57.15 41.5 55.9 38.8 55.05 36.95 53.6 35.35 M10.9 14.1 L6.3 10.35 M12.2 75.45 L8.1 79.75 M21.7 82.9 L17.65 90.45 M82.8 66.3 Q79.9 71.2 75.55 75.55 L75.35 75.8 79.65 79.85 M70.35 90.25 L65.9 83.0 Q60.75 85.9 54.95 87.3 L56.3 92.3 M54.95 87.3 Q49.85 88.5 44.25 88.5 37.8 88.5 32.05 86.9 M75.35 75.8 Q70.9 80.15 65.9 83.0 M4.15 24.1 L-3.7 20.65 M0.6 34.65 L-5.1 33.7 M5.0 66.0 L-2.3 70.45 M0.65 55.05 L-4.35 56.4 M19.8 6.25 L14.85 -0.7 M30.45 1.2 L28.7 -3.7" fill="none" stroke="#ffffff" stroke-linecap="round" stroke-linejoin="round" stroke-width="1.0"/>
    <path d="M53.6 35.35 L45.05 44.7 M75.55 12.95 L53.6 35.35" fill="none" stroke="#ffffff" stroke-linecap="round" stroke-linejoin="round" stroke-width="1.0"/>
  </g>
</svg>
