<?xml version="1.0" encoding="UTF-8" standalone="no"?>
<svg xmlns:xlink="http://www.w3.org/1999/xlink" height="27.4px" width="96.75px" xmlns="http://www.w3.org/2000/svg">
  <g transform="matrix(1.0, 0.0, 0.0, 1.0, 14.0, -2.4)">
    <path d="M79.75 4.3 Q79.0 3.7 78.05 3.7 L-9.3 3.7 -10.2 3.85 Q-10.8 4.0 -11.3 4.5 L-11.5 4.75 Q-12.15 5.5 -12.15 6.55 L-12.15 25.1 Q-12.15 26.25 -11.3 27.05 -10.45 27.9 -9.3 27.95 L78.05 27.95 79.05 27.7 79.95 27.05 Q80.7 26.3 80.8 25.35 L80.85 25.1 80.85 6.55 Q80.8 5.35 79.95 4.5 L79.75 4.3 M81.8 3.7 Q82.7 4.9 82.75 6.4 L82.75 25.2 Q82.7 26.7 81.8 27.95 L81.35 28.4 Q79.95 29.8 78.0 29.8 L-9.3 29.8 Q-11.25 29.8 -12.65 28.4 -14.0 27.0 -14.0 25.1 L-14.0 6.55 Q-14.0 5.0 -13.15 3.8 L-12.65 3.2 -12.65 3.15 -11.6 2.4 80.3 2.4 81.35 3.2 81.8 3.7" fill="#cccccc" fill-rule="evenodd" stroke="none"/>
    <path d="M79.75 4.3 L79.75 4.5 79.95 4.5 Q80.8 5.35 80.85 6.55 L80.85 25.1 80.8 25.35 Q80.7 26.3 79.95 27.05 L79.05 27.7 78.05 27.95 -9.3 27.95 Q-10.45 27.9 -11.3 27.05 -12.15 26.25 -12.15 25.1 L-12.15 6.55 Q-12.15 5.5 -11.5 4.75 L-11.3 4.55 -11.3 4.5 Q-10.8 4.0 -10.2 3.85 L-9.3 3.7 78.05 3.7 Q79.0 3.7 79.75 4.3 M78.95 5.3 L78.6 5.05 Q77.9 4.5 77.0 4.5 L-9.35 4.5 -9.4 4.55 Q-10.2 5.35 -10.25 6.5 L-10.25 22.75 Q-10.2 23.85 -9.4 24.65 -8.55 25.5 -7.45 25.55 L77.9 25.55 77.9 25.35 78.9 24.65 78.95 24.65 Q79.7 23.9 79.75 22.85 L79.75 7.2 Q79.7 6.1 78.95 5.3" fill="#666666" fill-rule="evenodd" stroke="none"/>
    <path d="M79.95 4.5 L79.75 4.5 79.75 4.3 79.95 4.5 M-11.3 4.5 L-11.3 4.55 -11.5 4.75 -11.3 4.5 M78.95 5.3 Q79.7 6.1 79.75 7.2 L79.75 22.85 Q79.7 23.9 78.95 24.65 L78.9 24.65 77.9 25.35 77.9 25.55 -7.45 25.55 Q-8.55 25.5 -9.4 24.65 -10.2 23.85 -10.25 22.75 L-10.25 6.5 Q-10.2 5.35 -9.4 4.55 L-9.35 4.5 77.0 4.5 Q77.9 4.5 78.6 5.05 L78.95 5.3" fill="url(#gradient0)" fill-rule="evenodd" stroke="none"/>
  </g>
  <defs>
    <linearGradient gradientTransform="matrix(0.0, -0.0142, 21.7684, 0.0, -16471.45, 13.6)" gradientUnits="userSpaceOnUse" id="gradient0" spreadMethod="pad" x1="-819.2" x2="819.2">
      <stop offset="0.0" stop-color="#cbcbcb"/>
      <stop offset="0.7098039215686275" stop-color="#ffffff"/>
    </linearGradient>
  </defs>
</svg>
