<?xml version="1.0" encoding="UTF-8" standalone="no"?>
<svg xmlns:xlink="http://www.w3.org/1999/xlink" height="213.9px" width="187.45px" xmlns="http://www.w3.org/2000/svg">
  <g transform="matrix(1.0, 0.0, 0.0, 1.0, 1.6, -0.4)">
    <path d="M-1.5 91.45 Q9.45 86.05 -0.5 66.7 L-0.5 28.1 Q10.0 24.65 24.75 3.2 29.35 2.45 33.75 4.05 41.8 1.25 51.65 8.1 60.9 -1.25 91.15 0.9 95.25 2.15 99.15 5.85 L101.5 8.4 Q112.8 19.6 130.05 18.95 149.9 17.9 162.3 38.35 L169.55 52.8 175.9 58.7 Q176.4 60.2 176.4 62.25 176.75 66.5 179.45 70.5 L180.85 72.4 Q183.6 77.6 182.95 88.3 183.9 93.3 184.9 97.1 L185.55 99.55 Q186.9 106.95 179.75 115.2 L176.3 118.45 Q167.15 127.7 166.05 137.05 L166.05 139.35 Q166.5 148.5 173.85 153.9 176.05 156.25 166.25 160.85 158.95 164.9 163.5 169.55 L166.15 171.7 Q169.2 174.9 170.1 180.35 167.7 176.05 161.2 171.7 160.1 173.9 170.95 184.85 166.35 183.3 161.05 177.35 L156.65 171.75 Q155.3 169.35 156.15 165.7 156.4 164.4 157.0 162.95 159.15 154.35 154.3 153.65 L149.3 159.85 Q158.6 177.6 151.5 191.25 162.7 197.65 171.1 208.35 L167.85 210.75 Q166.95 205.35 161.8 204.45 L27.9 200.95 Q21.8 200.75 21.75 205.75 L21.75 214.2 Q12.85 214.15 11.9 213.2 12.3 206.3 14.05 204.0 L15.85 202.85 Q33.9 191.5 52.3 182.25 51.8 174.25 48.35 168.2 L48.15 167.9 45.6 165.4 Q43.1 163.1 43.0 159.05 42.85 154.95 43.1 150.55 39.25 143.15 40.2 138.15 L40.3 137.75 Q42.9 127.1 54.65 128.95 55.1 122.0 52.45 106.45 50.85 93.3 43.3 91.3 34.65 91.85 32.4 86.1 29.85 92.15 32.15 97.85 33.65 99.75 34.45 102.0 35.05 103.6 35.25 105.4 35.45 108.45 35.1 111.1 34.2 117.4 30.25 121.55 32.35 111.15 30.0 106.05 L26.65 110.8 24.1 113.75 24.0 113.95 23.7 114.4 Q19.75 121.1 21.65 129.7 14.35 118.25 19.55 110.75 L19.9 110.3 Q24.2 104.15 23.5 98.2 14.6 93.0 13.25 84.45 10.05 92.05 -1.5 94.45" fill="none" stroke="#ffffff" stroke-linecap="round" stroke-linejoin="round" stroke-opacity="0.15294118" stroke-width="0.25"/>
  </g>
</svg>
