<?xml version="1.0" encoding="UTF-8" standalone="no"?>
<svg xmlns:xlink="http://www.w3.org/1999/xlink" height="237.25px" width="187.75px" xmlns="http://www.w3.org/2000/svg">
  <g transform="matrix(1.0, 0.0, 0.0, 1.0, -22.65, -40.75)">
    <path d="M35.0 220.55 Q42.2 219.95 46.0 218.05 44.85 208.6 53.9 205.75 L54.45 205.45 Q61.85 200.75 55.7 189.55 L55.7 172.8 53.9 172.7 Q51.55 178.15 45.3 178.35 36.7 184.3 27.4 178.35 22.75 171.8 27.05 165.05 L27.3 164.75 Q37.2 167.2 38.45 159.05 L38.6 158.65 Q41.1 153.45 54.75 153.95 58.0 154.05 62.2 148.2 46.8 140.2 51.3 131.2 55.35 125.5 62.5 120.55 45.65 116.85 47.6 97.2 L47.7 96.55 Q52.0 70.4 68.9 63.9 69.85 54.7 75.9 58.95 78.85 51.55 82.75 48.95 85.7 47.4 86.15 52.4 91.85 45.55 99.95 43.05 102.45 42.75 101.9 48.05 117.55 41.45 129.5 42.2 L129.8 42.2 Q131.95 42.5 128.7 46.95 146.6 45.85 165.65 50.7 171.75 52.75 163.95 55.4 173.65 61.2 181.05 67.4 L181.65 67.85 Q186.4 71.7 192.05 73.8 196.45 75.25 188.9 79.35 L209.05 99.5 209.05 104.05 206.85 105.4 209.05 106.15 209.05 109.95 204.8 110.6 209.05 112.9 209.05 120.1 205.5 120.5 209.05 121.4 209.05 126.9 203.8 127.55 208.45 132.7 Q209.3 135.85 204.65 136.65 207.65 140.0 206.15 140.45 197.65 139.7 194.4 146.55 193.9 156.0 186.3 159.3 L178.45 184.75 Q178.95 190.55 185.7 196.3 L185.9 196.45 Q189.7 196.8 191.1 198.4 L191.8 199.75 Q195.45 204.9 198.35 210.95 L199.3 212.95 Q200.8 216.95 200.3 222.1 L209.05 226.05 209.05 229.7 Q209.05 240.0 201.7 247.35 195.35 253.7 186.8 254.6 L185.8 254.65 185.8 252.05 Q185.45 245.0 180.85 244.85 L48.9 241.0 Q42.75 240.6 41.8 246.2 L41.8 254.45 Q32.05 254.05 25.35 247.35 L24.0 246.3 Q31.5 227.1 35.0 220.55 M108.25 267.1 L108.25 271.75 121.0 271.75 Q120.85 276.0 119.5 276.35 L102.0 276.1 102.0 255.25 121.65 255.25 120.15 259.1 108.25 259.35 108.25 263.5 120.6 263.5 119.35 267.1 108.25 267.1 M96.0 270.85 L94.7 275.55 77.15 275.5 77.15 254.35 86.4 253.75 84.3 257.85 84.3 270.85 96.0 270.85 M150.85 266.0 Q150.85 270.95 147.3 274.45 143.8 278.0 138.85 278.0 133.9 278.0 130.35 274.45 126.85 270.95 126.85 266.0 126.85 261.05 130.35 257.5 133.9 254.0 138.85 254.0 143.8 254.0 147.3 257.5 150.85 261.05 150.85 266.0 M142.35 266.1 L141.75 261.5 Q141.3 259.45 139.0 259.45 136.7 259.45 135.05 261.2 133.4 263.0 133.4 265.5 133.4 268.0 135.05 269.75 136.7 271.55 138.95 271.55 141.15 271.55 141.85 270.1 142.5 268.65 142.35 266.1" fill="#111111" fill-opacity="0.8509804" fill-rule="evenodd" stroke="none"/>
    <path d="M35.0 220.55 Q42.2 219.95 46.0 218.05 44.85 208.6 53.9 205.75 L54.45 205.45 Q61.85 200.75 55.7 189.55 L55.7 172.8 53.9 172.7 Q51.55 178.15 45.3 178.35 36.7 184.3 27.4 178.35 22.75 171.8 27.05 165.05 L27.3 164.75 Q37.2 167.2 38.45 159.05 L38.6 158.65 Q41.1 153.45 54.75 153.95 58.0 154.05 62.2 148.2 46.8 140.2 51.3 131.2 55.35 125.5 62.5 120.55 45.65 116.85 47.6 97.2 L47.7 96.55 Q52.0 70.4 68.9 63.9 69.85 54.7 75.9 58.95 78.85 51.55 82.75 48.95 85.7 47.4 86.15 52.4 91.85 45.55 99.95 43.05 102.45 42.75 101.9 48.05 117.55 41.45 129.5 42.2 L129.8 42.2 Q131.95 42.5 128.7 46.95 146.6 45.85 165.65 50.7 171.75 52.75 163.95 55.4 173.65 61.2 181.05 67.4 L181.65 67.85 Q186.4 71.7 192.05 73.8 196.45 75.25 188.9 79.35 L209.05 99.5 M209.05 120.1 L205.5 120.5 209.05 121.4 M209.05 126.9 L203.8 127.55 208.45 132.7 Q209.3 135.85 204.65 136.65 207.65 140.0 206.15 140.45 197.65 139.7 194.4 146.55 193.9 156.0 186.3 159.3 L178.45 184.75 Q178.95 190.55 185.7 196.3 L185.9 196.45 Q189.7 196.8 191.1 198.4 L191.8 199.75 Q195.45 204.9 198.35 210.95 L199.3 212.95 Q200.8 216.95 200.3 222.1 L209.05 226.05 209.05 229.7 Q209.05 240.0 201.7 247.35 195.35 253.7 186.8 254.6 L185.8 254.65 185.8 252.05 Q185.45 245.0 180.85 244.85 L48.9 241.0 Q42.75 240.6 41.8 246.2 L41.8 254.45 Q32.05 254.05 25.35 247.35 L24.0 246.3" fill="none" stroke="#000000" stroke-linecap="round" stroke-linejoin="round" stroke-width="2.75"/>
    <path d="M24.0 246.3 Q31.5 227.1 35.0 220.55 Z" fill="none" stroke="#000000" stroke-linecap="round" stroke-linejoin="round" stroke-width="2.75"/>
  </g>
</svg>
