<?xml version="1.0" encoding="UTF-8" standalone="no"?>
<svg xmlns:xlink="http://www.w3.org/1999/xlink" height="212.75px" width="185.25px" xmlns="http://www.w3.org/2000/svg">
  <g transform="matrix(1.0, 0.0, 0.0, 1.0, 0.1, 0.1)">
    <path d="M185.05 84.8 L179.8 85.45 184.45 90.6 Q185.3 93.75 180.65 94.55 183.65 97.9 182.15 98.35 173.65 97.6 170.4 104.45 169.9 113.9 162.3 117.2 L154.45 142.65 Q154.95 148.45 161.7 154.2 L161.9 154.35 Q165.7 154.7 167.1 156.3 167.6 156.9 167.8 157.65 171.45 162.8 174.35 168.85 L175.3 170.85 Q176.8 174.85 176.3 180.0 L185.05 183.95 185.05 187.6 Q185.05 197.9 177.7 205.25 171.35 211.6 162.8 212.5 L161.8 212.55 161.8 209.95 Q161.45 202.9 156.85 202.75 L24.9 198.9 Q18.75 198.5 17.8 204.1 L17.8 212.35 Q8.05 211.95 1.35 205.25 L0.0 204.2 Q7.5 185.0 11.0 178.45 18.2 177.85 22.0 175.95 20.85 166.5 29.9 163.65 L30.45 163.35 Q37.85 158.65 31.7 147.45 L31.7 130.7 29.9 130.6 Q27.55 136.05 21.3 136.25 12.7 142.2 3.4 136.25 -1.25 129.7 3.05 122.95 L3.3 122.65 Q13.2 125.1 14.45 116.95 L14.6 116.55 Q17.1 111.35 30.75 111.85 34.0 111.95 38.2 106.1 22.8 98.1 27.3 89.1 31.35 83.4 38.5 78.45 21.65 74.75 23.6 55.1 L23.7 54.45 Q28.0 28.3 44.9 21.8 45.85 12.6 51.9 16.85 54.85 9.45 58.75 6.85 61.7 5.3 62.15 10.3 67.85 3.45 75.95 0.95 78.45 0.65 77.9 5.95 93.55 -0.65 105.5 0.1 L105.8 0.1 Q107.95 0.4 104.7 4.85 122.6 3.75 141.65 8.6 147.75 10.65 139.95 13.3 149.65 19.1 157.05 25.3 L157.65 25.75 Q162.4 29.6 168.05 31.7 172.45 33.15 164.9 37.25 L185.05 57.4 M185.05 78.0 L181.5 78.4 185.05 79.3" fill="none" stroke="#ffffff" stroke-linecap="round" stroke-linejoin="round" stroke-opacity="0.15294118" stroke-width="0.25"/>
  </g>
</svg>
