<?xml version="1.0" encoding="UTF-8" standalone="no"?>
<svg xmlns:xlink="http://www.w3.org/1999/xlink" height="76.45px" width="197.0px" xmlns="http://www.w3.org/2000/svg">
  <g transform="matrix(1.0, 0.0, 0.0, 1.0, 99.7, 36.35)">
    <path d="M-84.2 -17.4 L-83.9 -17.5 -81.15 -17.6 -80.95 -18.15 -80.95 -34.1 -80.9 -34.45 -80.55 -34.55 -77.65 -34.35 Q-76.6 -34.25 -76.6 -33.75 -76.6 -33.3 -77.1 -33.15 -77.6 -33.0 -77.6 -32.6 L-77.6 -16.2 Q-77.65 -15.0 -78.3 -14.35 -79.0 -13.65 -81.55 -13.5 -81.9 -13.55 -81.85 -13.9 -81.75 -15.8 -84.0 -17.15 L-84.2 -17.4 M-88.8 -23.35 L-89.6 -23.35 -89.6 -18.15 -89.5 -18.1 -88.95 -18.1 -88.8 -18.35 -88.8 -23.35 M-87.9 -25.1 L-87.65 -25.25 -87.25 -25.1 -85.3 -23.85 -85.1 -23.7 -85.1 -26.35 -89.6 -26.35 -89.6 -23.95 -88.9 -23.95 -87.9 -25.1 M-92.85 -26.95 L-92.85 -29.45 -94.65 -29.45 Q-95.3 -28.35 -96.5 -26.95 L-92.85 -26.95 M-92.8 -34.55 L-92.55 -34.6 -89.85 -34.4 -89.2 -34.25 Q-88.8 -33.85 -89.35 -33.4 L-89.6 -32.85 -89.6 -30.05 -89.2 -30.05 -87.85 -31.65 -87.5 -31.55 -85.3 -29.75 -85.35 -29.5 -85.45 -29.45 -89.6 -29.45 -89.6 -26.95 -88.7 -26.95 -87.3 -28.65 -85.1 -27.0 -85.1 -32.45 -85.05 -32.75 -84.8 -32.8 -82.1 -32.6 -81.5 -32.4 Q-81.25 -32.2 -81.3 -32.0 L-81.6 -31.6 -81.85 -31.05 -81.85 -19.95 Q-81.85 -19.2 -82.15 -19.05 L-83.5 -18.85 -84.8 -19.0 Q-85.1 -19.2 -85.1 -19.95 L-85.1 -23.0 -85.4 -22.85 -85.75 -22.45 -85.75 -17.2 Q-85.75 -16.2 -86.35 -15.75 -87.0 -15.25 -88.8 -15.15 -89.2 -15.1 -89.25 -15.55 -89.25 -16.8 -89.6 -17.15 L-89.6 -14.55 Q-89.6 -13.8 -89.9 -13.65 L-91.2 -13.45 -92.55 -13.6 Q-92.85 -13.8 -92.85 -14.55 L-92.85 -23.35 -93.65 -23.35 -93.65 -16.0 Q-93.65 -15.35 -93.85 -15.2 L-95.2 -14.95 -96.45 -15.1 -96.7 -16.0 -96.7 -24.85 -96.65 -25.1 -96.4 -25.1 -93.65 -23.95 -92.85 -23.95 -92.85 -26.35 -97.2 -26.35 -97.5 -26.65 -97.2 -26.95 -96.9 -26.95 -96.9 -27.0 Q-96.1 -29.3 -96.2 -33.0 L-96.15 -33.45 -95.95 -33.5 -93.35 -33.05 -92.85 -32.95 -92.85 -34.25 -92.8 -34.55 M-92.85 -32.05 L-92.9 -32.05 -93.45 -31.65 -94.25 -30.05 -92.85 -30.05 -92.85 -32.05 M-51.1 -34.1 L-50.65 -34.1 -47.1 -33.5 Q-46.4 -33.4 -46.4 -33.05 -46.35 -32.7 -46.85 -32.45 L-47.4 -31.9 -48.2 -29.95 -44.95 -29.95 -43.0 -32.15 -42.55 -31.95 -39.8 -29.65 -39.9 -29.4 -39.95 -29.35 -46.25 -29.35 -46.25 -25.55 -45.65 -25.55 -43.65 -27.8 -43.2 -27.6 -40.45 -25.25 -40.55 -25.0 -40.65 -24.95 -46.25 -24.95 -46.25 -21.2 -45.65 -21.2 Q-43.95 -23.4 -43.65 -23.4 L-43.2 -23.2 -40.45 -20.9 -40.55 -20.65 -40.65 -20.6 -46.25 -20.6 -46.25 -14.7 Q-46.25 -13.85 -46.6 -13.65 L-48.0 -13.4 -49.5 -13.55 Q-49.8 -13.8 -49.8 -14.7 L-49.8 -27.25 Q-51.4 -25.15 -54.1 -23.55 L-54.45 -23.5 -54.45 -23.8 Q-52.0 -27.15 -51.2 -33.75 L-51.1 -34.1 M-52.6 -33.5 Q-52.55 -33.15 -53.0 -32.9 L-53.55 -32.25 Q-54.15 -29.65 -55.35 -27.35 L-55.45 -27.25 -55.1 -27.25 Q-54.4 -27.1 -54.4 -26.75 L-54.95 -25.7 -54.95 -14.6 Q-55.0 -14.05 -55.25 -13.85 L-56.7 -13.55 -58.1 -13.65 Q-58.45 -13.9 -58.45 -14.6 L-58.45 -23.55 -60.2 -22.1 -60.55 -22.05 -60.55 -22.35 Q-57.95 -26.2 -57.5 -33.8 L-57.4 -34.2 -56.9 -34.25 -53.35 -33.9 Q-52.65 -33.85 -52.6 -33.5" fill="#000000" fill-rule="evenodd" stroke="none"/>
    <path d="M-12.7 23.7 L-11.6 25.5 -9.7 25.5 Q-9.05 26.05 -9.7 26.65 L-12.9 26.65 -12.9 28.5 -11.55 28.5 Q-10.0 28.5 -10.15 30.2 L-10.15 36.35 Q-10.0 40.1 -14.0 39.05 -14.5 38.25 -13.65 37.9 -11.2 39.0 -11.35 36.0 L-11.35 30.3 Q-11.2 29.7 -11.85 29.7 L-12.9 29.7 Q-12.9 36.6 -15.6 39.45 -16.7 39.75 -16.55 38.8 -13.95 35.8 -14.1 28.95 L-14.1 26.65 -15.05 26.65 Q-15.75 26.05 -15.05 25.5 L-12.85 25.5 -13.65 24.5 Q-13.8 23.4 -12.7 23.7 M-7.25 24.15 L-7.65 25.5 -3.65 25.5 Q-2.95 26.05 -3.65 26.65 L-8.0 26.65 Q-8.35 27.65 -9.25 29.1 -10.2 29.55 -10.2 28.5 -8.95 26.4 -8.4 23.95 -7.65 23.15 -7.25 24.15 M-29.5 24.35 L-29.5 38.55 Q-30.1 39.2 -30.7 38.55 L-30.7 24.35 Q-30.1 23.7 -29.5 24.35 M-24.0 23.8 L-24.0 39.6 -25.15 39.65 -25.15 23.8 Q-24.6 23.3 -24.0 23.8 M-35.0 23.8 L-35.0 31.2 Q-34.75 36.75 -38.0 40.1 -38.95 40.1 -38.65 39.2 -36.05 36.2 -36.2 31.2 L-36.2 23.8 Q-35.6 23.15 -35.0 23.8 M-29.3 27.2 Q-29.1 26.3 -28.15 26.8 -26.35 31.25 -25.35 35.05 -25.75 35.9 -26.55 35.25 -27.65 31.5 -29.3 27.2 M-31.15 35.05 Q-31.75 35.9 -32.35 35.25 -33.05 31.05 -34.25 27.45 -33.9 26.6 -33.1 27.05 -31.85 30.85 -31.15 35.05 M-36.95 27.1 Q-36.8 32.2 -38.5 35.3 -39.5 35.75 -39.5 34.7 -38.0 31.7 -38.15 27.1 -37.55 26.45 -36.95 27.1 M-8.7 28.5 L-5.65 28.5 Q-3.5 28.85 -4.55 30.35 L-6.45 32.25 Q-6.7 32.4 -6.45 32.6 L-5.8 33.75 -3.25 33.75 Q-2.55 34.35 -3.2 34.95 L-5.3 34.95 Q-4.75 36.7 -4.9 37.4 -5.05 39.75 -7.25 39.9 -8.6 39.9 -9.65 39.15 -9.95 38.0 -9.0 38.15 -6.2 39.8 -6.1 36.95 -6.1 35.75 -6.55 34.95 L-9.55 34.95 Q-10.2 34.35 -9.55 33.75 L-7.05 33.75 -7.6 33.0 Q-8.0 32.4 -7.55 31.75 L-5.75 29.8 Q-5.4 29.7 -6.2 29.7 L-8.75 29.7 Q-9.4 29.1 -8.7 28.5 M-18.6 25.05 Q-18.9 23.95 -17.85 24.1 -16.4 25.25 -15.1 26.7 -15.1 27.9 -16.1 27.45 L-18.6 25.05 M-15.7 30.65 Q-15.4 31.75 -16.45 31.6 L-19.3 29.2 Q-19.45 28.25 -18.55 28.25 L-15.7 30.65 M-14.95 32.8 Q-16.1 36.75 -17.95 39.15 -19.05 39.6 -18.9 38.55 -16.85 35.65 -16.15 32.45 -15.35 31.8 -14.95 32.8 M-51.25 23.3 L-50.15 25.2 -43.75 25.2 Q-42.95 25.8 -43.75 26.4 L-56.35 26.4 Q-57.15 26.4 -57.15 27.15 L-57.15 30.85 Q-57.0 35.6 -58.4 39.65 -59.2 40.1 -59.55 39.45 -58.2 35.3 -58.3 30.75 L-58.3 27.05 Q-58.3 25.2 -56.5 25.2 L-51.45 25.2 -52.25 24.1 Q-52.4 23.0 -51.25 23.3 M-72.5 24.65 Q-71.8 25.25 -72.5 25.85 L-73.2 25.85 -73.2 32.3 -72.85 31.8 -68.6 31.8 -68.6 28.6 -72.35 28.6 Q-73.0 28.0 -72.35 27.4 L-67.25 27.4 -65.65 23.5 Q-64.7 22.7 -64.5 23.85 -65.05 26.15 -66.0 27.4 L-64.2 27.4 Q-63.55 28.0 -64.2 28.6 L-67.4 28.6 -67.4 31.8 -63.4 31.8 Q-62.7 32.4 -63.35 33.0 L-66.85 33.0 Q-65.75 35.9 -62.85 38.65 -62.55 39.75 -63.65 39.6 -66.35 37.2 -67.85 33.4 -69.5 37.35 -72.5 39.5 -73.55 39.5 -72.95 38.35 -70.35 36.05 -68.85 33.0 L-72.9 33.0 -73.2 32.55 -73.2 39.5 Q-73.8 40.1 -74.35 39.5 L-74.35 36.7 -79.15 38.5 Q-80.15 38.35 -79.55 37.35 L-78.5 37.0 -78.5 25.85 -79.2 25.85 Q-79.9 25.25 -79.2 24.65 L-72.5 24.65 M-70.5 23.15 Q-69.75 24.15 -68.5 26.45 -68.5 27.5 -69.65 27.05 L-71.5 23.9 Q-71.5 22.85 -70.5 23.15 M-74.35 25.85 L-77.3 25.85 -77.3 28.25 -74.35 28.25 -74.35 25.85 M-77.3 36.65 L-74.35 35.45 -74.35 33.3 -77.3 33.3 -77.3 36.65 M-74.35 29.4 L-77.3 29.4 -77.3 32.1 -74.35 32.1 -74.35 29.4 M-95.45 24.7 Q-96.85 28.2 -98.2 30.15 L-96.0 29.9 Q-95.5 29.05 -95.1 27.65 -94.25 26.85 -94.05 28.0 -94.9 31.1 -97.1 33.9 L-93.95 33.05 Q-93.1 33.45 -93.75 34.2 L-98.8 35.5 Q-99.65 35.3 -99.2 34.35 -97.95 33.65 -96.35 31.05 L-99.05 31.35 Q-100.1 31.35 -99.5 30.1 -97.7 27.5 -96.6 24.3 -95.65 23.7 -95.45 24.7 M-88.75 23.45 Q-88.3 24.05 -88.0 24.9 -87.85 25.35 -88.0 25.5 L-84.75 25.35 Q-82.5 25.35 -83.9 28.95 L-84.5 29.05 Q-84.35 29.45 -84.8 29.85 L-92.35 29.85 Q-93.05 29.45 -92.4 28.65 L-84.85 28.65 -84.9 28.35 Q-84.1 26.5 -84.85 26.5 L-91.75 26.5 Q-92.4 26.5 -92.4 27.15 L-92.4 28.6 Q-93.0 29.3 -93.6 28.6 L-93.6 27.15 Q-93.6 25.35 -91.9 25.35 L-88.9 25.35 -89.75 24.05 Q-89.55 23.15 -88.75 23.45 M-84.0 32.85 L-87.7 32.85 -87.7 38.5 Q-87.6 40.1 -91.75 39.6 -92.2 39.0 -91.35 38.45 -88.75 39.55 -88.9 38.2 L-88.9 32.85 -92.95 32.85 Q-93.6 32.3 -92.9 31.7 L-84.0 31.7 Q-83.3 32.3 -84.0 32.85 M-85.55 33.55 Q-84.0 36.5 -83.3 39.0 -83.3 40.1 -84.35 39.55 -85.15 36.9 -86.55 34.1 -86.4 33.05 -85.55 33.55 M-93.45 37.1 Q-95.75 37.95 -99.1 38.5 -99.95 38.15 -99.3 37.35 -95.8 36.8 -93.7 35.95 -92.8 36.35 -93.45 37.1 M-93.7 38.8 Q-92.35 36.5 -91.8 33.7 -91.0 32.95 -90.6 33.9 -91.15 37.0 -92.75 39.6 -94.0 40.05 -93.7 38.8 M89.55 23.65 Q91.2 30.3 91.5 34.25 90.9 35.05 90.3 34.4 90.05 30.8 88.35 24.0 88.75 23.15 89.55 23.65 M94.5 34.85 Q94.8 40.05 92.1 39.75 L88.15 39.75 Q85.6 39.9 85.6 36.95 L85.6 24.9 Q86.2 24.25 86.8 24.9 L86.8 36.8 Q86.8 38.7 88.15 38.6 L91.85 38.6 Q93.6 39.0 93.35 34.85 93.95 34.15 94.5 34.85 M94.8 25.7 Q96.45 31.0 97.3 37.4 96.9 38.25 96.1 37.6 95.55 32.3 93.6 26.05 94.0 25.2 94.8 25.7 M83.75 26.15 Q83.9 31.9 82.1 38.3 81.1 38.8 80.95 37.9 82.7 31.3 82.6 26.0 83.4 25.35 83.75 26.15 M69.5 23.55 L69.5 26.45 74.55 26.45 Q76.25 26.45 76.15 28.0 L76.15 33.55 Q76.25 35.35 74.4 35.2 L69.5 35.2 69.5 39.6 68.3 39.65 68.3 35.2 63.55 35.2 Q62.0 35.35 62.0 33.65 L62.0 28.0 Q62.15 26.6 63.55 26.45 L68.3 26.45 68.3 23.55 Q68.9 22.7 69.5 23.55 M45.35 24.0 L44.1 28.3 44.1 39.5 Q43.5 40.1 42.9 39.5 L42.9 30.1 Q42.55 31.4 41.65 32.3 40.55 32.6 40.85 31.5 43.3 28.35 44.15 23.65 45.15 22.85 45.35 24.0 M48.65 23.85 L48.2 25.35 56.9 25.35 Q57.75 25.95 56.9 26.5 L50.15 26.5 50.15 30.05 55.7 30.05 Q56.35 30.6 55.7 31.2 L50.15 31.2 50.15 35.0 55.95 35.0 Q56.75 35.6 55.95 36.15 L50.15 36.15 50.15 39.6 48.95 39.65 48.95 26.5 48.05 26.5 Q47.1 29.6 45.7 31.55 44.7 32.05 44.7 31.0 46.65 28.2 47.45 23.65 48.25 22.85 48.65 23.85 M74.3 27.65 L69.5 27.65 69.5 34.05 74.15 34.05 Q75.1 34.15 74.95 33.25 L74.95 28.25 Q75.1 27.65 74.3 27.65 M63.15 28.3 L63.15 33.4 Q63.15 34.15 63.8 34.05 L68.3 34.05 68.3 27.65 63.8 27.65 Q63.15 27.65 63.15 28.3 M23.9 23.85 L23.35 25.75 25.45 25.75 25.45 23.65 Q26.05 23.0 26.65 23.65 L26.65 25.75 30.8 25.75 Q31.6 26.35 30.8 26.95 L26.65 26.95 26.65 28.8 31.75 28.8 Q32.45 29.4 31.75 29.95 L26.65 29.95 26.65 31.8 29.2 31.8 Q30.95 31.8 30.8 33.35 L30.8 37.4 Q30.95 39.35 29.1 39.35 L27.05 38.9 Q26.55 38.1 27.45 37.75 L28.95 38.15 Q29.75 38.3 29.6 37.4 L29.6 33.6 Q29.75 33.0 28.95 33.0 L26.65 33.0 26.65 39.5 Q26.05 40.1 25.45 39.5 L25.45 33.0 23.15 33.0 Q22.5 33.0 22.5 33.65 L22.5 39.2 21.35 39.25 21.35 33.4 Q21.35 31.8 22.9 31.8 L25.45 31.8 25.45 29.95 20.9 29.95 Q20.2 29.4 20.9 28.8 L25.45 28.8 25.45 26.95 23.0 26.95 22.05 28.7 Q21.05 29.0 21.05 28.1 22.45 25.85 22.7 23.65 23.5 23.0 23.9 23.85 M36.3 24.25 L36.3 37.8 Q36.45 39.9 34.6 39.9 L32.3 39.45 Q31.65 38.5 32.7 38.3 35.25 39.25 35.1 37.8 L35.1 24.2 36.3 24.25 M13.1 23.4 L15.85 26.4 Q16.0 27.5 14.85 27.2 L12.35 24.4 Q12.15 23.4 13.1 23.4 M11.15 23.65 L11.25 27.55 16.4 27.55 Q17.2 28.15 16.4 28.75 L11.3 28.75 Q11.55 32.1 12.4 34.7 13.7 32.35 14.55 29.8 15.5 29.5 15.7 30.35 14.75 33.05 12.95 35.85 14.15 38.35 15.3 38.75 15.9 39.0 15.75 35.1 16.35 34.45 16.95 35.1 17.1 40.05 15.4 40.05 13.75 40.05 12.05 36.6 10.7 38.2 8.15 39.75 7.05 39.9 7.5 38.75 10.05 37.25 11.5 35.55 10.4 32.3 10.1 28.75 L7.7 28.75 Q7.2 28.15 7.7 27.55 L10.1 27.55 9.95 23.65 Q10.55 23.0 11.15 23.65 M5.6 26.95 L1.55 26.95 Q0.85 26.55 1.5 25.75 L5.75 25.75 Q7.55 25.75 7.4 27.35 7.3 31.2 5.8 34.05 L7.85 37.6 Q8.0 38.65 6.85 38.2 L5.05 34.95 Q3.65 37.5 1.4 39.45 0.45 39.6 0.6 38.65 2.85 36.45 4.3 34.05 L1.7 30.1 Q1.7 29.05 2.7 29.4 L5.0 33.2 Q6.1 30.55 6.25 27.45 6.4 26.95 5.6 26.95 M32.35 25.05 Q32.95 24.1 33.55 25.05 L33.55 36.2 Q32.95 37.0 32.35 36.2 L32.35 25.05" fill="#fabd05" fill-rule="evenodd" stroke="none"/>
    <path d="M-96.3 -4.0 Q-95.85 -4.65 -95.05 -5.0 L-92.75 -5.35 Q-90.95 -5.35 -90.0 -4.7 -89.1 -4.05 -88.9 -2.6 L-91.6 -2.45 -92.05 -3.35 -93.05 -3.65 -93.8 -3.4 -94.05 -2.9 -93.85 -2.5 -92.85 -2.15 -90.15 -1.35 -89.0 -0.3 Q-88.6 0.3 -88.6 1.05 -88.6 1.95 -89.1 2.7 -89.6 3.5 -90.5 3.85 L-92.75 4.25 Q-95.1 4.25 -96.0 3.35 -96.95 2.45 -97.05 1.0 L-94.3 0.85 -93.95 1.85 Q-93.5 2.45 -92.7 2.45 L-91.75 2.15 Q-91.4 1.85 -91.4 1.45 -91.4 1.1 -91.7 0.8 L-93.2 0.3 Q-95.1 -0.15 -95.9 -0.85 -96.7 -1.55 -96.7 -2.65 -96.7 -3.35 -96.3 -4.0 M-85.8 -2.9 L-85.8 -5.2 -77.05 -5.2 -77.05 -2.9 -80.0 -2.9 -80.0 4.1 -82.85 4.1 -82.85 -2.9 -85.8 -2.9 M-68.95 -5.2 L-65.45 4.1 -68.45 4.1 -68.95 2.55 -72.2 2.55 -72.65 4.1 -75.6 4.1 -72.1 -5.2 -68.95 -5.2 M-56.05 -1.6 L-56.05 0.3 -59.65 0.3 -59.65 4.1 -62.55 4.1 -62.55 -5.2 -55.45 -5.2 -55.45 -3.2 -59.65 -3.2 -59.65 -1.6 -56.05 -1.6 M-44.8 -3.2 L-49.0 -3.2 -49.0 -1.6 -45.4 -1.6 -45.4 0.3 -49.0 0.3 -49.0 4.1 -51.9 4.1 -51.9 -5.2 -44.8 -5.2 -44.8 -3.2 M-69.55 0.55 L-70.55 -2.8 -71.55 0.55 -69.55 0.55" fill="#e7f902" fill-rule="evenodd" stroke="none"/>
    <path d="M-92.85 -32.05 L-92.85 -30.05 -94.25 -30.05 -93.45 -31.65 -92.9 -32.05 -92.85 -32.05 M-92.8 -34.55 L-92.85 -34.25 -92.85 -32.95 -93.35 -33.05 -95.95 -33.5 -96.15 -33.45 -96.2 -33.0 Q-96.1 -29.3 -96.9 -27.0 L-96.9 -26.95 -97.2 -26.95 -97.5 -26.65 -97.2 -26.35 -92.85 -26.35 -92.85 -23.95 -93.65 -23.95 -96.4 -25.1 -96.65 -25.1 -96.7 -24.85 -96.7 -16.0 -96.45 -15.1 -95.2 -14.95 -93.85 -15.2 Q-93.65 -15.35 -93.65 -16.0 L-93.65 -23.35 -92.85 -23.35 -92.85 -14.55 Q-92.85 -13.8 -92.55 -13.6 L-91.2 -13.45 -89.9 -13.65 Q-89.6 -13.8 -89.6 -14.55 L-89.6 -17.15 Q-89.25 -16.8 -89.25 -15.55 -89.2 -15.1 -88.8 -15.15 -87.0 -15.25 -86.35 -15.75 -85.75 -16.2 -85.75 -17.2 L-85.75 -22.45 -85.4 -22.85 -85.1 -23.0 -85.1 -19.95 Q-85.1 -19.2 -84.8 -19.0 L-83.5 -18.85 -82.15 -19.05 Q-81.85 -19.2 -81.85 -19.95 L-81.85 -31.05 -81.6 -31.6 -81.3 -32.0 Q-81.25 -32.2 -81.5 -32.4 L-82.1 -32.6 -84.8 -32.8 -85.05 -32.75 -85.1 -32.45 -85.1 -27.0 -87.3 -28.65 -88.7 -26.95 -89.6 -26.95 -89.6 -29.45 -85.45 -29.45 -85.35 -29.5 -85.3 -29.75 -87.5 -31.55 -87.85 -31.65 -89.2 -30.05 -89.6 -30.05 -89.6 -32.85 -89.35 -33.4 Q-88.8 -33.85 -89.2 -34.25 L-89.85 -34.4 -92.55 -34.6 -92.8 -34.55 M-92.85 -26.95 L-96.5 -26.95 Q-95.3 -28.35 -94.65 -29.45 L-92.85 -29.45 -92.85 -26.95 M-87.9 -25.1 L-88.9 -23.95 -89.6 -23.95 -89.6 -26.35 -85.1 -26.35 -85.1 -23.7 -85.3 -23.85 -87.25 -25.1 -87.65 -25.25 -87.9 -25.1 M-88.8 -23.35 L-88.8 -18.35 -88.95 -18.1 -89.5 -18.1 -89.6 -18.15 -89.6 -23.35 -88.8 -23.35 M-84.2 -17.4 L-84.0 -17.15 Q-81.75 -15.8 -81.85 -13.9 -81.9 -13.55 -81.55 -13.5 -79.0 -13.65 -78.3 -14.35 -77.65 -15.0 -77.6 -16.2 L-77.6 -32.6 Q-77.6 -33.0 -77.1 -33.15 -76.6 -33.3 -76.6 -33.75 -76.6 -34.25 -77.65 -34.35 L-80.55 -34.55 -80.9 -34.45 -80.95 -34.1 -80.95 -18.15 -81.15 -17.6 -83.9 -17.5 -84.2 -17.4 M-52.6 -33.5 Q-52.65 -33.85 -53.35 -33.9 L-56.9 -34.25 -57.4 -34.2 -57.5 -33.8 Q-57.95 -26.2 -60.55 -22.35 L-60.55 -22.05 -60.2 -22.1 -58.45 -23.55 -58.45 -14.6 Q-58.45 -13.9 -58.1 -13.65 L-56.7 -13.55 -55.25 -13.85 Q-55.0 -14.05 -54.95 -14.6 L-54.95 -25.7 -54.4 -26.75 Q-54.4 -27.1 -55.1 -27.25 L-55.45 -27.25 -55.35 -27.35 Q-54.15 -29.65 -53.55 -32.25 L-53.0 -32.9 Q-52.55 -33.15 -52.6 -33.5 M-51.1 -34.1 L-51.2 -33.75 Q-52.0 -27.15 -54.45 -23.8 L-54.45 -23.5 -54.1 -23.55 Q-51.4 -25.15 -49.8 -27.25 L-49.8 -14.7 Q-49.8 -13.8 -49.5 -13.55 L-48.0 -13.4 -46.6 -13.65 Q-46.25 -13.85 -46.25 -14.7 L-46.25 -20.6 -40.65 -20.6 -40.55 -20.65 -40.45 -20.9 -43.2 -23.2 -43.65 -23.4 Q-43.95 -23.4 -45.65 -21.2 L-46.25 -21.2 -46.25 -24.95 -40.65 -24.95 -40.55 -25.0 -40.45 -25.25 -43.2 -27.6 -43.65 -27.8 -45.65 -25.55 -46.25 -25.55 -46.25 -29.35 -39.95 -29.35 -39.9 -29.4 -39.8 -29.65 -42.55 -31.95 -43.0 -32.15 -44.95 -29.95 -48.2 -29.95 -47.4 -31.9 -46.85 -32.45 Q-46.35 -32.7 -46.4 -33.05 -46.4 -33.4 -47.1 -33.5 L-50.65 -34.1 -51.1 -34.1" fill="none" stroke="#000000" stroke-linecap="round" stroke-linejoin="round" stroke-width="3.5"/>
    <path d="M-51.2 -33.75 L-51.1 -34.1 -50.65 -34.1 -47.1 -33.5 Q-46.4 -33.4 -46.4 -33.05 -46.35 -32.7 -46.85 -32.45 L-47.4 -31.9 -48.2 -29.95 -44.95 -29.95 -43.0 -32.15 -42.55 -31.95 -39.8 -29.65 -39.9 -29.4 -39.95 -29.35 -46.25 -29.35 -46.25 -25.55 -45.65 -25.55 -43.65 -27.8 -43.2 -27.6 -40.45 -25.25 -40.55 -25.0 -40.65 -24.95 -46.25 -24.95 -46.25 -21.2 -45.65 -21.2 Q-43.95 -23.4 -43.65 -23.4 L-43.2 -23.2 -40.45 -20.9 -40.55 -20.65 -40.65 -20.6 -46.25 -20.6 -46.25 -14.7 Q-46.25 -13.85 -46.6 -13.65 L-48.0 -13.4 -49.5 -13.55 Q-49.8 -13.8 -49.8 -14.7 L-49.8 -27.25 Q-51.4 -25.15 -54.1 -23.55 L-54.45 -23.5 -54.45 -23.8 Q-52.0 -27.15 -51.2 -33.75 M-53.35 -33.9 Q-52.65 -33.85 -52.6 -33.5 -52.55 -33.15 -53.0 -32.9 L-53.55 -32.25 Q-54.15 -29.6 -55.45 -27.25 L-55.1 -27.25 Q-54.4 -27.1 -54.4 -26.75 L-54.95 -25.7 -54.95 -14.6 Q-55.0 -14.05 -55.25 -13.85 L-56.7 -13.55 -58.1 -13.65 Q-58.45 -13.9 -58.45 -14.6 L-58.45 -23.55 -60.2 -22.1 -60.55 -22.05 -60.55 -22.35 Q-57.95 -26.2 -57.5 -33.8 L-57.4 -34.2 -56.9 -34.25 -53.35 -33.9 M-83.9 -17.5 L-81.15 -17.6 -80.95 -18.15 -80.95 -34.1 -80.9 -34.45 -80.55 -34.55 -77.65 -34.35 Q-76.6 -34.25 -76.6 -33.75 -76.6 -33.3 -77.1 -33.15 -77.6 -33.0 -77.6 -32.6 L-77.6 -16.2 Q-77.65 -15.0 -78.3 -14.35 -79.0 -13.65 -81.55 -13.5 -81.9 -13.55 -81.85 -13.9 -81.75 -15.8 -84.0 -17.15 L-84.2 -17.4 -83.9 -17.5 M-88.8 -23.35 L-89.6 -23.35 -89.6 -18.15 -89.5 -18.1 -88.95 -18.1 -88.8 -18.35 -88.8 -23.35 M-87.65 -25.25 L-87.25 -25.1 -85.3 -23.85 -85.1 -23.7 -85.1 -26.35 -89.6 -26.35 -89.6 -23.95 -88.9 -23.95 -87.9 -25.1 -87.65 -25.25 M-92.85 -26.95 L-92.85 -29.45 -94.65 -29.45 Q-95.3 -28.35 -96.5 -26.95 L-92.85 -26.95 M-92.85 -32.05 L-92.9 -32.05 -93.45 -31.65 -94.25 -30.05 -92.85 -30.05 -92.85 -32.05 M-92.8 -34.55 L-92.55 -34.6 -89.85 -34.4 -89.2 -34.25 Q-88.8 -33.85 -89.35 -33.4 L-89.6 -32.85 -89.6 -30.05 -89.2 -30.05 -87.85 -31.65 -87.5 -31.55 -85.3 -29.75 -85.35 -29.5 -85.45 -29.45 -89.6 -29.45 -89.6 -26.95 -88.7 -26.95 -87.3 -28.65 -85.1 -27.0 -85.1 -32.45 -85.05 -32.75 -84.8 -32.8 -82.1 -32.6 -81.5 -32.4 Q-81.05 -32.05 -81.6 -31.6 L-81.85 -31.05 -81.85 -19.95 Q-81.85 -19.2 -82.15 -19.05 L-83.5 -18.85 -84.8 -19.0 Q-85.1 -19.2 -85.1 -19.95 L-85.1 -23.0 -85.4 -22.85 -85.75 -22.45 -85.75 -17.2 Q-85.75 -16.2 -86.35 -15.75 -87.0 -15.25 -88.8 -15.15 -89.2 -15.1 -89.25 -15.55 -89.25 -16.8 -89.6 -17.15 L-89.6 -14.55 Q-89.6 -13.8 -89.9 -13.65 L-91.2 -13.45 -92.55 -13.6 Q-92.85 -13.8 -92.85 -14.55 L-92.85 -23.35 -93.65 -23.35 -93.65 -16.0 Q-93.65 -15.35 -93.85 -15.2 L-95.2 -14.95 -96.45 -15.1 -96.7 -16.0 -96.7 -24.85 -96.65 -25.1 -96.4 -25.1 -93.65 -23.95 -92.85 -23.95 -92.85 -26.35 -97.2 -26.35 -97.5 -26.65 -97.2 -26.95 -96.9 -26.95 -96.9 -27.0 Q-96.1 -29.3 -96.2 -33.0 L-96.15 -33.45 -95.95 -33.5 -93.35 -33.05 -92.85 -32.95 -92.85 -34.25 -92.8 -34.55" fill="#e7f902" fill-rule="evenodd" stroke="none"/>
  </g>
</svg>
