<?xml version="1.0" encoding="UTF-8" standalone="no"?>
<svg xmlns:xlink="http://www.w3.org/1999/xlink" height="94.7px" width="88.5px" xmlns="http://www.w3.org/2000/svg">
  <g transform="matrix(1.0, 0.0, 0.0, 1.0, 91.85, 36.45)">
    <path d="M-61.5 -14.7 Q-62.3 -14.8 -62.6 -15.3 -63.55 -16.8 -61.8 -17.9 -59.85 -19.35 -59.65 -21.1 L-59.5 -21.3 Q-59.35 -21.4 -59.25 -21.15 -58.2 -18.55 -58.85 -16.55 -59.15 -15.55 -59.95 -15.05 -60.7 -14.6 -61.5 -14.7 M-48.05 -29.45 L-57.0 -29.45 -57.0 -24.3 -48.05 -24.3 -48.05 -29.45 M-60.35 -31.4 L-60.15 -31.35 -56.9 -30.05 -51.5 -30.05 Q-50.05 -32.8 -49.65 -34.4 L-49.3 -34.7 -45.55 -33.7 Q-45.35 -33.45 -45.5 -33.2 -45.65 -33.0 -45.95 -32.95 L-46.6 -32.85 -49.9 -30.05 -48.15 -30.05 -47.1 -31.1 -46.8 -31.25 -46.4 -31.1 -44.2 -29.8 Q-43.2 -29.2 -44.2 -28.75 -44.55 -28.6 -44.55 -28.1 L-44.55 -23.35 -44.75 -22.9 Q-45.05 -22.6 -46.2 -22.6 L-47.8 -22.75 -48.05 -23.4 -48.05 -23.7 -57.0 -23.7 Q-57.0 -23.0 -57.25 -22.8 L-58.75 -22.55 -60.15 -22.7 Q-60.45 -22.95 -60.45 -23.7 L-60.45 -31.15 -60.35 -31.4 M-53.75 -32.75 Q-53.45 -31.95 -53.65 -31.35 -53.9 -30.75 -54.45 -30.45 L-55.6 -30.3 Q-56.2 -30.5 -56.45 -31.2 L-57.4 -33.05 Q-58.05 -34.05 -58.75 -34.35 L-58.85 -34.6 -58.55 -34.7 Q-56.95 -34.8 -55.5 -34.15 -54.05 -33.5 -53.75 -32.75 M-47.3 -20.35 Q-47.15 -20.35 -47.15 -20.1 -47.15 -18.8 -46.95 -18.45 L-46.55 -17.95 Q-45.9 -17.6 -45.8 -17.25 -45.65 -16.75 -45.8 -16.05 -45.95 -15.25 -46.5 -14.8 -47.55 -13.7 -50.35 -13.75 L-54.05 -13.75 Q-57.0 -13.55 -57.65 -14.35 L-57.95 -15.45 -57.95 -21.75 -57.8 -22.15 -57.45 -22.25 -54.6 -22.05 -53.75 -21.8 Q-53.35 -21.2 -54.25 -20.9 L-54.45 -20.6 -54.45 -17.7 -54.2 -17.1 -52.5 -16.95 -50.5 -16.95 -48.7 -17.3 Q-48.2 -17.6 -47.55 -20.15 L-47.3 -20.35 M-46.35 -21.3 L-46.1 -21.4 Q-44.55 -20.95 -43.35 -20.05 -42.1 -19.05 -41.75 -18.05 -41.45 -17.45 -41.55 -16.7 -41.7 -15.9 -42.15 -15.55 -42.75 -15.05 -43.4 -15.05 -44.15 -15.15 -44.55 -15.65 -44.9 -16.1 -45.0 -17.95 -45.25 -19.95 -46.3 -21.1 L-46.35 -21.3 M-49.45 -21.3 Q-49.05 -20.8 -49.05 -20.05 -49.05 -19.35 -49.4 -18.9 -49.9 -18.35 -50.45 -18.25 -51.15 -18.15 -51.6 -18.6 L-52.2 -19.75 -52.8 -21.7 Q-53.05 -22.35 -53.85 -22.95 L-53.9 -23.1 -53.7 -23.25 Q-52.35 -23.15 -51.15 -22.65 -49.9 -22.05 -49.45 -21.3 M-23.15 -22.65 L-20.3 -21.95 -11.25 -21.95 -9.9 -23.55 -9.7 -23.65 -9.55 -23.55 -6.85 -21.85 -6.5 -21.3 Q-6.5 -20.95 -7.05 -20.65 L-7.55 -20.1 -7.55 -15.05 -6.5 -16.55 -6.25 -16.45 -5.9 -15.9 Q-5.05 -14.55 -5.1 -14.25 L-5.2 -14.15 -25.05 -14.15 -25.35 -14.45 -25.05 -14.75 -23.65 -14.75 -23.65 -22.2 -23.55 -22.65 -23.15 -22.65 M-24.05 -33.4 L-21.2 -33.2 -20.55 -33.0 Q-20.1 -32.55 -20.65 -32.1 L-20.95 -31.55 -20.95 -24.75 Q-21.0 -23.95 -21.25 -23.8 L-22.65 -23.6 -24.05 -23.75 Q-24.4 -24.0 -24.4 -24.75 L-24.4 -33.05 -24.35 -33.35 -24.05 -33.4 M-12.45 -28.55 L-12.2 -28.7 -9.6 -28.35 Q-8.3 -27.95 -7.8 -27.25 -7.35 -26.7 -7.25 -25.95 -7.2 -25.15 -7.55 -24.7 -8.05 -24.05 -8.65 -23.95 -9.4 -23.75 -9.9 -24.2 -10.65 -24.85 -10.65 -25.55 -11.25 -27.55 -12.35 -28.35 L-12.45 -28.55 M-10.3 -33.25 L-10.95 -32.4 -11.65 -30.8 -10.1 -30.8 -8.45 -32.75 -8.05 -32.55 -5.55 -30.5 -5.65 -30.25 -5.75 -30.2 -11.95 -30.2 Q-13.65 -27.05 -16.45 -24.75 L-16.45 -23.9 Q-16.5 -23.1 -16.8 -22.95 L-18.2 -22.75 -19.6 -22.9 Q-19.95 -23.1 -19.95 -23.9 L-19.95 -34.15 -19.85 -34.45 -19.6 -34.55 -16.75 -34.3 -16.1 -34.1 Q-15.6 -33.7 -16.2 -33.25 L-16.45 -32.65 -16.45 -26.55 Q-14.75 -30.45 -14.7 -34.0 L-14.6 -34.4 -14.2 -34.45 -10.85 -34.15 Q-10.0 -34.1 -10.0 -33.75 -10.0 -33.4 -10.3 -33.25 M-15.1 -14.75 L-15.1 -21.35 -15.95 -21.35 -15.95 -14.75 -15.1 -14.75 M-19.25 -21.35 L-20.15 -21.35 -20.15 -14.75 -19.25 -14.75 -19.25 -21.35 M-11.0 -21.35 L-11.85 -21.35 -11.85 -14.75 -11.0 -14.75 -11.0 -21.35" fill="#000000" fill-rule="evenodd" stroke="none"/>
    <path d="M-6.7 24.25 Q-6.05 24.85 -6.7 25.4 L-12.65 25.4 -12.65 29.5 -5.6 29.5 Q-4.95 30.05 -5.6 30.65 L-12.4 30.65 Q-9.95 36.45 -5.3 38.6 -4.65 39.55 -5.85 39.75 -11.05 36.95 -12.9 31.9 -13.9 37.95 -20.25 39.75 -21.4 39.75 -20.8 38.6 -14.65 36.85 -13.85 30.65 L-20.9 30.65 Q-21.55 30.25 -20.9 29.5 L-13.85 29.5 -13.85 25.4 -19.5 25.4 Q-20.2 25.0 -19.55 24.25 L-6.7 24.25 M-37.55 23.95 L-37.55 26.05 -36.3 26.05 Q-35.6 26.65 -36.3 27.2 L-37.55 27.2 -37.55 38.45 Q-37.25 40.1 -41.15 39.6 -41.65 38.65 -40.75 38.45 L-38.75 38.35 -38.75 27.2 -41.4 27.2 Q-42.05 26.65 -41.4 26.05 L-38.75 26.05 -38.75 23.95 Q-38.15 23.3 -37.55 23.95 M-40.25 35.1 Q-40.65 32.05 -41.5 29.25 -41.1 28.35 -40.35 29.0 -39.5 31.55 -39.05 34.9 -39.45 35.75 -40.25 35.1 M-37.3 47.1 L-35.75 52.95 -34.2 47.1 -31.6 47.1 -31.6 55.7 -33.2 55.7 -33.2 48.95 -34.9 55.7 -36.6 55.7 -38.3 48.95 -38.3 55.7 -39.9 55.7 -39.9 47.1 -37.3 47.1 M-43.5 24.0 Q-43.6 24.6 -44.3 25.5 L-43.5 25.5 Q-41.8 25.5 -41.95 27.0 L-41.95 38.5 Q-41.95 40.1 -46.0 39.45 -46.3 38.5 -45.45 38.3 L-43.15 38.35 -43.15 35.2 Q-44.65 37.35 -47.5 39.2 -48.5 39.05 -48.05 38.05 -45.55 36.7 -43.15 33.95 L-47.8 34.5 Q-48.5 34.3 -48.05 33.35 L-47.3 33.25 -47.3 27.05 Q-47.3 25.5 -45.85 25.5 L-45.55 25.5 -44.5 23.6 Q-43.85 23.3 -43.5 24.0 M-43.8 26.65 L-45.45 26.65 Q-46.1 26.65 -46.1 27.3 L-46.1 27.95 -43.15 27.95 -43.15 27.3 Q-43.0 26.65 -43.8 26.65 M-43.15 29.15 L-46.1 29.15 -46.1 30.45 -43.15 30.45 -43.15 29.15 M-49.25 26.95 L-51.65 24.8 Q-51.95 23.8 -50.9 23.8 -49.6 24.7 -48.45 26.0 -48.15 26.95 -49.25 26.95 M-47.05 36.35 Q-48.5 38.35 -49.5 38.9 -50.6 39.2 -50.6 38.05 L-50.6 30.3 Q-50.45 29.7 -51.25 29.7 L-52.55 29.7 Q-53.2 29.1 -52.55 28.5 L-50.95 28.5 Q-49.25 28.5 -49.4 30.05 L-49.4 37.35 Q-49.4 38.0 -48.05 35.55 -46.95 35.25 -47.05 36.35 M-46.1 33.2 L-43.15 32.95 -43.15 31.6 -46.1 31.6 -46.1 33.2 M-9.4 52.6 Q-9.4 53.5 -8.95 54.0 -8.5 54.5 -7.85 54.5 -7.2 54.5 -6.75 54.0 -6.35 53.5 -6.35 52.6 -6.35 51.65 -6.75 51.15 -7.2 50.7 -7.85 50.7 -8.5 50.7 -8.95 51.15 -9.4 51.65 -9.4 52.6 M-9.5 55.45 L-10.65 54.3 Q-11.05 53.55 -11.05 52.5 -11.05 51.7 -10.65 50.9 -10.25 50.15 -9.5 49.75 L-7.85 49.35 Q-6.45 49.35 -5.55 50.25 -4.65 51.15 -4.65 52.55 -4.65 54.0 -5.55 54.9 -6.45 55.85 -7.85 55.85 L-9.5 55.45 M-13.9 51.3 L-15.55 51.6 Q-15.6 51.1 -15.9 50.9 -16.2 50.65 -16.65 50.65 -17.3 50.65 -17.65 51.05 -18.0 51.5 -18.0 52.5 -18.0 53.6 -17.65 54.05 -17.25 54.5 -16.65 54.5 L-15.85 54.25 -15.45 53.3 -13.85 53.6 Q-14.1 54.7 -14.8 55.25 -15.5 55.85 -16.7 55.85 -18.1 55.85 -18.9 55.0 -19.7 54.1 -19.7 52.6 -19.7 51.05 -18.9 50.2 -18.05 49.35 -16.7 49.35 -15.55 49.35 -14.85 49.85 -14.2 50.3 -13.9 51.3 M-22.25 49.5 L-24.85 56.55 -25.25 57.4 -25.7 57.85 -26.35 58.15 -27.2 58.25 -28.1 58.15 -28.25 56.85 -27.55 56.9 -26.7 56.6 -26.3 55.7 -28.65 49.5 -26.9 49.5 -25.45 53.9 -23.95 49.5 -22.25 49.5" fill="#fabd05" fill-rule="evenodd" stroke="none"/>
    <path d="M-87.6 -5.2 L-85.55 -4.85 -84.25 -3.9 Q-83.75 -3.25 -83.55 -2.4 -83.3 -1.55 -83.3 -0.6 -83.3 0.9 -83.65 1.75 L-84.6 3.1 Q-85.2 3.65 -85.85 3.85 L-87.6 4.1 -91.85 4.1 -91.85 -5.2 -87.6 -5.2 M-86.65 -2.55 Q-87.15 -3.1 -88.25 -3.1 L-89.0 -3.1 -89.0 2.0 -88.3 2.0 -87.0 1.8 -86.4 1.1 -86.2 -0.55 Q-86.2 -2.0 -86.65 -2.55 M-76.8 -5.2 L-76.8 4.1 -79.7 4.1 -79.7 -5.2 -76.8 -5.2 M-65.9 -5.0 L-64.75 -4.15 Q-64.3 -3.5 -64.3 -2.6 -64.3 -1.85 -64.65 -1.3 -64.95 -0.7 -65.55 -0.4 -65.9 -0.15 -66.55 0.0 L-65.8 0.35 -65.35 0.8 -64.95 1.4 -63.55 4.1 -66.8 4.1 -68.35 1.25 -68.85 0.55 Q-69.15 0.3 -69.55 0.3 L-69.8 0.3 -69.8 4.1 -72.7 4.1 -72.7 -5.2 -67.9 -5.2 -65.9 -5.0 M-69.8 -3.35 L-69.8 -1.45 -68.6 -1.45 -67.85 -1.55 -67.4 -1.85 -67.2 -2.4 Q-67.2 -2.85 -67.5 -3.1 L-68.55 -3.35 -69.8 -3.35 M-52.95 -5.2 L-52.95 -3.2 -57.75 -3.2 -57.75 -1.75 -53.3 -1.75 -53.3 0.15 -57.75 0.15 -57.75 2.0 -52.8 2.0 -52.8 4.1 -60.65 4.1 -60.65 -5.2 -52.95 -5.2 M-46.7 -0.6 Q-46.7 0.95 -46.25 1.55 -45.75 2.1 -44.9 2.1 -44.1 2.1 -43.65 1.65 L-43.05 0.3 -40.55 1.05 Q-40.8 2.1 -41.35 2.8 -41.9 3.55 -42.7 3.9 L-44.75 4.25 -47.2 3.8 Q-48.2 3.4 -48.9 2.25 -49.6 1.15 -49.6 -0.55 -49.6 -2.9 -48.35 -4.15 -47.15 -5.35 -44.9 -5.35 -43.1 -5.35 -42.1 -4.65 -41.1 -3.95 -40.6 -2.45 L-43.15 -1.9 -43.45 -2.55 -44.05 -3.05 -44.8 -3.2 Q-45.8 -3.2 -46.3 -2.45 -46.7 -1.85 -46.7 -0.6 M-37.8 -2.9 L-37.8 -5.2 -29.05 -5.2 -29.05 -2.9 -32.0 -2.9 -32.0 4.1 -34.85 4.1 -34.85 -2.9 -37.8 -2.9 M-25.3 -4.1 Q-24.0 -5.35 -21.75 -5.35 -19.45 -5.35 -18.15 -4.1 -16.9 -2.85 -16.9 -0.6 -16.9 1.0 -17.45 2.05 -18.0 3.1 -19.05 3.7 -20.1 4.25 -21.65 4.25 -23.2 4.25 -24.25 3.75 -25.3 3.25 -25.9 2.15 -26.55 1.1 -26.55 -0.55 -26.55 -2.85 -25.3 -4.1 M-21.75 -3.2 Q-22.65 -3.2 -23.15 -2.55 -23.7 -1.95 -23.7 -0.55 -23.7 0.9 -23.15 1.5 -22.65 2.1 -21.75 2.1 -20.8 2.1 -20.3 1.5 -19.8 0.9 -19.8 -0.65 -19.8 -1.95 -20.3 -2.6 -20.85 -3.2 -21.75 -3.2 M-10.4 -1.45 L-9.2 -1.45 -8.45 -1.55 -8.0 -1.85 -7.8 -2.4 Q-7.8 -2.85 -8.1 -3.1 L-9.15 -3.35 -10.4 -3.35 -10.4 -1.45 M-6.5 -5.0 Q-5.8 -4.75 -5.35 -4.15 -4.9 -3.5 -4.9 -2.6 -4.9 -1.85 -5.25 -1.3 -5.55 -0.7 -6.15 -0.4 -6.5 -0.15 -7.15 0.0 -6.65 0.15 -6.4 0.35 L-5.95 0.8 -5.55 1.4 -4.15 4.1 -7.4 4.1 -8.95 1.25 -9.45 0.55 Q-9.75 0.3 -10.15 0.3 L-10.4 0.3 -10.4 4.1 -13.3 4.1 -13.3 -5.2 -8.5 -5.2 -6.5 -5.0" fill="#e7f902" fill-rule="evenodd" stroke="none"/>
    <path d="M-53.75 -32.75 Q-54.05 -33.5 -55.5 -34.15 -56.95 -34.8 -58.55 -34.7 L-58.85 -34.6 -58.75 -34.35 Q-58.05 -34.05 -57.4 -33.05 L-56.45 -31.2 Q-56.2 -30.5 -55.6 -30.3 L-54.45 -30.45 Q-53.9 -30.75 -53.65 -31.35 -53.45 -31.95 -53.75 -32.75 M-60.35 -31.4 L-60.45 -31.15 -60.45 -23.7 Q-60.45 -22.95 -60.15 -22.7 L-58.75 -22.55 -57.25 -22.8 Q-57.0 -23.0 -57.0 -23.7 L-48.05 -23.7 -48.05 -23.4 -47.8 -22.75 -46.2 -22.6 Q-45.05 -22.6 -44.75 -22.9 L-44.55 -23.35 -44.55 -28.1 Q-44.55 -28.6 -44.2 -28.75 -43.2 -29.2 -44.2 -29.8 L-46.4 -31.1 -46.8 -31.25 -47.1 -31.1 -48.15 -30.05 -49.9 -30.05 -46.6 -32.85 -45.95 -32.95 Q-45.65 -33.0 -45.5 -33.2 -45.35 -33.45 -45.55 -33.7 L-49.3 -34.7 -49.65 -34.4 Q-50.05 -32.8 -51.5 -30.05 L-56.9 -30.05 -60.15 -31.35 -60.35 -31.4 M-48.05 -29.45 L-48.05 -24.3 -57.0 -24.3 -57.0 -29.45 -48.05 -29.45 M-61.5 -14.7 Q-60.7 -14.6 -59.95 -15.05 -59.15 -15.55 -58.85 -16.55 -58.2 -18.55 -59.25 -21.15 -59.35 -21.4 -59.5 -21.3 L-59.65 -21.1 Q-59.85 -19.35 -61.8 -17.9 -63.55 -16.8 -62.6 -15.3 -62.3 -14.8 -61.5 -14.7 M-49.45 -21.3 Q-49.9 -22.05 -51.15 -22.65 -52.35 -23.15 -53.7 -23.25 L-53.9 -23.1 -53.85 -22.95 Q-53.05 -22.35 -52.8 -21.7 L-52.2 -19.75 -51.6 -18.6 Q-51.15 -18.15 -50.45 -18.25 -49.9 -18.35 -49.4 -18.9 -49.05 -19.35 -49.05 -20.05 -49.05 -20.8 -49.45 -21.3 M-46.35 -21.3 L-46.3 -21.1 Q-45.25 -19.95 -45.0 -17.95 -44.9 -16.1 -44.55 -15.65 -44.15 -15.15 -43.4 -15.05 -42.75 -15.05 -42.15 -15.55 -41.7 -15.9 -41.55 -16.7 -41.45 -17.45 -41.75 -18.05 -42.1 -19.05 -43.35 -20.05 -44.55 -20.95 -46.1 -21.4 L-46.35 -21.3 M-47.3 -20.35 L-47.55 -20.15 Q-48.2 -17.6 -48.7 -17.3 L-50.5 -16.95 -52.5 -16.95 -54.2 -17.1 -54.45 -17.7 -54.45 -20.6 -54.25 -20.9 Q-53.35 -21.2 -53.75 -21.8 L-54.6 -22.05 -57.45 -22.25 -57.8 -22.15 -57.95 -21.75 -57.95 -15.45 -57.65 -14.35 Q-57.0 -13.55 -54.05 -13.75 L-50.35 -13.75 Q-47.55 -13.7 -46.5 -14.8 -45.95 -15.25 -45.8 -16.05 -45.65 -16.75 -45.8 -17.25 -45.9 -17.6 -46.55 -17.95 L-46.95 -18.45 Q-47.15 -18.8 -47.15 -20.1 -47.15 -20.35 -47.3 -20.35 M-10.3 -33.25 Q-10.0 -33.4 -10.0 -33.75 -10.0 -34.1 -10.85 -34.15 L-14.2 -34.45 -14.6 -34.4 -14.7 -34.0 Q-14.75 -30.45 -16.45 -26.55 L-16.45 -32.65 -16.2 -33.25 Q-15.6 -33.7 -16.1 -34.1 L-16.75 -34.3 -19.6 -34.55 -19.85 -34.45 -19.95 -34.15 -19.95 -23.9 Q-19.95 -23.1 -19.6 -22.9 L-18.2 -22.75 -16.8 -22.95 Q-16.5 -23.1 -16.45 -23.9 L-16.45 -24.75 Q-13.65 -27.05 -11.95 -30.2 L-5.75 -30.2 -5.65 -30.25 -5.55 -30.5 -8.05 -32.55 -8.45 -32.75 -10.1 -30.8 -11.65 -30.8 -10.95 -32.4 -10.3 -33.25 M-12.45 -28.55 L-12.35 -28.35 Q-11.25 -27.55 -10.65 -25.55 -10.65 -24.85 -9.9 -24.2 -9.4 -23.75 -8.65 -23.95 -8.05 -24.05 -7.55 -24.7 -7.2 -25.15 -7.25 -25.95 -7.35 -26.7 -7.8 -27.25 -8.3 -27.95 -9.6 -28.35 L-12.2 -28.7 -12.45 -28.55 M-24.05 -33.4 L-24.35 -33.35 -24.4 -33.05 -24.4 -24.75 Q-24.4 -24.0 -24.05 -23.75 L-22.65 -23.6 -21.25 -23.8 Q-21.0 -23.95 -20.95 -24.75 L-20.95 -31.55 -20.65 -32.1 Q-20.1 -32.55 -20.55 -33.0 L-21.2 -33.2 -24.05 -33.4 M-23.15 -22.65 L-23.55 -22.65 -23.65 -22.2 -23.65 -14.75 -25.05 -14.75 -25.35 -14.45 -25.05 -14.15 -5.2 -14.15 -5.1 -14.25 Q-5.05 -14.55 -5.9 -15.9 L-6.25 -16.45 -6.5 -16.55 -7.55 -15.05 -7.55 -20.1 -7.05 -20.65 Q-6.5 -20.95 -6.5 -21.3 L-6.85 -21.85 -9.55 -23.55 -9.7 -23.65 -9.9 -23.55 -11.25 -21.95 -20.3 -21.95 -23.15 -22.65 M-11.0 -21.35 L-11.0 -14.75 -11.85 -14.75 -11.85 -21.35 -11.0 -21.35 M-19.25 -21.35 L-19.25 -14.75 -20.15 -14.75 -20.15 -21.35 -19.25 -21.35 M-15.1 -14.75 L-15.95 -14.75 -15.95 -21.35 -15.1 -21.35 -15.1 -14.75" fill="none" stroke="#000000" stroke-linecap="round" stroke-linejoin="round" stroke-width="3.5"/>
    <path d="M-15.1 -21.35 L-15.95 -21.35 -15.95 -14.75 -15.1 -14.75 -15.1 -21.35 M-19.25 -21.35 L-20.15 -21.35 -20.15 -14.75 -19.25 -14.75 -19.25 -21.35 M-11.0 -21.35 L-11.85 -21.35 -11.85 -14.75 -11.0 -14.75 -11.0 -21.35 M-23.65 -22.2 L-23.55 -22.65 -23.15 -22.65 -20.3 -21.95 -11.25 -21.95 -9.9 -23.55 -9.7 -23.65 -9.55 -23.55 -6.85 -21.85 -6.5 -21.3 Q-6.5 -20.95 -7.05 -20.65 L-7.55 -20.1 -7.55 -15.05 -6.5 -16.55 -6.25 -16.45 -5.9 -15.9 Q-5.05 -14.55 -5.1 -14.25 L-5.2 -14.15 -25.05 -14.15 -25.35 -14.45 -25.05 -14.75 -23.65 -14.75 -23.65 -22.2 M-24.05 -33.4 L-21.2 -33.2 -20.55 -33.0 Q-20.1 -32.55 -20.65 -32.1 L-20.95 -31.55 -20.95 -24.75 Q-21.0 -23.95 -21.25 -23.8 L-22.65 -23.6 -24.05 -23.75 Q-24.4 -24.0 -24.4 -24.75 L-24.4 -33.05 -24.35 -33.35 -24.05 -33.4 M-10.65 -25.55 Q-11.25 -27.55 -12.35 -28.35 L-12.45 -28.55 -12.2 -28.7 -9.6 -28.35 Q-8.3 -27.95 -7.8 -27.25 -7.35 -26.7 -7.25 -25.95 -7.2 -25.15 -7.55 -24.7 -8.05 -24.05 -8.65 -23.95 -9.4 -23.75 -9.9 -24.2 -10.65 -24.85 -10.65 -25.55 M-10.3 -33.25 L-10.95 -32.4 -11.65 -30.8 -10.1 -30.8 -8.45 -32.75 -8.05 -32.55 -5.55 -30.5 -5.65 -30.25 -5.75 -30.2 -11.95 -30.2 Q-13.65 -27.05 -16.45 -24.75 L-16.45 -23.9 Q-16.5 -23.1 -16.8 -22.95 L-18.2 -22.75 -19.6 -22.9 Q-19.95 -23.1 -19.95 -23.9 L-19.95 -34.15 -19.85 -34.45 -19.6 -34.55 -16.75 -34.3 -16.1 -34.1 Q-15.6 -33.7 -16.2 -33.25 L-16.45 -32.65 -16.45 -26.55 Q-14.75 -30.45 -14.7 -34.0 L-14.6 -34.4 -14.2 -34.45 -10.85 -34.15 Q-10.0 -34.1 -10.0 -33.75 -10.0 -33.4 -10.3 -33.25 M-46.3 -21.1 L-46.35 -21.3 -46.1 -21.4 Q-44.55 -20.95 -43.35 -20.05 -42.1 -19.05 -41.75 -18.05 -41.45 -17.45 -41.55 -16.7 -41.7 -15.9 -42.15 -15.55 -42.75 -15.05 -43.4 -15.05 -44.15 -15.15 -44.55 -15.65 -44.9 -16.1 -45.0 -17.95 -45.25 -19.95 -46.3 -21.1 M-47.3 -20.35 Q-47.15 -20.35 -47.15 -20.1 -47.15 -18.8 -46.95 -18.45 L-46.55 -17.95 Q-45.9 -17.6 -45.8 -17.25 -45.65 -16.75 -45.8 -16.05 -45.95 -15.25 -46.5 -14.8 -47.55 -13.7 -50.35 -13.75 L-54.05 -13.75 Q-57.0 -13.55 -57.65 -14.35 L-57.95 -15.45 -57.95 -21.75 -57.8 -22.15 -57.45 -22.25 -54.6 -22.05 -53.75 -21.8 Q-53.35 -21.2 -54.25 -20.9 L-54.45 -20.6 -54.45 -17.7 -54.2 -17.1 -52.5 -16.95 -50.5 -16.95 -48.7 -17.3 Q-48.2 -17.6 -47.55 -20.15 L-47.3 -20.35 M-49.05 -20.05 Q-49.05 -19.35 -49.4 -18.9 -49.9 -18.35 -50.45 -18.25 -51.15 -18.15 -51.6 -18.6 L-52.2 -19.75 -52.8 -21.7 Q-53.05 -22.35 -53.85 -22.95 L-53.9 -23.1 -53.7 -23.25 Q-52.35 -23.15 -51.15 -22.65 -49.9 -22.05 -49.45 -21.3 -49.05 -20.8 -49.05 -20.05 M-62.6 -15.3 Q-63.55 -16.8 -61.8 -17.9 -59.85 -19.35 -59.65 -21.1 L-59.5 -21.3 Q-59.35 -21.4 -59.25 -21.15 -58.2 -18.55 -58.85 -16.55 -59.15 -15.55 -59.95 -15.05 -60.7 -14.6 -61.5 -14.7 -62.3 -14.8 -62.6 -15.3 M-48.05 -29.45 L-57.0 -29.45 -57.0 -24.3 -48.05 -24.3 -48.05 -29.45 M-60.45 -31.15 L-60.35 -31.4 -60.15 -31.35 -56.9 -30.05 -51.5 -30.05 Q-50.05 -32.8 -49.65 -34.4 L-49.3 -34.7 -45.55 -33.7 Q-45.35 -33.45 -45.5 -33.2 -45.65 -33.0 -45.95 -32.95 L-46.6 -32.85 -49.9 -30.05 -48.15 -30.05 -47.1 -31.1 -46.8 -31.25 -46.4 -31.1 -44.2 -29.8 Q-43.2 -29.2 -44.2 -28.75 -44.55 -28.6 -44.55 -28.1 L-44.55 -23.35 -44.75 -22.9 Q-45.05 -22.6 -46.2 -22.6 L-47.8 -22.75 -48.05 -23.4 -48.05 -23.7 -57.0 -23.7 Q-57.0 -23.0 -57.25 -22.8 L-58.75 -22.55 -60.15 -22.7 Q-60.45 -22.95 -60.45 -23.7 L-60.45 -31.15 M-55.5 -34.15 Q-54.05 -33.5 -53.75 -32.75 -53.45 -31.95 -53.65 -31.35 -53.9 -30.75 -54.45 -30.45 L-55.6 -30.3 Q-56.2 -30.5 -56.45 -31.2 L-57.4 -33.05 Q-58.05 -34.05 -58.75 -34.35 L-58.85 -34.6 -58.55 -34.7 Q-56.95 -34.8 -55.5 -34.15" fill="#e7f902" fill-rule="evenodd" stroke="none"/>
  </g>
</svg>
