<?xml version="1.0" encoding="UTF-8" standalone="no"?>
<svg xmlns:xlink="http://www.w3.org/1999/xlink" height="92.6px" width="76.85px" xmlns="http://www.w3.org/2000/svg">
  <g transform="matrix(1.0, 0.0, 0.0, 1.0, 34.25, 41.75)">
    <path d="M23.45 20.4 L20.3 20.4 20.3 21.15 22.9 21.15 Q23.6 21.75 22.9 22.35 L20.3 22.35 20.3 23.1 23.75 23.1 Q24.4 23.7 23.75 24.3 L20.3 24.3 20.3 25.05 21.5 25.05 Q23.45 25.05 23.3 26.7 L23.3 28.4 Q23.45 30.2 21.6 30.05 L9.85 30.05 Q9.05 29.5 9.85 28.9 L21.5 28.9 Q22.25 29.05 22.15 28.25 L22.15 28.15 10.1 28.15 Q9.3 27.55 10.1 26.95 L22.15 26.95 22.15 26.7 Q22.25 26.2 21.5 26.2 L9.85 26.2 Q9.05 25.8 9.85 25.05 L11.65 25.05 11.65 24.3 8.45 24.3 Q7.8 23.7 8.45 23.1 L11.65 23.1 11.65 22.35 9.0 22.35 Q8.35 21.75 9.0 21.15 L11.65 21.15 11.65 20.4 8.45 20.4 Q7.8 20.0 8.45 19.25 L11.65 19.25 11.65 18.55 Q12.25 17.7 12.85 18.55 L12.85 19.25 15.5 19.25 Q16.15 19.85 15.5 20.4 L12.85 20.4 12.85 21.15 15.2 21.15 Q15.85 21.75 15.2 22.35 L12.85 22.35 12.85 23.1 15.35 23.1 Q16.0 23.7 15.35 24.3 L12.85 24.3 12.85 25.05 19.1 25.05 19.1 24.3 16.2 24.3 Q15.5 23.7 16.2 23.1 L19.1 23.1 19.1 22.35 16.85 22.35 Q16.2 21.75 16.85 21.15 L19.1 21.15 19.1 20.4 16.2 20.4 Q15.5 19.85 16.2 19.25 L19.1 19.25 19.1 18.7 Q19.7 17.85 20.3 18.7 L20.3 19.25 23.5 19.25 Q24.15 20.0 23.45 20.4 M1.1 22.9 L-8.85 22.9 -8.85 23.8 Q-8.85 24.6 -8.25 24.5 L0.45 24.5 Q1.25 24.6 1.1 23.85 L1.1 22.9 M1.1 20.6 Q1.25 20.0 0.45 20.0 L-8.2 20.0 Q-8.85 20.0 -8.85 20.65 L-8.85 21.7 1.1 21.7 1.1 20.6 M2.3 20.35 L2.3 24.1 Q2.45 25.8 0.7 25.65 L-3.2 25.65 -3.2 26.95 2.75 26.95 Q3.4 27.55 2.75 28.15 L-3.2 28.15 -3.2 30.25 2.3 30.25 Q3.0 30.85 2.3 31.45 L-3.2 31.45 -3.2 33.6 3.85 33.6 Q4.5 34.15 3.85 34.75 L-11.2 34.75 Q-11.85 34.15 -11.2 33.6 L-4.4 33.6 -4.4 31.45 -9.55 31.45 Q-10.2 30.85 -9.5 30.25 L-4.4 30.25 -4.4 28.15 -8.55 28.15 Q-9.6 29.45 -10.6 30.2 -11.55 30.35 -11.4 29.25 -9.75 28.0 -8.5 25.9 -7.5 25.7 -7.5 26.5 L-7.9 26.95 -4.4 26.95 -4.4 25.65 -8.5 25.65 Q-10.05 25.8 -10.05 24.1 L-10.05 20.4 Q-10.05 18.8 -8.5 18.8 L0.75 18.8 Q2.45 18.8 2.3 20.35 M16.35 30.2 L17.8 32.9 Q17.6 33.8 16.65 33.5 L15.25 30.9 Q15.25 29.7 16.35 30.2 M12.5 30.95 Q13.05 30.0 13.65 30.95 L13.65 32.95 Q13.65 33.7 14.3 33.6 L18.75 33.6 Q19.5 33.7 19.35 31.8 19.95 30.95 20.55 31.8 20.7 34.9 18.85 34.75 L14.05 34.75 Q12.5 34.9 12.5 33.2 L12.5 30.95 M11.45 31.0 Q10.35 33.3 9.3 34.45 8.2 34.75 8.35 33.7 L10.3 30.6 Q11.25 30.0 11.45 31.0 M2.8 42.1 L2.8 50.7 1.15 50.7 1.15 42.1 2.8 42.1 M20.75 30.95 Q20.6 29.85 21.75 30.15 23.45 32.3 24.0 33.55 24.15 34.6 23.0 34.3 L20.75 30.95 M-17.35 22.5 L-23.55 22.5 -23.55 25.7 -16.8 25.7 Q-15.8 26.3 -16.8 26.9 L-23.25 26.9 Q-20.85 32.1 -16.15 33.6 -15.7 34.75 -16.6 34.75 -21.65 33.05 -23.95 27.6 -24.95 32.5 -31.3 34.75 -32.3 34.55 -31.7 33.6 -25.8 31.55 -24.85 26.9 L-31.5 26.9 Q-32.3 26.3 -31.5 25.7 L-24.75 25.7 -24.75 22.5 -30.8 22.5 Q-31.6 22.1 -30.8 21.3 L-27.05 21.3 -28.3 19.3 Q-28.15 18.3 -27.15 18.75 L-25.8 21.3 -21.9 21.3 -20.25 18.7 Q-19.15 18.3 -19.15 19.3 L-20.5 21.3 -17.35 21.3 Q-16.5 21.9 -17.35 22.5 M-30.4 49.25 L-29.1 49.25 -28.05 49.15 Q-27.65 49.05 -27.35 48.8 L-26.9 48.0 -26.7 46.4 -26.9 44.9 Q-27.1 44.35 -27.4 44.05 -27.7 43.75 -28.2 43.65 L-29.6 43.55 -30.4 43.55 -30.4 49.25 M-27.35 42.25 Q-26.55 42.5 -26.05 43.05 L-25.2 44.45 Q-24.95 45.3 -24.95 46.5 -24.95 47.55 -25.2 48.3 -25.5 49.25 -26.1 49.85 -26.55 50.25 -27.35 50.5 L-28.85 50.7 -32.15 50.7 -32.15 42.1 -28.95 42.1 -27.35 42.25 M-21.15 45.2 Q-20.35 44.35 -19.1 44.35 -17.75 44.35 -16.9 45.25 -16.1 46.15 -16.15 48.05 L-20.3 48.05 -19.9 49.2 Q-19.5 49.6 -18.95 49.6 -18.55 49.6 -18.3 49.4 L-17.9 48.7 -16.25 49.0 Q-16.55 49.9 -17.25 50.35 -17.95 50.85 -18.95 50.85 -20.55 50.85 -21.35 49.8 -21.95 48.95 -21.95 47.65 -21.95 46.1 -21.15 45.2 M-19.9 46.0 Q-20.25 46.4 -20.25 47.05 L-17.8 47.05 Q-17.8 46.35 -18.15 45.95 -18.5 45.6 -19.0 45.6 -19.55 45.6 -19.9 46.0 M-10.4 48.7 L-10.25 48.2 -10.05 47.65 -8.85 44.5 -7.15 44.5 -9.65 50.7 -11.15 50.7 -13.65 44.5 -11.9 44.5 -10.4 48.7 M-4.2 42.1 L-2.55 42.1 -2.55 43.65 -4.2 43.65 -4.2 42.1 M-2.55 44.5 L-2.55 50.7 -4.2 50.7 -4.2 44.5 -2.55 44.5" fill="#fabd05" fill-rule="evenodd" stroke="none"/>
    <path d="M2.1 -10.2 L4.8 -10.2 8.3 -5.05 8.3 -10.2 11.0 -10.2 11.0 -0.9 8.3 -0.9 4.85 -6.0 4.85 -0.9 2.1 -0.9 2.1 -10.2 M28.95 -6.45 Q28.6 -6.1 27.95 -5.85 L29.45 -5.0 Q29.9 -4.45 29.9 -3.55 29.9 -2.8 29.55 -2.25 L28.65 -1.35 27.55 -1.05 26.25 -0.9 21.3 -0.9 21.3 -10.2 26.7 -10.2 Q28.05 -10.2 28.75 -9.55 29.5 -8.85 29.5 -7.9 29.5 -7.05 28.95 -6.45 M26.4 -6.8 L26.65 -7.45 26.4 -8.1 25.5 -8.3 24.2 -8.3 24.2 -6.55 25.45 -6.55 26.4 -6.8 M24.2 -2.9 L25.7 -2.9 Q26.4 -2.9 26.7 -3.15 27.05 -3.45 27.05 -3.85 L26.75 -4.55 25.65 -4.8 24.2 -4.8 24.2 -2.9 M35.65 -10.2 L37.55 -7.05 39.4 -10.2 42.6 -10.2 38.95 -4.8 38.95 -0.9 36.1 -0.9 36.1 -4.8 32.45 -10.2 35.65 -10.2 M-32.05 -10.2 L-27.3 -10.2 Q-25.7 -10.2 -24.95 -9.45 -24.15 -8.7 -24.15 -7.35 -24.15 -5.95 -25.0 -5.15 -25.85 -4.35 -27.6 -4.35 L-29.15 -4.35 -29.15 -0.9 -32.05 -0.9 -32.05 -10.2 M-27.3 -6.5 Q-26.95 -6.8 -26.95 -7.25 -26.95 -7.7 -27.25 -8.0 -27.55 -8.3 -28.35 -8.3 L-29.15 -8.3 -29.15 -6.25 -28.45 -6.25 -27.3 -6.5 M-20.65 -10.2 L-17.75 -10.2 -17.75 -3.2 -13.3 -3.2 -13.3 -0.9 -20.65 -0.9 -20.65 -10.2 M-8.0 -0.9 L-10.95 -0.9 -7.45 -10.2 -4.3 -10.2 -0.8 -0.9 -3.8 -0.9 -4.3 -2.45 -7.55 -2.45 -8.0 -0.9 M-5.9 -7.8 L-6.9 -4.45 -4.9 -4.45 -5.9 -7.8" fill="#e7f902" fill-rule="evenodd" stroke="none"/>
    <path d="M-18.2 -30.3 L-20.15 -30.3 -20.15 -27.2 Q-19.6 -26.4 -18.65 -25.65 -18.8 -26.35 -19.65 -27.1 L-19.85 -27.35 -19.55 -27.45 -18.35 -27.65 -18.2 -27.95 -18.2 -30.3 M-19.9 -33.75 L-20.15 -33.2 -20.15 -33.15 -16.5 -33.15 -16.15 -33.45 Q-17.2 -33.55 -17.4 -34.75 -17.7 -36.1 -18.15 -36.75 L-20.45 -34.85 -19.8 -34.65 Q-19.3 -34.2 -19.9 -33.75 M-17.15 -39.05 Q-16.4 -38.9 -16.45 -38.55 -16.5 -38.25 -16.8 -38.15 -17.25 -38.0 -17.65 -37.35 L-16.15 -37.35 -14.65 -39.15 -14.25 -39.0 -11.95 -37.05 -12.05 -36.8 -12.1 -36.75 -16.0 -36.75 -15.0 -36.1 Q-14.45 -35.35 -14.75 -34.5 L-11.9 -33.1 -11.7 -32.85 -11.75 -32.6 -11.9 -32.55 -20.15 -32.55 -20.15 -30.9 -18.3 -30.9 -17.1 -32.25 -16.85 -32.45 -16.4 -32.25 -14.2 -30.8 -13.8 -30.3 Q-13.8 -29.85 -14.35 -29.7 L-14.7 -29.25 -14.7 -26.6 Q-14.75 -25.5 -15.35 -24.95 -15.8 -24.65 -16.55 -24.5 -14.75 -23.65 -12.2 -23.4 L-11.8 -23.15 Q-11.8 -22.95 -12.1 -22.85 -13.15 -22.4 -13.7 -20.05 L-13.9 -19.75 -14.6 -19.85 Q-18.5 -21.25 -20.15 -24.15 L-20.15 -19.95 Q-20.2 -19.15 -20.5 -19.0 L-21.9 -18.8 -23.3 -18.95 Q-23.65 -19.2 -23.65 -19.95 L-23.65 -23.95 Q-27.1 -20.8 -31.95 -19.8 L-32.3 -19.9 -32.1 -20.15 Q-30.75 -20.85 -29.65 -21.6 -26.7 -23.8 -23.65 -28.45 L-23.65 -30.3 -26.1 -30.3 -26.1 -25.7 Q-26.1 -25.3 -26.25 -25.15 L-26.6 -24.9 -27.8 -24.8 -29.1 -24.9 Q-29.45 -25.25 -29.4 -25.7 L-29.4 -31.5 -29.3 -31.7 -29.0 -31.75 -26.35 -30.9 -23.65 -30.9 -23.65 -32.55 -31.8 -32.55 Q-32.05 -32.55 -32.05 -32.85 L-31.8 -33.15 -23.65 -33.15 -23.65 -34.65 -23.55 -34.95 -23.3 -35.05 -22.15 -34.95 -21.4 -36.65 -25.85 -36.65 Q-25.05 -36.4 -24.65 -35.85 -24.35 -35.4 -24.35 -34.8 -24.4 -34.15 -24.75 -33.8 -25.15 -33.3 -25.65 -33.3 -26.9 -33.25 -27.1 -34.7 -27.25 -36.0 -27.7 -36.55 -29.45 -34.6 -32.15 -33.5 L-32.5 -33.45 -32.35 -33.75 Q-31.25 -35.25 -30.7 -36.95 -30.2 -38.5 -30.15 -39.55 L-30.0 -39.95 -29.65 -39.95 -26.55 -39.15 Q-25.8 -38.95 -25.8 -38.65 -25.85 -38.35 -26.2 -38.25 L-27.15 -37.25 -24.9 -37.25 -23.4 -39.05 Q-23.2 -39.05 -21.15 -37.45 -20.8 -38.65 -20.8 -39.5 L-20.65 -39.85 -20.25 -39.85 -17.15 -39.05 M12.7 -38.75 Q13.65 -38.55 14.1 -38.05 14.55 -37.6 14.55 -37.0 14.6 -36.2 14.15 -35.75 L16.65 -34.3 16.55 -34.1 16.3 -33.9 16.1 -33.9 10.1 -32.8 Q10.55 -29.7 11.4 -27.7 12.55 -30.35 12.8 -32.6 L12.85 -32.9 13.1 -32.85 16.2 -31.6 16.55 -31.15 16.15 -30.75 Q15.75 -30.65 15.7 -30.4 14.15 -25.95 13.05 -24.85 L14.25 -23.9 Q14.7 -23.9 16.2 -26.95 16.35 -27.2 16.5 -27.1 L16.6 -26.8 Q16.15 -23.25 16.6 -22.35 L17.0 -21.15 Q17.05 -20.2 16.45 -19.65 15.8 -19.0 14.95 -19.0 L14.9 -19.0 Q12.65 -19.2 10.5 -21.95 7.95 -20.15 5.0 -19.35 L4.65 -19.4 4.8 -19.65 Q7.2 -20.9 9.3 -23.7 L9.2 -23.8 Q7.35 -27.4 6.65 -32.15 L5.0 -31.85 Q4.6 -31.85 4.6 -32.15 L4.9 -32.5 6.55 -32.75 Q6.1 -35.95 6.1 -39.3 L6.15 -39.6 6.5 -39.65 9.5 -39.4 Q10.35 -39.35 10.35 -39.05 10.4 -38.7 9.9 -38.45 9.6 -38.3 9.6 -37.95 9.65 -35.7 10.0 -33.4 L12.65 -33.85 13.3 -35.25 Q12.8 -35.2 12.3 -35.55 11.95 -35.85 11.75 -36.55 11.45 -37.95 10.7 -38.5 L10.6 -38.7 10.8 -38.8 12.7 -38.75 M24.45 -39.4 Q25.5 -39.35 25.5 -38.8 25.5 -38.4 25.0 -38.25 24.45 -38.05 24.5 -37.65 L24.5 -21.7 Q24.45 -20.55 23.8 -19.85 23.1 -19.15 20.55 -19.05 20.2 -19.05 20.2 -19.4 20.1 -21.45 17.75 -22.6 17.55 -22.65 17.55 -22.85 L17.85 -22.95 20.95 -23.1 Q21.15 -23.3 21.15 -23.65 L21.15 -39.2 21.2 -39.5 Q21.25 -39.65 21.55 -39.65 L24.45 -39.4 M20.6 -38.55 Q21.05 -38.15 20.5 -37.7 20.2 -37.5 20.25 -37.15 L20.25 -25.35 Q20.2 -24.6 19.95 -24.5 L18.6 -24.3 17.3 -24.45 Q17.0 -24.65 17.0 -25.35 L17.0 -38.55 Q16.95 -38.75 17.05 -38.85 L17.3 -38.9 20.0 -38.75 20.6 -38.55" fill="#000000" fill-rule="evenodd" stroke="none"/>
    <path d="M20.6 -38.55 L20.0 -38.75 17.3 -38.9 17.05 -38.85 Q16.95 -38.75 17.0 -38.55 L17.0 -25.35 Q17.0 -24.65 17.3 -24.45 L18.6 -24.3 19.95 -24.5 Q20.2 -24.6 20.25 -25.35 L20.25 -37.15 Q20.2 -37.5 20.5 -37.7 21.05 -38.15 20.6 -38.55 M24.45 -39.4 L21.55 -39.65 Q21.25 -39.65 21.2 -39.5 L21.15 -39.2 21.15 -23.65 Q21.15 -23.3 20.95 -23.1 L17.85 -22.95 17.55 -22.85 Q17.55 -22.65 17.75 -22.6 20.1 -21.45 20.2 -19.4 20.2 -19.05 20.55 -19.05 23.1 -19.15 23.8 -19.85 24.45 -20.55 24.5 -21.7 L24.5 -37.65 Q24.45 -38.05 25.0 -38.25 25.5 -38.4 25.5 -38.8 25.5 -39.35 24.45 -39.4 M12.7 -38.75 L10.8 -38.8 10.6 -38.7 10.7 -38.5 Q11.45 -37.95 11.75 -36.55 11.95 -35.85 12.3 -35.55 12.8 -35.2 13.3 -35.25 L12.65 -33.85 10.0 -33.4 Q9.65 -35.7 9.6 -37.95 9.6 -38.3 9.9 -38.45 10.4 -38.7 10.35 -39.05 10.35 -39.35 9.5 -39.4 L6.5 -39.65 6.15 -39.6 6.1 -39.3 Q6.1 -35.95 6.55 -32.75 L4.9 -32.5 4.6 -32.15 Q4.6 -31.85 5.0 -31.85 L6.65 -32.15 Q7.35 -27.4 9.2 -23.8 L9.3 -23.7 Q7.2 -20.9 4.8 -19.65 L4.65 -19.4 5.0 -19.35 Q7.95 -20.15 10.5 -21.95 12.65 -19.2 14.9 -19.0 L14.95 -19.0 Q15.8 -19.0 16.45 -19.65 17.05 -20.2 17.0 -21.15 L16.6 -22.35 Q16.15 -23.25 16.6 -26.8 L16.5 -27.1 Q16.35 -27.2 16.2 -26.95 14.7 -23.9 14.25 -23.9 L13.05 -24.85 Q14.15 -25.95 15.7 -30.4 15.75 -30.65 16.15 -30.75 L16.55 -31.15 16.2 -31.6 13.1 -32.85 12.85 -32.9 12.8 -32.6 Q12.55 -30.35 11.4 -27.7 10.55 -29.7 10.1 -32.8 L16.1 -33.9 16.3 -33.9 16.55 -34.1 16.65 -34.3 14.15 -35.75 Q14.6 -36.2 14.55 -37.0 14.55 -37.6 14.1 -38.05 13.65 -38.55 12.7 -38.75 M-17.15 -39.05 L-20.25 -39.85 -20.65 -39.85 -20.8 -39.5 Q-20.8 -38.65 -21.15 -37.45 -23.2 -39.05 -23.4 -39.05 L-24.9 -37.25 -27.15 -37.25 -26.2 -38.25 Q-25.85 -38.35 -25.8 -38.65 -25.8 -38.95 -26.55 -39.15 L-29.65 -39.95 -30.0 -39.95 -30.15 -39.55 Q-30.2 -38.5 -30.7 -36.95 -31.25 -35.25 -32.35 -33.75 L-32.5 -33.45 -32.15 -33.5 Q-29.45 -34.6 -27.7 -36.55 -27.25 -36.0 -27.1 -34.7 -26.9 -33.25 -25.65 -33.3 -25.15 -33.3 -24.75 -33.8 -24.4 -34.15 -24.35 -34.8 -24.35 -35.4 -24.65 -35.85 -25.05 -36.4 -25.85 -36.65 L-21.4 -36.65 -22.15 -34.95 -23.3 -35.05 -23.55 -34.95 -23.65 -34.65 -23.65 -33.15 -31.8 -33.15 -32.05 -32.85 Q-32.05 -32.55 -31.8 -32.55 L-23.65 -32.55 -23.65 -30.9 -26.35 -30.9 -29.0 -31.75 -29.3 -31.7 -29.4 -31.5 -29.4 -25.7 Q-29.45 -25.25 -29.1 -24.9 L-27.8 -24.8 -26.6 -24.9 -26.25 -25.15 Q-26.1 -25.3 -26.1 -25.7 L-26.1 -30.3 -23.65 -30.3 -23.65 -28.45 Q-26.7 -23.8 -29.65 -21.6 -30.75 -20.85 -32.1 -20.15 L-32.3 -19.9 -31.95 -19.8 Q-27.1 -20.8 -23.65 -23.95 L-23.65 -19.95 Q-23.65 -19.2 -23.3 -18.95 L-21.9 -18.8 -20.5 -19.0 Q-20.2 -19.15 -20.15 -19.95 L-20.15 -24.15 Q-18.5 -21.25 -14.6 -19.85 L-13.9 -19.75 -13.7 -20.05 Q-13.15 -22.4 -12.1 -22.85 -11.8 -22.95 -11.8 -23.15 L-12.2 -23.4 Q-14.75 -23.65 -16.55 -24.5 -15.8 -24.65 -15.35 -24.95 -14.75 -25.5 -14.7 -26.6 L-14.7 -29.25 -14.35 -29.7 Q-13.8 -29.85 -13.8 -30.3 L-14.2 -30.8 -16.4 -32.25 -16.85 -32.45 -17.1 -32.25 -18.3 -30.9 -20.15 -30.9 -20.15 -32.55 -11.9 -32.55 -11.75 -32.6 -11.7 -32.85 -11.9 -33.1 -14.75 -34.5 Q-14.45 -35.35 -15.0 -36.1 L-16.0 -36.75 -12.1 -36.75 -12.05 -36.8 -11.95 -37.05 -14.25 -39.0 -14.65 -39.15 -16.15 -37.35 -17.65 -37.35 Q-17.25 -38.0 -16.8 -38.15 -16.5 -38.25 -16.45 -38.55 -16.4 -38.9 -17.15 -39.05 M-19.9 -33.75 Q-19.3 -34.2 -19.8 -34.65 L-20.45 -34.85 -18.15 -36.75 Q-17.7 -36.1 -17.4 -34.75 -17.2 -33.55 -16.15 -33.45 L-16.5 -33.15 -20.15 -33.15 -20.15 -33.2 -19.9 -33.75 M-18.2 -30.3 L-18.2 -27.95 -18.35 -27.65 -19.55 -27.45 -19.85 -27.35 -19.65 -27.1 Q-18.8 -26.35 -18.65 -25.65 -19.6 -26.4 -20.15 -27.2 L-20.15 -30.3 -18.2 -30.3" fill="none" stroke="#000000" stroke-linecap="round" stroke-linejoin="round" stroke-width="3.5"/>
    <path d="M-18.2 -30.3 L-20.15 -30.3 -20.15 -27.2 Q-19.6 -26.4 -18.65 -25.65 -18.8 -26.35 -19.65 -27.1 L-19.85 -27.35 -19.55 -27.45 -18.35 -27.65 -18.2 -27.95 -18.2 -30.3 M-19.9 -33.75 L-20.15 -33.2 -20.15 -33.15 -16.5 -33.15 -16.15 -33.45 Q-17.2 -33.55 -17.4 -34.75 -17.7 -36.1 -18.15 -36.75 L-20.45 -34.85 -19.8 -34.65 Q-19.3 -34.2 -19.9 -33.75 M-20.25 -39.85 L-17.15 -39.05 Q-16.4 -38.9 -16.45 -38.55 -16.5 -38.25 -16.8 -38.15 -17.25 -38.0 -17.65 -37.35 L-16.15 -37.35 -14.65 -39.15 -14.25 -39.0 -11.95 -37.05 -12.05 -36.8 -12.1 -36.75 -16.0 -36.75 -15.0 -36.1 Q-14.45 -35.35 -14.75 -34.5 L-11.9 -33.1 -11.7 -32.85 -11.75 -32.6 -11.9 -32.55 -20.15 -32.55 -20.15 -30.9 -18.3 -30.9 -17.1 -32.25 -16.85 -32.45 -16.4 -32.25 -14.2 -30.8 -13.8 -30.3 Q-13.8 -29.85 -14.35 -29.7 L-14.7 -29.25 -14.7 -26.6 Q-14.75 -25.5 -15.35 -24.95 -15.8 -24.65 -16.55 -24.5 -14.75 -23.65 -12.2 -23.4 L-11.8 -23.15 Q-11.8 -22.95 -12.1 -22.85 -13.15 -22.4 -13.7 -20.05 L-13.9 -19.75 -14.6 -19.85 Q-18.5 -21.25 -20.15 -24.15 L-20.15 -19.95 Q-20.2 -19.15 -20.5 -19.0 L-21.9 -18.8 -23.3 -18.95 Q-23.65 -19.2 -23.65 -19.95 L-23.65 -23.95 Q-27.1 -20.8 -31.95 -19.8 L-32.3 -19.9 -32.1 -20.15 Q-30.75 -20.85 -29.65 -21.6 -26.7 -23.8 -23.65 -28.45 L-23.65 -30.3 -26.1 -30.3 -26.1 -25.7 Q-26.1 -25.3 -26.25 -25.15 L-26.6 -24.9 -27.8 -24.8 -29.1 -24.9 Q-29.45 -25.25 -29.4 -25.7 L-29.4 -31.5 -29.3 -31.7 -29.0 -31.75 -26.35 -30.9 -23.65 -30.9 -23.65 -32.55 -31.8 -32.55 Q-32.05 -32.55 -32.05 -32.85 L-31.8 -33.15 -23.65 -33.15 -23.65 -34.65 -23.55 -34.95 -23.3 -35.05 -22.15 -34.95 -21.4 -36.65 -25.85 -36.65 Q-25.05 -36.4 -24.65 -35.85 -24.35 -35.4 -24.35 -34.8 -24.4 -34.15 -24.75 -33.8 -25.15 -33.3 -25.65 -33.3 -26.9 -33.25 -27.1 -34.7 -27.25 -36.0 -27.7 -36.55 -29.45 -34.6 -32.15 -33.5 L-32.5 -33.45 -32.35 -33.75 Q-31.25 -35.25 -30.7 -36.95 -30.2 -38.5 -30.15 -39.55 L-30.0 -39.95 -29.65 -39.95 -26.55 -39.15 Q-25.8 -38.95 -25.8 -38.65 -25.85 -38.35 -26.2 -38.25 L-27.15 -37.25 -24.9 -37.25 -23.4 -39.05 Q-23.2 -39.05 -21.15 -37.45 -20.8 -38.65 -20.8 -39.5 L-20.65 -39.85 -20.25 -39.85 M10.7 -38.5 L10.6 -38.7 10.8 -38.8 12.7 -38.75 Q13.65 -38.55 14.1 -38.05 14.55 -37.6 14.55 -37.0 14.6 -36.2 14.15 -35.75 L16.65 -34.3 16.55 -34.1 16.3 -33.9 16.1 -33.9 10.1 -32.8 Q10.55 -29.7 11.4 -27.7 12.55 -30.35 12.8 -32.6 L12.85 -32.9 13.1 -32.85 16.2 -31.6 16.55 -31.15 16.15 -30.75 Q15.75 -30.65 15.7 -30.4 14.15 -25.95 13.05 -24.85 L14.25 -23.9 Q14.7 -23.9 16.2 -26.95 16.35 -27.2 16.5 -27.1 L16.6 -26.8 Q16.15 -23.25 16.6 -22.35 L17.0 -21.15 Q17.05 -20.2 16.45 -19.65 15.8 -19.0 14.95 -19.0 L14.9 -19.0 Q12.65 -19.2 10.5 -21.95 7.95 -20.15 5.0 -19.35 L4.65 -19.4 4.8 -19.65 Q7.2 -20.9 9.3 -23.7 L9.2 -23.8 Q7.35 -27.4 6.65 -32.15 L5.0 -31.85 Q4.6 -31.85 4.6 -32.15 L4.9 -32.5 6.55 -32.75 Q6.1 -35.95 6.1 -39.3 L6.15 -39.6 6.5 -39.65 9.5 -39.4 Q10.35 -39.35 10.35 -39.05 10.4 -38.7 9.9 -38.45 9.6 -38.3 9.6 -37.95 9.65 -35.7 10.0 -33.4 L12.65 -33.85 13.3 -35.25 Q12.8 -35.2 12.3 -35.55 11.95 -35.85 11.75 -36.55 11.45 -37.95 10.7 -38.5 M21.15 -39.2 L21.2 -39.5 Q21.25 -39.65 21.55 -39.65 L24.45 -39.4 Q25.5 -39.35 25.5 -38.8 25.5 -38.4 25.0 -38.25 24.45 -38.05 24.5 -37.65 L24.5 -21.7 Q24.45 -20.55 23.8 -19.85 23.1 -19.15 20.55 -19.05 20.2 -19.05 20.2 -19.4 20.1 -21.45 17.75 -22.6 17.55 -22.65 17.55 -22.85 L17.85 -22.95 20.95 -23.1 Q21.15 -23.3 21.15 -23.65 L21.15 -39.2 M20.6 -38.55 Q21.05 -38.15 20.5 -37.7 20.2 -37.5 20.25 -37.15 L20.25 -25.35 Q20.2 -24.6 19.95 -24.5 L18.6 -24.3 17.3 -24.45 Q17.0 -24.65 17.0 -25.35 L17.0 -38.55 Q16.95 -38.75 17.05 -38.85 L17.3 -38.9 20.0 -38.75 20.6 -38.55" fill="#e7f902" fill-rule="evenodd" stroke="none"/>
  </g>
</svg>
