<?xml version="1.0" encoding="UTF-8" standalone="no"?>
<svg xmlns:xlink="http://www.w3.org/1999/xlink" height="95.4px" width="85.65px" xmlns="http://www.w3.org/2000/svg">
  <g transform="matrix(1.0, 0.0, 0.0, 1.0, 47.7, 39.15)">
    <path d="M21.45 22.25 L34.3 22.25 Q34.95 22.85 34.3 23.4 L28.35 23.4 28.35 27.5 35.4 27.5 Q36.05 28.05 35.4 28.65 L28.6 28.65 Q31.05 34.45 35.7 36.6 36.35 37.55 35.15 37.75 29.95 34.95 28.1 29.9 27.1 35.95 20.75 37.75 19.6 37.75 20.2 36.6 26.35 34.85 27.15 28.65 L20.1 28.65 Q19.45 28.25 20.1 27.5 L27.15 27.5 27.15 23.4 21.5 23.4 Q20.8 23.0 21.45 22.25 M4.7 24.05 Q5.4 24.65 4.7 25.2 L3.45 25.2 3.45 36.45 Q3.75 38.1 -0.15 37.6 -0.65 36.65 0.25 36.45 L2.25 36.35 2.25 25.2 -0.4 25.2 Q-1.05 24.65 -0.4 24.05 L2.25 24.05 2.25 21.95 Q2.85 21.3 3.45 21.95 L3.45 24.05 4.7 24.05 M0.75 33.1 Q0.35 30.05 -0.5 27.25 -0.1 26.35 0.65 27.0 1.5 29.55 1.95 32.9 1.55 33.75 0.75 33.1 M9.4 45.1 L9.4 53.7 7.8 53.7 7.8 46.95 6.1 53.7 4.4 53.7 2.7 46.95 2.7 53.7 1.1 53.7 1.1 45.1 3.7 45.1 5.25 50.95 6.8 45.1 9.4 45.1 M14.1 47.5 L15.55 51.9 17.05 47.5 18.75 47.5 16.15 54.55 15.75 55.4 15.3 55.85 14.65 56.15 13.8 56.25 12.9 56.15 12.75 54.85 13.45 54.9 14.3 54.6 14.7 53.7 12.35 47.5 14.1 47.5 M24.35 48.65 Q23.7 48.65 23.35 49.05 23.0 49.5 23.0 50.5 23.0 51.6 23.35 52.05 23.75 52.5 24.35 52.5 L25.15 52.25 25.55 51.3 27.15 51.6 Q26.9 52.7 26.2 53.25 25.5 53.85 24.3 53.85 22.9 53.85 22.1 53.0 21.3 52.1 21.3 50.6 21.3 49.05 22.1 48.2 22.95 47.35 24.3 47.35 25.45 47.35 26.15 47.85 26.8 48.3 27.1 49.3 L25.45 49.6 25.1 48.9 Q24.8 48.65 24.35 48.65 M33.15 47.35 Q34.55 47.35 35.45 48.25 36.35 49.15 36.35 50.55 36.35 52.0 35.45 52.9 34.55 53.85 33.15 53.85 32.3 53.85 31.5 53.45 30.75 53.05 30.35 52.3 29.95 51.55 29.95 50.5 29.95 49.7 30.35 48.9 30.75 48.15 31.5 47.75 32.2 47.35 33.15 47.35 M33.15 48.7 Q32.5 48.7 32.05 49.15 31.6 49.65 31.6 50.6 31.6 51.5 32.05 52.0 32.5 52.5 33.15 52.5 33.8 52.5 34.25 52.0 34.65 51.5 34.65 50.6 34.65 49.65 34.25 49.15 33.8 48.7 33.15 48.7 M-7.45 24.0 Q-7.15 24.95 -8.25 24.95 L-10.65 22.8 Q-10.95 21.8 -9.9 21.8 -8.6 22.7 -7.45 24.0 M-4.45 24.65 Q-5.1 24.65 -5.1 25.3 L-5.1 25.95 -2.15 25.95 -2.15 25.3 Q-2.0 24.65 -2.8 24.65 L-4.45 24.65 M-2.5 22.0 L-3.3 23.5 -2.5 23.5 Q-0.8 23.5 -0.95 25.0 L-0.95 36.5 Q-0.95 38.1 -5.0 37.45 -5.3 36.5 -4.45 36.3 L-2.15 36.35 -2.15 33.2 Q-3.65 35.35 -6.5 37.2 -7.5 37.05 -7.05 36.05 -4.55 34.7 -2.15 31.95 L-6.8 32.5 Q-7.5 32.3 -7.05 31.35 L-6.3 31.25 -6.3 25.05 Q-6.3 23.5 -4.85 23.5 L-4.55 23.5 -3.5 21.6 Q-2.85 21.3 -2.5 22.0 M-2.15 27.15 L-5.1 27.15 -5.1 28.45 -2.15 28.45 -2.15 27.15 M-8.4 28.05 L-8.4 35.35 Q-8.4 36.0 -7.05 33.55 -5.95 33.25 -6.05 34.35 -7.5 36.35 -8.5 36.9 -9.6 37.2 -9.6 36.05 L-9.6 28.3 Q-9.45 27.7 -10.25 27.7 L-11.55 27.7 Q-12.2 27.1 -11.55 26.5 L-9.95 26.5 Q-8.25 26.5 -8.4 28.05 M-2.15 29.6 L-5.1 29.6 -5.1 31.2 -2.15 30.95 -2.15 29.6" fill="#fabd05" fill-rule="evenodd" stroke="none"/>
    <path d="M8.15 -7.0 Q8.85 -6.75 9.3 -6.15 L9.75 -4.6 Q9.75 -3.85 9.4 -3.3 L8.5 -2.4 Q8.15 -2.15 7.5 -2.0 L8.25 -1.65 8.7 -1.2 9.1 -0.6 10.5 2.1 7.25 2.1 5.7 -0.75 5.2 -1.45 4.5 -1.7 4.25 -1.7 4.25 2.1 1.35 2.1 1.35 -7.2 6.15 -7.2 8.15 -7.0 M4.25 -3.45 L5.45 -3.45 6.2 -3.55 6.65 -3.85 6.85 -4.4 6.55 -5.1 5.5 -5.35 4.25 -5.35 4.25 -3.45 M18.5 -1.45 L17.5 -4.8 16.5 -1.45 18.5 -1.45 M19.1 -7.2 L22.6 2.1 19.6 2.1 19.1 0.55 15.85 0.55 15.4 2.1 12.45 2.1 15.95 -7.2 19.1 -7.2 M29.25 -7.2 L30.7 -1.55 32.15 -7.2 35.95 -7.2 35.95 2.1 33.6 2.1 33.6 -5.0 31.75 2.1 29.65 2.1 27.85 -5.0 27.85 2.1 25.45 2.1 25.45 -7.2 29.25 -7.2 M-40.6 -6.45 Q-39.8 -5.7 -39.8 -4.35 -39.8 -2.95 -40.65 -2.15 -41.5 -1.35 -43.25 -1.35 L-44.8 -1.35 -44.8 2.1 -47.7 2.1 -47.7 -7.2 -42.95 -7.2 Q-41.35 -7.2 -40.6 -6.45 M-42.6 -4.25 Q-42.6 -4.7 -42.9 -5.0 L-44.0 -5.3 -44.8 -5.3 -44.8 -3.25 -44.1 -3.25 Q-43.3 -3.25 -42.95 -3.5 -42.6 -3.8 -42.6 -4.25 M-32.1 -5.35 L-33.35 -5.35 -33.35 -3.45 -32.15 -3.45 -31.4 -3.55 -30.95 -3.85 -30.75 -4.4 Q-30.75 -4.85 -31.05 -5.1 L-32.1 -5.35 M-33.35 -1.7 L-33.35 2.1 -36.25 2.1 -36.25 -7.2 -31.45 -7.2 -29.45 -7.0 Q-28.75 -6.75 -28.3 -6.15 -27.85 -5.5 -27.85 -4.6 -27.85 -3.85 -28.2 -3.3 -28.5 -2.7 -29.1 -2.4 -29.45 -2.15 -30.1 -2.0 L-29.35 -1.65 -28.9 -1.2 -28.5 -0.6 -27.1 2.1 -30.35 2.1 -31.9 -0.75 -32.4 -1.45 -33.1 -1.7 -33.35 -1.7 M-21.35 -0.5 Q-20.85 0.1 -19.95 0.1 -19.0 0.1 -18.5 -0.5 -18.0 -1.1 -18.0 -2.65 -18.0 -3.95 -18.5 -4.6 -19.05 -5.2 -19.95 -5.2 -20.85 -5.2 -21.35 -4.55 -21.9 -3.95 -21.9 -2.55 -21.9 -1.1 -21.35 -0.5 M-23.5 -6.1 Q-22.2 -7.35 -19.95 -7.35 -17.65 -7.35 -16.35 -6.1 -15.1 -4.85 -15.1 -2.6 -15.1 -1.0 -15.65 0.05 -16.2 1.1 -17.25 1.7 -18.3 2.25 -19.85 2.25 -21.4 2.25 -22.45 1.75 -23.5 1.25 -24.1 0.15 -24.75 -0.9 -24.75 -2.55 -24.75 -4.85 -23.5 -6.1 M-11.25 -5.2 Q-10.65 -6.35 -9.45 -6.9 L-6.9 -7.35 -4.6 -7.1 Q-3.8 -6.8 -3.3 -6.2 -2.8 -5.65 -2.55 -4.75 L-5.35 -4.25 Q-5.5 -4.75 -5.9 -5.05 L-6.95 -5.3 Q-7.9 -5.3 -8.45 -4.65 -9.0 -4.0 -9.0 -2.6 -9.0 -1.05 -8.45 -0.45 -7.9 0.2 -6.85 0.2 L-5.95 0.1 Q-5.5 -0.05 -4.95 -0.4 L-4.95 -1.25 -6.85 -1.25 -6.85 -3.2 -2.45 -3.2 -2.45 0.75 Q-3.7 1.65 -4.7 1.95 L-7.0 2.25 -9.7 1.7 Q-10.75 1.15 -11.35 0.0 -11.9 -1.1 -11.9 -2.55 -11.9 -4.1 -11.25 -5.2" fill="#e7f902" fill-rule="evenodd" stroke="none"/>
    <path d="M-5.15 -34.85 L-9.65 -34.85 -9.65 -30.05 -5.15 -30.05 -5.15 -34.85 M-12.85 -36.7 L-12.6 -36.7 -9.6 -35.45 -5.25 -35.45 -4.25 -36.45 -3.95 -36.6 -3.55 -36.45 -1.5 -35.2 -1.1 -34.75 Q-1.1 -34.4 -1.55 -34.2 L-1.85 -33.6 -1.85 -28.55 -2.05 -28.1 -2.65 -27.9 -0.7 -26.1 -0.8 -25.85 -0.55 -25.65 -5.8 -25.8 -5.8 -22.1 -5.55 -22.1 -4.0 -24.0 -3.65 -23.85 -1.4 -21.8 -1.5 -21.55 -1.3 -21.3 -5.8 -21.5 -5.8 -17.75 -5.3 -17.75 -3.45 -19.95 -3.1 -19.75 -0.75 -17.8 -0.55 -17.45 -0.65 -17.2 -0.4 -17.15 -14.35 -17.15 -14.65 -17.45 -14.35 -17.75 -9.2 -17.75 -9.2 -21.5 -12.55 -21.5 Q-12.85 -21.5 -12.85 -21.85 L-12.55 -22.1 -9.2 -22.1 -9.2 -25.8 -12.55 -25.8 Q-12.4 -24.65 -13.05 -24.0 -13.45 -23.65 -13.95 -23.7 -14.45 -23.75 -14.75 -24.15 L-15.0 -24.9 Q-14.9 -26.95 -15.35 -27.6 -15.5 -27.85 -15.75 -27.9 L-15.75 -17.6 Q-15.75 -16.85 -16.05 -16.6 L-17.35 -16.4 -18.8 -16.55 -19.05 -17.6 -19.05 -23.1 Q-20.05 -21.95 -21.5 -21.1 L-21.8 -21.0 -21.8 -21.3 Q-19.75 -24.55 -19.3 -29.75 L-21.3 -29.75 Q-21.6 -29.75 -21.6 -30.1 L-21.3 -30.35 -19.05 -30.35 -19.05 -33.1 -21.55 -33.05 -21.8 -33.2 -21.65 -33.4 Q-18.5 -34.65 -16.15 -36.9 L-15.9 -37.05 -15.6 -36.9 -12.9 -34.55 -12.9 -36.45 -12.85 -36.7 M-12.9 -33.75 L-13.65 -33.95 -15.75 -33.55 -15.75 -30.35 -15.5 -30.35 -14.4 -31.9 -14.25 -31.8 -14.0 -31.45 Q-13.15 -30.15 -13.2 -29.9 L-13.3 -29.75 -15.75 -29.75 -15.75 -28.35 Q-13.25 -27.85 -12.8 -26.4 L-5.15 -26.4 -4.05 -27.85 -4.9 -28.0 -5.15 -28.6 -5.15 -29.4 -9.65 -29.4 -9.65 -29.1 Q-9.65 -28.45 -9.9 -28.3 L-11.3 -28.0 -12.65 -28.15 Q-12.9 -28.35 -12.9 -29.1 L-12.9 -33.75 M24.3 -37.3 L24.55 -37.4 Q26.55 -37.45 27.7 -36.45 28.25 -36.0 28.4 -35.35 28.4 -34.2 27.6 -33.55 L31.35 -33.55 33.15 -35.6 33.6 -35.45 36.2 -33.25 36.1 -33.0 36.0 -32.95 32.4 -32.95 34.4 -30.55 Q34.75 -30.1 34.6 -29.7 34.4 -29.25 33.7 -29.45 L32.8 -29.45 29.1 -28.35 29.15 -28.25 Q29.6 -27.1 29.1 -26.35 L31.45 -26.35 32.5 -27.75 32.8 -28.0 33.15 -27.85 35.75 -26.15 Q36.25 -25.8 36.2 -25.4 36.15 -24.9 35.45 -24.9 L34.55 -24.6 Q32.85 -23.5 30.6 -22.4 L30.25 -22.4 30.3 -22.7 Q31.15 -24.5 31.35 -25.75 L29.35 -25.75 29.35 -18.6 Q29.35 -17.35 28.45 -16.75 27.5 -16.15 26.2 -16.1 L24.95 -16.15 24.9 -16.65 24.15 -18.6 Q23.65 -19.15 22.1 -19.5 L21.9 -19.75 22.15 -19.95 25.65 -20.05 Q25.85 -20.2 25.85 -20.7 L25.85 -25.75 21.0 -25.75 Q20.75 -25.75 20.75 -26.05 20.75 -26.35 21.0 -26.35 L26.6 -26.35 26.45 -26.7 Q25.25 -29.05 23.95 -29.55 23.75 -29.6 23.8 -29.75 23.8 -29.9 24.05 -29.95 26.25 -30.15 28.25 -29.1 L30.1 -30.9 21.75 -30.9 Q21.5 -30.9 21.5 -31.2 L21.75 -31.5 30.25 -31.5 31.65 -32.95 20.55 -32.95 20.55 -30.5 Q20.55 -25.7 20.1 -23.25 19.25 -18.75 16.0 -16.45 L15.35 -16.15 Q17.1 -19.55 17.1 -30.2 L17.1 -34.35 17.3 -34.8 20.75 -33.55 25.65 -33.55 Q25.05 -34.15 25.05 -34.8 25.15 -36.3 24.45 -37.05 L24.3 -37.3" fill="#000000" fill-rule="evenodd" stroke="none"/>
    <path d="M24.3 -37.3 L24.45 -37.05 Q25.15 -36.3 25.05 -34.8 25.05 -34.15 25.65 -33.55 L20.75 -33.55 17.3 -34.8 17.1 -34.35 17.1 -30.2 Q17.1 -19.55 15.35 -16.15 L16.0 -16.45 Q19.25 -18.75 20.1 -23.25 20.55 -25.7 20.55 -30.5 L20.55 -32.95 31.65 -32.95 30.25 -31.5 21.75 -31.5 21.5 -31.2 Q21.5 -30.9 21.75 -30.9 L30.1 -30.9 28.25 -29.1 Q26.25 -30.15 24.05 -29.95 23.8 -29.9 23.8 -29.75 23.75 -29.6 23.95 -29.55 25.25 -29.05 26.45 -26.7 L26.6 -26.35 21.0 -26.35 Q20.75 -26.35 20.75 -26.05 20.75 -25.75 21.0 -25.75 L25.85 -25.75 25.85 -20.7 Q25.85 -20.2 25.65 -20.05 L22.15 -19.95 21.9 -19.75 22.1 -19.5 Q23.65 -19.15 24.15 -18.6 L24.9 -16.65 24.95 -16.15 26.2 -16.1 Q27.5 -16.15 28.45 -16.75 29.35 -17.35 29.35 -18.6 L29.35 -25.75 31.35 -25.75 Q31.15 -24.5 30.3 -22.7 L30.25 -22.4 30.6 -22.4 Q32.85 -23.5 34.55 -24.6 L35.45 -24.9 Q36.15 -24.9 36.2 -25.4 36.25 -25.8 35.75 -26.15 L33.15 -27.85 32.8 -28.0 32.5 -27.75 31.45 -26.35 29.1 -26.35 Q29.6 -27.1 29.15 -28.25 L29.1 -28.35 32.8 -29.45 33.7 -29.45 Q34.4 -29.25 34.6 -29.7 34.75 -30.1 34.4 -30.55 L32.4 -32.95 36.0 -32.95 36.1 -33.0 36.2 -33.25 33.6 -35.45 33.15 -35.6 31.35 -33.55 27.6 -33.55 Q28.4 -34.2 28.4 -35.35 28.25 -36.0 27.7 -36.45 26.55 -37.45 24.55 -37.4 L24.3 -37.3 M-12.9 -33.75 L-12.9 -29.1 Q-12.9 -28.35 -12.65 -28.15 L-11.3 -28.0 -9.9 -28.3 Q-9.65 -28.45 -9.65 -29.1 L-9.65 -29.4 -5.15 -29.4 -5.15 -28.6 -4.9 -28.0 -4.05 -27.85 -5.15 -26.4 -12.8 -26.4 Q-13.25 -27.85 -15.75 -28.35 L-15.75 -29.75 -13.3 -29.75 -13.2 -29.9 Q-13.15 -30.15 -14.0 -31.45 L-14.25 -31.8 -14.4 -31.9 -15.5 -30.35 -15.75 -30.35 -15.75 -33.55 -13.65 -33.95 -12.9 -33.75 M-12.85 -36.7 L-12.9 -36.45 -12.9 -34.55 -15.6 -36.9 -15.9 -37.05 -16.15 -36.9 Q-18.5 -34.65 -21.65 -33.4 L-21.8 -33.2 -21.55 -33.05 -19.05 -33.1 -19.05 -30.35 -21.3 -30.35 -21.6 -30.1 Q-21.6 -29.75 -21.3 -29.75 L-19.3 -29.75 Q-19.75 -24.55 -21.8 -21.3 L-21.8 -21.0 -21.5 -21.1 Q-20.05 -21.95 -19.05 -23.1 L-19.05 -17.6 -18.8 -16.55 -17.35 -16.4 -16.05 -16.6 Q-15.75 -16.85 -15.75 -17.6 L-15.75 -27.9 Q-15.5 -27.85 -15.35 -27.6 -14.9 -26.95 -15.0 -24.9 L-14.75 -24.15 Q-14.45 -23.75 -13.95 -23.7 -13.45 -23.65 -13.05 -24.0 -12.4 -24.65 -12.55 -25.8 L-9.2 -25.8 -9.2 -22.1 -12.55 -22.1 -12.85 -21.85 Q-12.85 -21.5 -12.55 -21.5 L-9.2 -21.5 -9.2 -17.75 -14.35 -17.75 -14.65 -17.45 -14.35 -17.15 -0.4 -17.15 -0.65 -17.2 -0.55 -17.45 -0.75 -17.8 -3.1 -19.75 -3.45 -19.95 -5.3 -17.75 -5.8 -17.75 -5.8 -21.5 -1.3 -21.3 -1.5 -21.55 -1.4 -21.8 -3.65 -23.85 -4.0 -24.0 -5.55 -22.1 -5.8 -22.1 -5.8 -25.8 -0.55 -25.65 -0.8 -25.85 -0.7 -26.1 -2.65 -27.9 -2.05 -28.1 -1.85 -28.55 -1.85 -33.6 -1.55 -34.2 Q-1.1 -34.4 -1.1 -34.75 L-1.5 -35.2 -3.55 -36.45 -3.95 -36.6 -4.25 -36.45 -5.25 -35.45 -9.6 -35.45 -12.6 -36.7 -12.85 -36.7 M-5.15 -34.85 L-5.15 -30.05 -9.65 -30.05 -9.65 -34.85 -5.15 -34.85" fill="none" stroke="#000000" stroke-linecap="round" stroke-linejoin="round" stroke-width="3.5"/>
    <path d="M-5.15 -34.85 L-9.65 -34.85 -9.65 -30.05 -5.15 -30.05 -5.15 -34.85 M-12.9 -33.75 L-13.65 -33.95 -15.75 -33.55 -15.75 -30.35 -15.5 -30.35 -14.4 -31.9 -14.25 -31.8 -14.0 -31.45 Q-13.15 -30.15 -13.2 -29.9 L-13.3 -29.75 -15.75 -29.75 -15.75 -28.35 Q-13.25 -27.85 -12.8 -26.4 L-5.15 -26.4 -4.05 -27.85 -4.9 -28.0 -5.15 -28.6 -5.15 -29.4 -9.65 -29.4 -9.65 -29.1 Q-9.65 -28.45 -9.9 -28.3 L-11.3 -28.0 -12.65 -28.15 Q-12.9 -28.35 -12.9 -29.1 L-12.9 -33.75 M-12.85 -36.7 L-12.6 -36.7 -9.6 -35.45 -5.25 -35.45 -4.25 -36.45 -3.95 -36.6 -3.55 -36.45 -1.5 -35.2 -1.1 -34.75 Q-1.1 -34.4 -1.55 -34.2 L-1.85 -33.6 -1.85 -28.55 -2.05 -28.1 -2.65 -27.9 -0.7 -26.1 -0.8 -25.85 -0.9 -25.8 -5.8 -25.8 -5.8 -22.1 -5.55 -22.1 -4.0 -24.0 -3.65 -23.85 -1.4 -21.8 -1.5 -21.55 -1.55 -21.5 -5.8 -21.5 -5.8 -17.75 -5.3 -17.75 -3.45 -19.95 -3.1 -19.75 -0.75 -17.8 -0.55 -17.45 -0.65 -17.2 -0.75 -17.15 -14.35 -17.15 -14.65 -17.45 -14.35 -17.75 -9.2 -17.75 -9.2 -21.5 -12.55 -21.5 Q-12.85 -21.5 -12.85 -21.85 L-12.55 -22.1 -9.2 -22.1 -9.2 -25.8 -12.55 -25.8 Q-12.4 -24.65 -13.05 -24.0 -13.45 -23.65 -13.95 -23.7 -14.45 -23.75 -14.75 -24.15 L-15.0 -24.9 Q-14.9 -26.95 -15.35 -27.6 -15.5 -27.85 -15.75 -27.9 L-15.75 -17.6 Q-15.75 -16.85 -16.05 -16.6 L-17.35 -16.4 -18.8 -16.55 -19.05 -17.6 -19.05 -23.1 Q-20.05 -21.95 -21.5 -21.1 L-21.8 -21.0 -21.8 -21.3 Q-19.75 -24.55 -19.3 -29.75 L-21.3 -29.75 Q-21.6 -29.75 -21.6 -30.1 L-21.3 -30.35 -19.05 -30.35 -19.05 -33.1 -21.55 -33.05 -21.8 -33.2 -21.65 -33.4 Q-18.5 -34.65 -16.15 -36.9 L-15.9 -37.05 -15.6 -36.9 -12.9 -34.55 -12.9 -36.45 -12.85 -36.7 M24.3 -37.3 L24.55 -37.4 Q26.55 -37.45 27.7 -36.45 28.25 -36.0 28.4 -35.35 28.4 -34.2 27.6 -33.55 L31.35 -33.55 33.15 -35.6 33.6 -35.45 36.2 -33.25 36.1 -33.0 36.0 -32.95 32.4 -32.95 34.4 -30.55 Q34.75 -30.1 34.6 -29.7 34.4 -29.25 33.7 -29.45 L32.8 -29.45 29.1 -28.35 29.15 -28.25 Q29.6 -27.1 29.1 -26.35 L31.45 -26.35 32.5 -27.75 32.8 -28.0 33.15 -27.85 35.75 -26.15 Q36.25 -25.8 36.2 -25.4 36.15 -24.9 35.45 -24.9 L34.55 -24.6 Q32.85 -23.5 30.6 -22.4 L30.25 -22.4 30.3 -22.7 Q31.15 -24.5 31.35 -25.75 L29.35 -25.75 29.35 -18.6 Q29.35 -17.35 28.6 -16.8 27.7 -16.15 25.45 -16.15 L25.05 -16.2 24.9 -16.65 24.15 -18.6 Q23.65 -19.15 22.1 -19.5 L21.9 -19.75 22.15 -19.95 25.65 -20.05 Q25.85 -20.2 25.85 -20.7 L25.85 -25.75 21.0 -25.75 Q20.75 -25.75 20.75 -26.05 20.75 -26.35 21.0 -26.35 L26.6 -26.35 26.45 -26.7 Q25.25 -29.05 23.95 -29.55 23.75 -29.6 23.8 -29.75 23.8 -29.9 24.05 -29.95 26.25 -30.15 28.25 -29.1 L30.1 -30.9 21.75 -30.9 Q21.5 -30.9 21.5 -31.2 L21.75 -31.5 30.25 -31.5 31.65 -32.95 20.55 -32.95 20.55 -30.5 Q20.55 -25.7 20.1 -23.25 19.25 -18.75 16.0 -16.45 L15.55 -16.4 15.6 -16.75 Q17.1 -19.55 17.1 -30.2 L17.1 -34.35 17.3 -34.8 20.75 -33.55 25.65 -33.55 Q25.05 -34.15 25.05 -34.8 25.15 -36.3 24.45 -37.05 L24.3 -37.3" fill="#e7f902" fill-rule="evenodd" stroke="none"/>
  </g>
</svg>
