<?xml version="1.0" encoding="UTF-8" standalone="no"?>
<svg xmlns:xlink="http://www.w3.org/1999/xlink" height="95.45px" width="131.8px" xmlns="http://www.w3.org/2000/svg">
  <g transform="matrix(1.0, 0.0, 0.0, 1.0, 64.25, 37.2)">
    <path d="M1.05 -20.75 Q1.05 -19.45 1.25 -19.1 L1.65 -18.6 2.4 -17.9 2.4 -16.7 Q2.25 -15.9 1.7 -15.45 0.65 -14.35 -2.15 -14.4 L-5.85 -14.4 Q-8.8 -14.2 -9.45 -15.0 L-9.75 -16.1 -9.75 -22.4 -9.6 -22.8 -9.25 -22.9 -6.4 -22.7 -5.55 -22.45 Q-5.15 -21.85 -6.05 -21.55 L-6.25 -21.25 -6.25 -18.35 -6.0 -17.75 -4.3 -17.6 -2.3 -17.6 Q-1.2 -17.6 -0.5 -17.95 0.0 -18.25 0.65 -20.8 L0.9 -21.0 1.05 -20.75 M1.85 -21.95 L2.1 -22.05 Q3.65 -21.6 4.85 -20.7 6.1 -19.7 6.45 -18.7 6.75 -18.1 6.65 -17.35 6.5 -16.55 6.05 -16.2 5.45 -15.7 4.8 -15.7 4.05 -15.8 3.65 -16.3 3.3 -16.75 3.2 -18.6 2.95 -20.6 1.9 -21.75 L1.85 -21.95 M15.95 -15.4 L15.95 -22.0 15.05 -22.0 15.05 -15.4 15.95 -15.4 M12.05 -23.3 L14.9 -22.6 23.95 -22.6 25.3 -24.2 25.5 -24.3 25.65 -24.2 28.35 -22.5 28.7 -21.95 Q28.7 -21.6 28.15 -21.3 27.65 -21.1 27.65 -20.75 L27.65 -15.7 28.7 -17.2 28.95 -17.1 29.3 -16.55 30.1 -14.9 30.0 -14.8 10.15 -14.8 Q9.85 -14.8 9.85 -15.1 9.85 -15.4 10.15 -15.4 L11.55 -15.4 11.55 -22.85 11.65 -23.3 12.05 -23.3 M20.1 -22.0 L19.25 -22.0 19.25 -15.4 20.1 -15.4 20.1 -22.0 M14.0 -33.85 L14.65 -33.65 Q15.1 -33.2 14.55 -32.75 14.25 -32.55 14.25 -32.2 L14.25 -25.4 Q14.2 -24.6 13.95 -24.45 L12.55 -24.25 11.15 -24.4 Q10.8 -24.65 10.8 -25.4 L10.8 -33.7 10.85 -34.0 11.15 -34.05 14.0 -33.85 M0.15 -24.95 L0.15 -30.1 -8.8 -30.1 -8.8 -24.95 0.15 -24.95 M1.1 -31.75 L1.4 -31.9 1.8 -31.75 4.0 -30.45 Q5.0 -29.85 4.0 -29.4 3.65 -29.25 3.65 -28.75 L3.65 -24.0 3.45 -23.55 Q3.15 -23.25 2.0 -23.25 L0.4 -23.4 Q0.15 -23.6 0.15 -24.05 L0.15 -24.35 -8.8 -24.35 Q-8.8 -23.65 -9.05 -23.45 L-10.55 -23.2 -11.95 -23.35 Q-12.25 -23.6 -12.25 -24.35 L-12.25 -31.8 -12.15 -32.05 -11.95 -32.0 -8.7 -30.7 -3.3 -30.7 Q-1.85 -33.45 -1.45 -35.05 L-1.1 -35.35 2.65 -34.35 2.7 -33.85 Q2.55 -33.65 2.25 -33.6 L1.6 -33.5 -1.7 -30.7 0.05 -30.7 1.1 -31.75 M24.55 -26.2 Q23.95 -28.2 22.85 -29.0 L22.75 -29.2 23.0 -29.35 25.6 -29.0 Q26.9 -28.6 27.4 -27.9 27.85 -27.35 27.95 -26.6 28.0 -25.8 27.65 -25.35 27.15 -24.7 26.55 -24.6 25.8 -24.4 25.3 -24.85 24.55 -25.5 24.55 -26.2 M26.75 -33.4 L27.15 -33.2 29.65 -31.15 29.55 -30.9 29.45 -30.85 23.25 -30.85 Q21.55 -27.7 18.75 -25.4 L18.75 -24.55 Q18.7 -23.75 18.4 -23.6 L17.0 -23.4 15.6 -23.55 Q15.25 -23.75 15.25 -24.55 L15.25 -34.8 15.35 -35.1 15.6 -35.2 18.45 -34.95 19.1 -34.75 Q19.6 -34.35 19.0 -33.9 18.7 -33.65 18.75 -33.3 L18.75 -27.2 Q20.45 -31.1 20.5 -34.65 L20.6 -35.05 21.0 -35.1 24.35 -34.8 Q25.2 -34.75 25.2 -34.4 L24.9 -33.9 24.25 -33.05 23.55 -31.45 25.1 -31.45 26.75 -33.4 M24.2 -22.0 L23.35 -22.0 23.35 -15.4 24.2 -15.4 24.2 -22.0 M-61.6 -21.65 L-61.35 -21.9 -54.6 -21.9 Q-54.4 -22.9 -54.35 -24.0 L-54.25 -24.35 -53.85 -24.45 -51.0 -24.3 Q-50.0 -24.25 -50.0 -24.0 -49.9 -23.65 -50.35 -23.45 L-50.7 -22.95 -50.8 -21.9 -47.25 -21.9 -45.65 -23.9 -45.3 -23.75 -43.0 -21.6 -43.05 -21.35 -43.15 -21.3 -50.65 -21.3 -50.4 -21.05 Q-47.9 -18.55 -42.35 -18.0 -41.85 -18.0 -41.8 -17.8 -41.8 -17.5 -42.15 -17.45 -43.3 -17.05 -43.8 -14.8 L-44.05 -14.2 -44.6 -14.25 Q-49.85 -15.65 -51.35 -20.0 -51.75 -19.0 -52.3 -18.25 -53.65 -16.45 -55.65 -15.55 -57.8 -14.55 -62.15 -14.15 L-62.5 -14.35 -62.3 -14.6 Q-59.7 -15.15 -58.1 -16.4 -55.55 -18.2 -54.75 -21.3 L-61.35 -21.3 -61.6 -21.65 M-55.35 -35.2 Q-54.25 -34.9 -53.8 -34.3 -53.35 -33.7 -53.4 -33.0 -53.45 -32.15 -54.15 -31.45 L-50.8 -31.45 Q-50.25 -33.55 -50.25 -34.7 -50.3 -35.05 -50.0 -35.05 L-46.0 -34.6 Q-45.75 -34.35 -45.85 -34.15 L-46.3 -33.8 -46.95 -33.55 -49.3 -31.45 -47.0 -31.45 -45.4 -33.4 -45.05 -33.25 -42.7 -31.15 -42.8 -30.9 -42.9 -30.85 -50.6 -30.85 -50.6 -28.35 -48.2 -28.35 -46.6 -30.3 -46.25 -30.15 -43.9 -28.05 -44.0 -27.8 -44.1 -27.75 -50.6 -27.75 -50.6 -25.3 -46.55 -25.3 -44.85 -27.3 -44.5 -27.1 -42.1 -24.95 -42.2 -24.7 -42.3 -24.65 -61.85 -24.65 Q-62.15 -24.65 -62.15 -25.0 L-61.85 -25.3 -54.05 -25.3 -54.05 -27.75 -60.05 -27.75 Q-60.35 -27.75 -60.35 -28.1 L-60.05 -28.35 -54.05 -28.35 -54.05 -30.85 -61.45 -30.85 -61.7 -31.2 -61.45 -31.45 -56.15 -31.45 Q-56.65 -32.0 -56.75 -32.75 -56.95 -34.4 -57.65 -35.1 L-57.75 -35.3 -57.5 -35.4 -55.35 -35.2 M-35.35 -29.85 L-30.1 -29.85 -30.1 -34.9 -30.05 -35.2 -29.8 -35.25 -26.9 -35.05 -26.25 -34.85 Q-25.8 -34.45 -26.35 -34.0 L-26.65 -33.4 -26.65 -29.85 -22.1 -29.85 -20.4 -31.85 -20.05 -31.7 -17.65 -29.55 -17.75 -29.25 -26.45 -29.25 Q-25.75 -26.75 -23.7 -24.65 -21.15 -22.0 -17.65 -20.8 L-17.35 -20.55 -17.65 -20.2 Q-18.75 -19.7 -19.65 -17.05 -19.85 -16.45 -19.95 -16.4 L-20.5 -16.7 Q-23.4 -18.9 -24.7 -21.45 -26.05 -23.8 -26.65 -28.05 L-26.65 -15.45 Q-26.7 -14.65 -27.0 -14.5 L-28.35 -14.3 -29.8 -14.45 Q-30.1 -14.65 -30.1 -15.45 L-30.1 -22.8 Q-31.3 -21.05 -32.9 -19.7 L-35.35 -17.95 -35.35 -18.2 Q-37.35 -16.95 -39.3 -16.25 L-39.95 -16.05 Q-37.4 -17.85 -35.35 -20.6 L-35.35 -20.35 Q-34.0 -22.2 -32.9 -24.45 -31.9 -26.7 -31.35 -29.25 L-35.35 -29.25 -35.35 -29.5 -37.85 -29.5 -38.05 -29.65 -37.85 -29.85 -35.35 -29.85 -37.85 -29.85 -38.05 -29.65 -38.1 -29.8 -37.85 -30.1 -35.35 -30.1 -35.35 -29.85 M-10.65 -35.25 L-10.35 -35.35 Q-8.75 -35.45 -7.3 -34.8 -5.85 -34.15 -5.55 -33.4 -5.25 -32.6 -5.45 -32.0 -5.7 -31.4 -6.25 -31.1 L-7.4 -30.95 Q-8.0 -31.15 -8.25 -31.85 L-9.2 -33.7 Q-9.85 -34.7 -10.55 -35.0 L-10.65 -35.25 M-39.3 -16.25 Q-37.1 -17.95 -35.35 -20.35 -37.1 -17.95 -39.3 -16.25 M-25.25 -34.9 L-23.1 -34.65 Q-22.0 -34.3 -21.55 -33.75 -21.15 -33.25 -21.15 -32.6 -21.1 -31.9 -21.4 -31.5 -21.85 -30.95 -22.4 -30.85 L-23.45 -31.1 -24.05 -32.15 Q-24.5 -33.9 -25.4 -34.6 L-25.45 -34.75 -25.25 -34.9 M-11.45 -21.75 L-11.3 -21.95 -11.05 -21.8 Q-10.0 -19.2 -10.65 -17.2 -10.95 -16.2 -11.75 -15.7 -12.5 -15.25 -13.3 -15.35 -14.1 -15.45 -14.4 -15.95 -15.35 -17.45 -13.6 -18.55 -11.65 -20.0 -11.45 -21.75 M-0.85 -20.7 Q-0.85 -20.0 -1.2 -19.55 -1.7 -19.0 -2.25 -18.9 -2.95 -18.8 -3.4 -19.25 -3.85 -19.7 -4.0 -20.4 L-4.6 -22.35 Q-4.85 -23.0 -5.65 -23.6 L-5.7 -23.75 -5.5 -23.9 Q-4.15 -23.8 -2.95 -23.3 -1.7 -22.7 -1.25 -21.95 -0.85 -21.45 -0.85 -20.7" fill="#000000" fill-rule="evenodd" stroke="none"/>
    <path d="M10.2 57.55 L9.35 58.05 7.95 58.25 Q6.4 58.25 5.7 57.7 5.05 57.15 5.05 56.3 L5.05 56.1 6.95 56.35 7.15 56.8 7.9 56.95 8.85 56.75 9.2 56.35 9.25 55.6 9.25 54.7 Q8.55 55.7 7.4 55.7 6.15 55.7 5.4 54.65 4.85 53.8 4.85 52.55 4.85 51.0 5.6 50.15 6.35 49.35 7.45 49.35 8.6 49.35 9.35 50.35 L9.35 49.5 10.9 49.5 10.9 55.05 10.75 56.7 10.2 57.55 M8.9 51.05 Q8.5 50.6 7.9 50.6 7.3 50.6 6.9 51.05 6.55 51.5 6.55 52.45 6.55 53.45 6.9 53.9 7.3 54.35 7.85 54.35 8.45 54.35 8.9 53.9 9.3 53.45 9.3 52.5 9.3 51.55 8.9 51.05 M1.1 50.05 L1.45 50.75 1.5 51.85 1.5 55.7 -0.1 55.7 -0.1 52.5 Q-0.1 51.5 -0.25 51.2 L-0.55 50.75 -1.15 50.6 -1.9 50.85 -2.35 51.45 -2.5 52.9 -2.5 55.7 -4.15 55.7 -4.15 49.5 -2.6 49.5 -2.6 50.4 Q-1.8 49.35 -0.55 49.35 L0.45 49.55 1.1 50.05 M-9.2 23.55 Q-7.5 23.55 -7.65 25.1 L-7.65 27.05 Q-7.5 28.75 -9.25 28.6 L-10.95 28.6 -10.95 29.6 -8.4 29.6 Q-6.7 29.6 -6.8 31.15 L-6.8 33.65 Q-6.7 35.35 -8.4 35.2 L-10.95 35.2 -10.95 37.6 -8.0 37.35 -9.1 35.95 Q-9.25 35.0 -8.15 35.3 -6.55 37.45 -5.85 39.15 -6.05 40.1 -7.0 39.55 L-7.55 38.5 -16.4 39.2 Q-17.25 38.8 -16.45 38.05 L-12.15 37.75 -12.15 35.2 -14.45 35.2 Q-16.3 35.35 -16.3 33.65 L-16.3 31.3 Q-16.3 29.6 -14.6 29.6 L-12.15 29.6 -12.15 28.6 -14.15 28.6 Q-15.75 28.75 -15.75 27.05 L-15.75 25.1 Q-15.75 23.55 -14.15 23.55 L-9.2 23.55 M-37.1 23.45 L-36.55 25.2 -33.35 25.2 Q-32.65 25.8 -33.35 26.4 L-41.45 26.4 Q-42.1 25.8 -41.45 25.2 L-37.85 25.2 -38.25 24.05 Q-38.1 23.0 -37.1 23.45 M-25.9 30.4 L-27.4 30.4 -27.4 39.65 Q-28.0 40.1 -28.6 39.65 L-28.6 30.4 -31.3 30.4 -31.3 32.65 Q-31.15 37.15 -33.3 39.75 -34.4 40.05 -34.25 38.95 -32.35 36.75 -32.45 32.3 L-32.45 29.8 Q-32.45 30.1 -32.8 30.4 L-36.8 30.4 -36.8 31.95 -33.6 31.95 Q-32.95 32.55 -33.6 33.15 L-36.8 33.15 -36.8 38.45 Q-36.55 40.1 -40.45 39.45 -40.75 38.5 -39.85 38.3 L-38.0 38.35 -38.0 33.15 -41.75 33.15 Q-42.4 32.55 -41.75 31.95 L-38.0 31.95 -38.0 30.4 -41.7 30.4 Q-42.55 29.8 -41.7 29.2 L-39.35 29.2 -40.2 27.35 Q-40.2 26.45 -39.2 26.75 L-38.1 29.2 -36.8 29.2 Q-35.75 27.65 -35.45 26.75 -34.65 26.45 -34.45 27.35 -35.05 28.65 -35.55 29.2 L-32.8 29.2 Q-32.45 29.5 -32.45 29.8 L-32.45 26.05 Q-32.45 24.8 -31.05 24.8 L-26.65 23.95 Q-25.75 24.15 -26.25 25.1 -28.4 25.85 -30.9 25.95 -31.3 25.95 -31.3 26.35 L-31.3 29.2 -25.9 29.2 Q-25.2 29.8 -25.9 30.4 M-20.6 31.7 Q-20.6 32.5 -20.0 32.35 L-18.3 32.35 Q-16.6 32.35 -16.75 33.9 L-16.75 37.35 Q-16.9 39.75 -19.3 39.6 L-22.05 38.9 Q-22.35 37.9 -21.45 37.9 -17.8 39.4 -17.95 37.25 L-17.95 34.2 Q-17.8 33.55 -18.6 33.55 L-20.25 33.55 Q-21.8 33.7 -21.8 32.0 L-21.8 29.5 Q-21.8 27.95 -20.25 27.95 L-18.85 27.95 Q-18.05 28.1 -18.2 27.35 L-18.2 25.4 Q-18.2 24.75 -18.85 24.75 L-21.7 24.75 Q-22.35 24.15 -21.7 23.55 L-18.6 23.55 Q-16.9 23.55 -17.0 25.1 L-17.0 27.6 Q-16.9 29.3 -18.6 29.15 L-19.95 29.15 Q-20.6 29.15 -20.6 29.8 L-20.6 31.7 M-38.6 34.35 Q-39.45 36.35 -40.75 38.35 -42.0 38.65 -41.7 37.55 -40.6 35.9 -39.75 33.95 -38.95 33.45 -38.6 34.35 M-35.45 33.8 Q-34.6 35.5 -33.9 37.65 -34.3 38.5 -35.05 38.05 L-36.45 34.4 Q-36.6 33.45 -35.45 33.8 M-21.85 47.1 L-21.85 55.7 -23.5 55.7 -23.5 47.1 -21.85 47.1 M-8.85 25.35 Q-8.7 24.75 -9.5 24.75 L-13.9 24.75 Q-14.55 24.75 -14.55 25.4 L-14.55 26.75 Q-14.55 27.55 -13.9 27.4 L-9.5 27.4 Q-8.7 27.55 -8.85 26.8 L-8.85 25.35 M-8.0 31.4 Q-7.85 30.8 -8.65 30.8 L-10.95 30.8 -10.95 34.05 -8.65 34.05 Q-7.85 34.15 -8.0 33.4 L-8.0 31.4 M-14.45 30.8 Q-15.1 30.8 -15.1 31.45 L-15.1 33.4 Q-15.1 34.15 -14.3 34.05 L-12.15 34.05 -12.15 30.8 -14.45 30.8 M-18.15 47.1 L-16.5 47.1 -16.5 48.65 -18.15 48.65 -18.15 47.1 M-59.6 23.55 Q-58.0 24.7 -57.0 25.7 -56.7 26.8 -57.8 26.65 L-60.35 24.55 Q-60.8 23.4 -59.6 23.55 M-50.0 23.7 Q-47.9 23.7 -48.0 25.65 -47.9 30.55 -49.05 31.45 L-52.75 31.6 Q-53.35 30.45 -52.15 30.45 -50.95 31.4 -49.85 30.45 -49.1 29.85 -49.2 25.8 -49.1 24.85 -50.15 24.85 L-51.6 24.85 Q-51.9 29.6 -56.3 32.3 -57.35 32.15 -56.75 31.15 -53.2 29.0 -52.8 24.85 L-55.7 24.85 Q-56.4 24.3 -55.7 23.7 L-50.0 23.7 M-61.3 26.15 L-58.15 28.0 Q-57.55 29.0 -58.75 29.0 L-61.7 27.3 Q-62.3 26.35 -61.3 26.15 M-61.25 33.35 L-54.45 33.35 -54.45 31.5 -53.25 31.55 -53.25 33.35 -46.5 33.35 Q-45.7 33.95 -46.5 34.5 L-52.85 34.5 Q-50.3 36.55 -46.05 38.05 -45.25 38.8 -46.3 39.2 -50.8 37.65 -53.25 35.2 L-53.25 39.95 -54.45 39.95 -54.45 35.2 Q-56.5 37.55 -61.3 38.95 -62.3 38.55 -61.5 37.75 -57.1 36.4 -54.85 34.5 L-61.25 34.5 Q-61.9 33.95 -61.25 33.35 M-62.0 31.6 Q-59.05 30.2 -57.4 28.8 -56.45 28.65 -56.6 29.6 -58.6 31.3 -61.55 32.6 -62.45 32.4 -62.0 31.6 M-45.8 30.1 Q-46.2 30.95 -47.0 30.3 L-47.85 26.75 Q-47.45 25.75 -46.65 26.4 L-45.8 30.1 M-55.65 29.1 Q-56.65 29.4 -56.65 28.5 -55.7 27.25 -55.25 25.7 -54.45 25.2 -54.25 26.05 -54.5 27.5 -55.65 29.1 M-57.8 47.1 L-54.4 55.7 -56.25 55.7 -57.0 53.75 -60.45 53.75 -61.15 55.7 -63.0 55.7 -59.65 47.1 -57.8 47.1 M-49.85 47.1 L-49.85 55.7 -51.5 55.7 -51.5 47.1 -49.85 47.1 M-42.8 50.95 Q-43.15 50.6 -43.65 50.6 -44.2 50.6 -44.55 51.0 -44.9 51.4 -44.9 52.05 L-42.45 52.05 Q-42.45 51.35 -42.8 50.95 M-43.6 54.6 L-42.95 54.4 -42.55 53.7 -40.9 54.0 Q-41.2 54.9 -41.9 55.35 -42.6 55.85 -43.6 55.85 -45.2 55.85 -46.0 54.8 -46.6 53.95 -46.6 52.65 -46.6 51.1 -45.8 50.2 -45.0 49.35 -43.75 49.35 -42.4 49.35 -41.55 50.25 -40.75 51.15 -40.8 53.05 L-44.95 53.05 -44.55 54.2 Q-44.15 54.6 -43.6 54.6 M-57.55 52.3 L-58.75 49.1 -59.9 52.3 -57.55 52.3 M-7.75 51.75 L-7.75 53.65 -7.65 54.85 -7.4 55.7 -9.0 55.7 -9.15 55.2 -9.25 55.0 Q-9.65 55.45 -10.15 55.65 L-11.15 55.85 Q-12.1 55.85 -12.65 55.3 -13.2 54.8 -13.2 54.0 L-12.95 53.05 -12.25 52.45 -10.95 52.05 -9.35 51.65 -9.35 51.5 Q-9.35 51.0 -9.6 50.8 L-10.45 50.6 -11.15 50.75 -11.55 51.4 -13.05 51.1 Q-12.8 50.2 -12.2 49.75 L-10.35 49.35 -8.7 49.6 Q-8.2 49.85 -7.95 50.25 L-7.75 51.75 M-9.35 53.05 L-9.35 52.7 -10.35 52.95 -11.25 53.25 Q-11.6 53.5 -11.6 53.85 L-11.3 54.45 -10.65 54.7 -9.8 54.4 -9.4 53.85 -9.35 53.05 M-16.5 49.5 L-16.5 55.7 -18.15 55.7 -18.15 49.5 -16.5 49.5 M-27.2 55.7 L-28.85 55.7 -28.85 54.05 -27.2 54.05 -27.2 55.7 M-33.9 49.5 L-32.0 49.5 -34.1 52.4 -31.8 55.7 -33.8 55.7 -35.05 53.75 -36.35 55.7 -38.3 55.7 -36.05 52.5 -38.2 49.5 -36.2 49.5 -35.05 51.2 -33.9 49.5" fill="#fabd05" fill-rule="evenodd" stroke="none"/>
    <path d="M4.3 -1.85 L4.5 -2.4 4.2 -3.1 3.15 -3.35 1.9 -3.35 1.9 -1.45 3.1 -1.45 3.85 -1.55 4.3 -1.85 M6.15 -0.4 Q5.8 -0.15 5.15 0.0 L5.9 0.35 6.35 0.8 6.75 1.4 8.15 4.1 4.9 4.1 3.35 1.25 2.85 0.55 Q2.55 0.3 2.15 0.3 L1.9 0.3 1.9 4.1 -1.0 4.1 -1.0 -5.2 3.8 -5.2 5.8 -5.0 6.95 -4.15 7.4 -2.6 Q7.4 -1.85 7.05 -1.3 L6.15 -0.4 M18.4 -1.75 L18.4 0.15 13.95 0.15 13.95 2.0 18.9 2.0 18.9 4.1 11.05 4.1 11.05 -5.2 18.75 -5.2 18.75 -3.2 13.95 -3.2 13.95 -1.75 18.4 -1.75 M23.35 -4.15 Q24.55 -5.35 26.8 -5.35 28.6 -5.35 29.6 -4.65 30.6 -3.95 31.1 -2.45 L28.55 -1.9 28.25 -2.55 27.65 -3.05 26.9 -3.2 Q25.9 -3.2 25.4 -2.45 25.0 -1.85 25.0 -0.6 25.0 0.95 25.45 1.55 25.95 2.1 26.8 2.1 27.6 2.1 28.05 1.65 28.45 1.15 28.65 0.3 L31.15 1.05 30.35 2.8 29.0 3.9 26.95 4.25 24.5 3.8 Q23.5 3.4 22.8 2.25 22.1 1.15 22.1 -0.55 22.1 -2.9 23.35 -4.15 M33.9 -2.9 L33.9 -5.2 42.65 -5.2 42.65 -2.9 39.7 -2.9 39.7 4.1 36.85 4.1 36.85 -2.9 33.9 -2.9 M48.0 -0.55 Q48.0 0.9 48.55 1.5 49.05 2.1 49.95 2.1 50.9 2.1 51.4 1.5 51.9 0.9 51.9 -0.65 51.9 -1.95 51.4 -2.6 50.85 -3.2 49.95 -3.2 49.05 -3.2 48.55 -2.55 48.0 -1.95 48.0 -0.55 M49.95 -5.35 Q52.25 -5.35 53.55 -4.1 54.8 -2.85 54.8 -0.6 54.8 1.0 54.25 2.05 53.7 3.1 52.65 3.7 51.6 4.25 50.05 4.25 L47.45 3.75 Q46.4 3.25 45.8 2.15 45.15 1.1 45.15 -0.55 45.15 -2.85 46.4 -4.1 47.7 -5.35 49.95 -5.35 M61.3 -3.35 L61.3 -1.45 62.5 -1.45 63.25 -1.55 63.7 -1.85 63.9 -2.4 63.6 -3.1 62.55 -3.35 61.3 -3.35 M65.2 -5.0 L66.35 -4.15 66.8 -2.6 Q66.8 -1.85 66.45 -1.3 L65.55 -0.4 Q65.2 -0.15 64.55 0.0 L65.3 0.35 65.75 0.8 66.15 1.4 67.55 4.1 64.3 4.1 62.75 1.25 62.25 0.55 61.55 0.3 61.3 0.3 61.3 4.1 58.4 4.1 58.4 -5.2 63.2 -5.2 65.2 -5.0 M-56.35 -5.2 L-52.85 4.1 -55.85 4.1 -56.35 2.55 -59.6 2.55 -60.05 4.1 -63.0 4.1 -59.5 -5.2 -56.35 -5.2 M-47.0 -1.45 L-45.8 -1.45 -45.05 -1.55 -44.6 -1.85 -44.4 -2.4 Q-44.4 -2.85 -44.7 -3.1 L-45.75 -3.35 -47.0 -3.35 -47.0 -1.45 M-41.95 -4.15 Q-41.5 -3.5 -41.5 -2.6 -41.5 -1.85 -41.85 -1.3 -42.15 -0.7 -42.75 -0.4 -43.1 -0.15 -43.75 0.0 L-43.0 0.35 -42.55 0.8 -42.15 1.4 -40.75 4.1 -44.0 4.1 -45.55 1.25 -46.05 0.55 Q-46.35 0.3 -46.75 0.3 L-47.0 0.3 -47.0 4.1 -49.9 4.1 -49.9 -5.2 -45.1 -5.2 -43.1 -5.0 -41.95 -4.15 M-38.6 -2.9 L-38.6 -5.2 -29.85 -5.2 -29.85 -2.9 -32.8 -2.9 -32.8 4.1 -35.65 4.1 -35.65 -2.9 -38.6 -2.9 M-15.9 -5.2 L-13.85 -4.85 -12.55 -3.9 Q-12.05 -3.25 -11.85 -2.4 L-11.6 -0.6 Q-11.6 0.9 -11.95 1.75 L-12.9 3.1 Q-13.5 3.65 -14.15 3.85 L-15.9 4.1 -20.15 4.1 -20.15 -5.2 -15.9 -5.2 M-14.95 -2.55 Q-15.45 -3.1 -16.55 -3.1 L-17.3 -3.1 -17.3 2.0 -16.6 2.0 -15.3 1.8 -14.7 1.1 -14.5 -0.55 Q-14.5 -2.0 -14.95 -2.55 M-5.1 -5.2 L-5.1 4.1 -8.0 4.1 -8.0 -5.2 -5.1 -5.2 M-56.95 0.55 L-57.95 -2.8 -58.95 0.55 -56.95 0.55" fill="#e7f902" fill-rule="evenodd" stroke="none"/>
    <path d="M26.75 -33.4 L25.1 -31.45 23.55 -31.45 24.25 -33.05 24.9 -33.9 25.2 -34.4 Q25.2 -34.75 24.35 -34.8 L21.0 -35.1 20.6 -35.05 20.5 -34.65 Q20.45 -31.1 18.75 -27.2 L18.75 -33.3 Q18.7 -33.65 19.0 -33.9 19.6 -34.35 19.1 -34.75 L18.45 -34.95 15.6 -35.2 15.35 -35.1 15.25 -34.8 15.25 -24.55 Q15.25 -23.75 15.6 -23.55 L17.0 -23.4 18.4 -23.6 Q18.7 -23.75 18.75 -24.55 L18.75 -25.4 Q21.55 -27.7 23.25 -30.85 L29.45 -30.85 29.55 -30.9 29.65 -31.15 27.15 -33.2 26.75 -33.4 M24.55 -26.2 Q24.55 -25.5 25.3 -24.85 25.8 -24.4 26.55 -24.6 27.15 -24.7 27.65 -25.35 28.0 -25.8 27.95 -26.6 27.85 -27.35 27.4 -27.9 26.9 -28.6 25.6 -29.0 L23.0 -29.35 22.75 -29.2 22.85 -29.0 Q23.95 -28.2 24.55 -26.2 M1.1 -31.75 L0.05 -30.7 -1.7 -30.7 1.6 -33.5 2.25 -33.6 Q2.55 -33.65 2.7 -33.85 L2.65 -34.35 -1.1 -35.35 -1.45 -35.05 Q-1.85 -33.45 -3.3 -30.7 L-8.7 -30.7 -11.95 -32.0 -12.15 -32.05 -12.25 -31.8 -12.25 -24.35 Q-12.25 -23.6 -11.95 -23.35 L-10.55 -23.2 -9.05 -23.45 Q-8.8 -23.65 -8.8 -24.35 L0.15 -24.35 0.15 -24.05 Q0.15 -23.6 0.4 -23.4 L2.0 -23.25 Q3.15 -23.25 3.45 -23.55 L3.65 -24.0 3.65 -28.75 Q3.65 -29.25 4.0 -29.4 5.0 -29.85 4.0 -30.45 L1.8 -31.75 1.4 -31.9 1.1 -31.75 M0.15 -24.95 L-8.8 -24.95 -8.8 -30.1 0.15 -30.1 0.15 -24.95 M14.0 -33.85 L11.15 -34.05 10.85 -34.0 10.8 -33.7 10.8 -25.4 Q10.8 -24.65 11.15 -24.4 L12.55 -24.25 13.95 -24.45 Q14.2 -24.6 14.25 -25.4 L14.25 -32.2 Q14.25 -32.55 14.55 -32.75 15.1 -33.2 14.65 -33.65 L14.0 -33.85 M20.1 -22.0 L20.1 -15.4 19.25 -15.4 19.25 -22.0 20.1 -22.0 M12.05 -23.3 L11.65 -23.3 11.55 -22.85 11.55 -15.4 10.15 -15.4 Q9.85 -15.4 9.85 -15.1 9.85 -14.8 10.15 -14.8 L30.0 -14.8 30.1 -14.9 29.3 -16.55 28.95 -17.1 28.7 -17.2 27.65 -15.7 27.65 -20.75 Q27.65 -21.1 28.15 -21.3 28.7 -21.6 28.7 -21.95 L28.35 -22.5 25.65 -24.2 25.5 -24.3 25.3 -24.2 23.95 -22.6 14.9 -22.6 12.05 -23.3 M15.95 -15.4 L15.05 -15.4 15.05 -22.0 15.95 -22.0 15.95 -15.4 M1.85 -21.95 L1.9 -21.75 Q2.95 -20.6 3.2 -18.6 3.3 -16.75 3.65 -16.3 4.05 -15.8 4.8 -15.7 5.45 -15.7 6.05 -16.2 6.5 -16.55 6.65 -17.35 6.75 -18.1 6.45 -18.7 6.1 -19.7 4.85 -20.7 3.65 -21.6 2.1 -22.05 L1.85 -21.95 M1.05 -20.75 L0.9 -21.0 0.65 -20.8 Q0.0 -18.25 -0.5 -17.95 -1.2 -17.6 -2.3 -17.6 L-4.3 -17.6 -6.0 -17.75 -6.25 -18.35 -6.25 -21.25 -6.05 -21.55 Q-5.15 -21.85 -5.55 -22.45 L-6.4 -22.7 -9.25 -22.9 -9.6 -22.8 -9.75 -22.4 -9.75 -16.1 -9.45 -15.0 Q-8.8 -14.2 -5.85 -14.4 L-2.15 -14.4 Q0.65 -14.35 1.7 -15.45 2.25 -15.9 2.4 -16.7 L2.4 -17.9 1.65 -18.6 1.25 -19.1 Q1.05 -19.45 1.05 -20.75 M24.2 -22.0 L24.2 -15.4 23.35 -15.4 23.35 -22.0 24.2 -22.0 M-55.35 -35.2 L-57.5 -35.4 -57.75 -35.3 -57.65 -35.1 Q-56.95 -34.4 -56.75 -32.75 -56.65 -32.0 -56.15 -31.45 L-61.45 -31.45 -61.7 -31.2 -61.45 -30.85 -54.05 -30.85 -54.05 -28.35 -60.05 -28.35 -60.35 -28.1 Q-60.35 -27.75 -60.05 -27.75 L-54.05 -27.75 -54.05 -25.3 -61.85 -25.3 -62.15 -25.0 Q-62.15 -24.65 -61.85 -24.65 L-42.3 -24.65 -42.2 -24.7 -42.1 -24.95 -44.5 -27.1 -44.85 -27.3 -46.55 -25.3 -50.6 -25.3 -50.6 -27.75 -44.1 -27.75 -44.0 -27.8 -43.9 -28.05 -46.25 -30.15 -46.6 -30.3 -48.2 -28.35 -50.6 -28.35 -50.6 -30.85 -42.9 -30.85 -42.8 -30.9 -42.7 -31.15 -45.05 -33.25 -45.4 -33.4 -47.0 -31.45 -49.3 -31.45 -46.95 -33.55 -46.3 -33.8 -45.85 -34.15 Q-45.75 -34.35 -46.0 -34.6 L-50.0 -35.05 Q-50.3 -35.05 -50.25 -34.7 -50.25 -33.55 -50.8 -31.45 L-54.15 -31.45 Q-53.45 -32.15 -53.4 -33.0 -53.35 -33.7 -53.8 -34.3 -54.25 -34.9 -55.35 -35.2 M-61.6 -21.65 L-61.35 -21.3 -54.75 -21.3 Q-55.55 -18.2 -58.1 -16.4 -59.7 -15.15 -62.3 -14.6 L-62.5 -14.35 -62.15 -14.15 Q-57.8 -14.55 -55.65 -15.55 -53.65 -16.45 -52.3 -18.25 -51.75 -19.0 -51.35 -20.0 -49.85 -15.65 -44.6 -14.25 L-44.05 -14.2 -43.8 -14.8 Q-43.3 -17.05 -42.15 -17.45 -41.8 -17.5 -41.8 -17.8 -41.85 -18.0 -42.35 -18.0 -47.9 -18.55 -50.4 -21.05 L-50.65 -21.3 -43.15 -21.3 -43.05 -21.35 -43.0 -21.6 -45.3 -23.75 -45.65 -23.9 -47.25 -21.9 -50.8 -21.9 -50.7 -22.95 -50.35 -23.45 Q-49.9 -23.65 -50.0 -24.0 -50.0 -24.25 -51.0 -24.3 L-53.85 -24.45 -54.25 -24.35 -54.35 -24.0 Q-54.4 -22.9 -54.6 -21.9 L-61.35 -21.9 -61.6 -21.65 M-10.65 -35.25 L-10.55 -35.0 Q-9.85 -34.7 -9.2 -33.7 L-8.25 -31.85 Q-8.0 -31.15 -7.4 -30.95 L-6.25 -31.1 Q-5.7 -31.4 -5.45 -32.0 -5.25 -32.6 -5.55 -33.4 -5.85 -34.15 -7.3 -34.8 -8.75 -35.45 -10.35 -35.35 L-10.65 -35.25 M-35.35 -17.95 L-32.9 -19.7 Q-31.3 -21.05 -30.1 -22.8 L-30.1 -15.45 Q-30.1 -14.65 -29.8 -14.45 L-28.35 -14.3 -27.0 -14.5 Q-26.7 -14.65 -26.65 -15.45 L-26.65 -28.05 Q-26.05 -23.8 -24.7 -21.45 -23.4 -18.9 -20.5 -16.7 L-19.95 -16.4 Q-19.85 -16.45 -19.65 -17.05 -18.75 -19.7 -17.65 -20.2 L-17.35 -20.55 -17.65 -20.8 Q-21.15 -22.0 -23.7 -24.65 -25.75 -26.75 -26.45 -29.25 L-17.75 -29.25 -17.65 -29.55 -20.05 -31.7 -20.4 -31.85 -22.1 -29.85 -26.65 -29.85 -26.65 -33.4 -26.35 -34.0 Q-25.8 -34.45 -26.25 -34.85 L-26.9 -35.05 -29.8 -35.25 -30.05 -35.2 -30.1 -34.9 -30.1 -29.85 -35.35 -29.85 -37.85 -29.85 -38.05 -29.65 M-35.35 -29.25 L-31.35 -29.25 Q-31.9 -26.7 -32.9 -24.45 -34.0 -22.2 -35.35 -20.35 -37.1 -17.95 -39.3 -16.25 M-35.35 -17.95 Q-37.65 -16.5 -39.95 -15.8 L-39.3 -16.25 M-35.35 -29.25 L-37.85 -29.25 Q-38.1 -29.25 -38.1 -29.55 L-38.05 -29.65 M-25.25 -34.9 L-25.45 -34.75 -25.4 -34.6 Q-24.5 -33.9 -24.05 -32.15 L-23.45 -31.1 -22.4 -30.85 Q-21.85 -30.95 -21.4 -31.5 -21.1 -31.9 -21.15 -32.6 -21.15 -33.25 -21.55 -33.75 -22.0 -34.3 -23.1 -34.65 L-25.25 -34.9 M-0.85 -20.7 Q-0.85 -21.45 -1.25 -21.95 -1.7 -22.7 -2.95 -23.3 -4.15 -23.8 -5.5 -23.9 L-5.7 -23.75 -5.65 -23.6 Q-4.85 -23.0 -4.6 -22.35 L-4.0 -20.4 Q-3.85 -19.7 -3.4 -19.25 -2.95 -18.8 -2.25 -18.9 -1.7 -19.0 -1.2 -19.55 -0.85 -20.0 -0.85 -20.7 M-11.45 -21.75 Q-11.65 -20.0 -13.6 -18.55 -15.35 -17.45 -14.4 -15.95 -14.1 -15.45 -13.3 -15.35 -12.5 -15.25 -11.75 -15.7 -10.95 -16.2 -10.65 -17.2 -10.0 -19.2 -11.05 -21.8 L-11.3 -21.95 -11.45 -21.75" fill="none" stroke="#000000" stroke-linecap="round" stroke-linejoin="round" stroke-width="3.5"/>
    <path d="M-11.3 -21.95 L-11.05 -21.8 Q-10.0 -19.2 -10.65 -17.2 -10.95 -16.2 -11.75 -15.7 -12.5 -15.25 -13.3 -15.35 -14.1 -15.45 -14.4 -15.95 -15.35 -17.45 -13.6 -18.55 -11.65 -20.0 -11.45 -21.75 L-11.3 -21.95 M-2.95 -23.3 Q-1.7 -22.7 -1.25 -21.95 -0.85 -21.45 -0.85 -20.7 -0.85 -20.0 -1.2 -19.55 -1.7 -19.0 -2.25 -18.9 -2.95 -18.8 -3.4 -19.25 -3.85 -19.7 -4.0 -20.4 L-4.6 -22.35 Q-4.85 -23.0 -5.65 -23.6 L-5.7 -23.75 -5.5 -23.9 Q-4.15 -23.8 -2.95 -23.3 M-25.2 -34.9 L-23.05 -34.65 Q-21.95 -34.3 -21.5 -33.75 -21.1 -33.25 -21.1 -32.6 -21.05 -31.9 -21.35 -31.5 -21.8 -30.95 -22.35 -30.85 -22.95 -30.75 -23.4 -31.1 -23.85 -31.5 -24.0 -32.15 -24.45 -33.9 -25.35 -34.6 L-25.4 -34.75 -25.2 -34.9 M-10.55 -35.0 L-10.65 -35.25 -10.35 -35.35 Q-8.75 -35.45 -7.3 -34.8 -5.85 -34.15 -5.55 -33.4 -5.25 -32.6 -5.45 -32.0 -5.7 -31.4 -6.25 -31.1 L-7.4 -30.95 Q-8.0 -31.15 -8.25 -31.85 L-9.2 -33.7 Q-9.85 -34.7 -10.55 -35.0 M-20.0 -31.7 L-17.6 -29.55 -17.7 -29.25 -26.4 -29.25 Q-25.7 -26.75 -23.65 -24.65 -21.1 -22.0 -17.6 -20.8 L-17.3 -20.55 -17.6 -20.2 Q-18.7 -19.7 -19.6 -17.05 L-19.9 -16.4 Q-20.05 -16.35 -20.45 -16.7 -23.35 -18.9 -24.65 -21.45 -26.0 -23.8 -26.6 -28.05 L-26.6 -15.45 Q-26.65 -14.65 -26.95 -14.5 L-28.3 -14.3 -29.75 -14.45 Q-30.05 -14.65 -30.05 -15.45 L-30.05 -22.8 Q-31.55 -20.65 -33.6 -19.1 -34.75 -18.25 -38.35 -16.3 L-38.65 -16.35 -38.55 -16.65 Q-33.05 -21.45 -31.3 -29.25 L-37.8 -29.25 Q-38.05 -29.25 -38.05 -29.55 L-37.8 -29.85 -30.05 -29.85 -30.05 -34.9 -30.0 -35.2 -29.75 -35.25 -26.85 -35.05 -26.2 -34.85 Q-25.75 -34.45 -26.3 -34.0 L-26.6 -33.4 -26.6 -29.85 -22.05 -29.85 -20.35 -31.85 -20.0 -31.7 M-62.15 -14.15 L-62.5 -14.35 -62.3 -14.6 Q-59.7 -15.15 -58.1 -16.4 -55.55 -18.2 -54.75 -21.3 L-61.35 -21.3 -61.6 -21.65 -61.35 -21.9 -54.6 -21.9 Q-54.4 -22.9 -54.35 -24.0 L-54.25 -24.35 -53.85 -24.45 -51.0 -24.3 Q-50.0 -24.25 -50.0 -24.0 -49.9 -23.65 -50.35 -23.45 L-50.7 -22.95 -50.8 -21.9 -47.25 -21.9 -45.65 -23.9 -45.3 -23.75 -43.0 -21.6 -43.05 -21.35 -43.15 -21.3 -50.65 -21.3 -50.4 -21.05 Q-47.9 -18.55 -42.35 -18.0 -41.85 -18.0 -41.8 -17.8 -41.8 -17.5 -42.15 -17.45 -43.3 -17.05 -43.8 -14.8 L-44.05 -14.2 -44.6 -14.25 Q-49.85 -15.65 -51.35 -20.0 -51.75 -19.0 -52.3 -18.25 -53.65 -16.45 -55.65 -15.55 -57.8 -14.55 -62.15 -14.15 M-54.15 -31.45 L-50.8 -31.45 Q-50.25 -33.55 -50.25 -34.7 -50.3 -35.05 -50.0 -35.05 L-46.0 -34.6 Q-45.75 -34.35 -45.85 -34.15 L-46.3 -33.8 -46.95 -33.55 -49.3 -31.45 -47.0 -31.45 -45.4 -33.4 -45.05 -33.25 -42.7 -31.15 -42.8 -30.9 -42.9 -30.85 -50.6 -30.85 -50.6 -28.35 -48.2 -28.35 -46.6 -30.3 -46.25 -30.15 -43.9 -28.05 -44.0 -27.8 -44.1 -27.75 -50.6 -27.75 -50.6 -25.3 -46.55 -25.3 -44.85 -27.3 -44.5 -27.1 -42.1 -24.95 -42.2 -24.7 -42.3 -24.65 -61.85 -24.65 Q-62.15 -24.65 -62.15 -25.0 L-61.85 -25.3 -54.05 -25.3 -54.05 -27.75 -60.05 -27.75 Q-60.35 -27.75 -60.35 -28.1 L-60.05 -28.35 -54.05 -28.35 -54.05 -30.85 -61.45 -30.85 -61.7 -31.2 -61.45 -31.45 -56.15 -31.45 Q-56.65 -32.0 -56.75 -32.75 -56.95 -34.4 -57.65 -35.1 L-57.75 -35.3 -57.5 -35.4 -55.35 -35.2 Q-54.25 -34.9 -53.8 -34.3 -53.35 -33.7 -53.4 -33.0 -53.45 -32.15 -54.15 -31.45 M24.2 -22.0 L23.35 -22.0 23.35 -15.4 24.2 -15.4 24.2 -22.0 M1.05 -20.75 Q1.05 -19.45 1.25 -19.1 L1.65 -18.6 2.4 -17.9 2.4 -16.7 Q2.25 -15.9 1.7 -15.45 0.65 -14.35 -2.15 -14.4 L-5.85 -14.4 Q-8.8 -14.2 -9.45 -15.0 L-9.75 -16.1 -9.75 -22.4 -9.6 -22.8 -9.25 -22.9 -6.4 -22.7 -5.55 -22.45 Q-5.15 -21.85 -6.05 -21.55 L-6.25 -21.25 -6.25 -18.35 -6.0 -17.75 -4.3 -17.6 -2.3 -17.6 Q-1.2 -17.6 -0.5 -17.95 0.0 -18.25 0.65 -20.8 L0.9 -21.0 1.05 -20.75 M1.9 -21.75 L1.85 -21.95 2.1 -22.05 Q3.65 -21.6 4.85 -20.7 6.1 -19.7 6.45 -18.7 6.75 -18.1 6.65 -17.35 6.5 -16.55 6.05 -16.2 5.45 -15.7 4.8 -15.7 4.05 -15.8 3.65 -16.3 3.3 -16.75 3.2 -18.6 2.95 -20.6 1.9 -21.75 M15.05 -22.0 L15.05 -15.4 15.95 -15.4 15.95 -22.0 15.05 -22.0 M11.55 -22.85 L11.65 -23.3 12.05 -23.3 14.9 -22.6 23.95 -22.6 25.3 -24.2 25.5 -24.3 25.65 -24.2 28.35 -22.5 28.7 -21.95 Q28.7 -21.6 28.15 -21.3 27.65 -21.1 27.65 -20.75 L27.65 -15.7 28.7 -17.2 28.95 -17.1 29.3 -16.55 30.1 -14.9 30.0 -14.8 10.15 -14.8 Q9.85 -14.8 9.85 -15.1 9.85 -15.4 10.15 -15.4 L11.55 -15.4 11.55 -22.85 M20.1 -22.0 L19.25 -22.0 19.25 -15.4 20.1 -15.4 20.1 -22.0 M11.15 -34.05 L14.0 -33.85 14.65 -33.65 Q15.1 -33.2 14.55 -32.75 14.25 -32.55 14.25 -32.2 L14.25 -25.4 Q14.2 -24.6 13.95 -24.45 L12.55 -24.25 11.15 -24.4 Q10.8 -24.65 10.8 -25.4 L10.8 -33.7 10.85 -34.0 11.15 -34.05 M0.15 -24.95 L0.15 -30.1 -8.8 -30.1 -8.8 -24.95 0.15 -24.95 M2.25 -33.6 L1.6 -33.5 -1.7 -30.7 0.05 -30.7 1.1 -31.75 1.4 -31.9 1.8 -31.75 4.0 -30.45 Q5.0 -29.85 4.0 -29.4 3.65 -29.25 3.65 -28.75 L3.65 -24.0 3.45 -23.55 Q3.15 -23.25 2.0 -23.25 L0.4 -23.4 Q0.15 -23.6 0.15 -24.05 L0.15 -24.35 -8.8 -24.35 Q-8.8 -23.65 -9.05 -23.45 L-10.55 -23.2 -11.95 -23.35 Q-12.25 -23.6 -12.25 -24.35 L-12.25 -31.8 -12.15 -32.05 -11.95 -32.0 -8.7 -30.7 -3.3 -30.7 Q-1.85 -33.45 -1.45 -35.05 L-1.1 -35.35 2.65 -34.35 2.7 -33.85 Q2.55 -33.65 2.25 -33.6 M25.3 -24.85 Q24.55 -25.5 24.55 -26.2 23.95 -28.2 22.85 -29.0 L22.75 -29.2 23.0 -29.35 25.6 -29.0 Q26.9 -28.6 27.4 -27.9 27.85 -27.35 27.95 -26.6 28.0 -25.8 27.65 -25.35 27.15 -24.7 26.55 -24.6 25.8 -24.4 25.3 -24.85 M26.75 -33.4 L27.15 -33.2 29.65 -31.15 29.55 -30.9 29.45 -30.85 23.25 -30.85 Q21.55 -27.7 18.75 -25.4 L18.75 -24.55 Q18.7 -23.75 18.4 -23.6 L17.0 -23.4 15.6 -23.55 Q15.25 -23.75 15.25 -24.55 L15.25 -34.8 15.35 -35.1 15.6 -35.2 18.45 -34.95 19.1 -34.75 Q19.6 -34.35 19.0 -33.9 18.7 -33.65 18.75 -33.3 L18.75 -27.2 Q20.45 -31.1 20.5 -34.65 L20.6 -35.05 21.0 -35.1 24.35 -34.8 Q25.2 -34.75 25.2 -34.4 L24.9 -33.9 24.25 -33.05 23.55 -31.45 25.1 -31.45 26.75 -33.4" fill="#e7f902" fill-rule="evenodd" stroke="none"/>
  </g>
</svg>
