<?xml version="1.0" encoding="UTF-8" standalone="no"?>
<svg xmlns:xlink="http://www.w3.org/1999/xlink" height="103.35px" width="443.7px" xmlns="http://www.w3.org/2000/svg">
  <g transform="matrix(1.0, 0.0, 0.0, 1.0, 215.25, 57.2)">
    <path d="M228.45 24.1 Q228.6 28.0 226.3 27.65 L219.05 27.65 Q217.2 27.8 217.2 25.85 L217.2 16.4 Q217.35 15.8 216.55 15.8 L215.5 15.8 Q215.65 24.25 212.8 27.75 211.7 28.0 211.85 27.0 214.45 23.55 214.3 15.8 L212.5 15.8 Q211.8 15.2 212.5 14.6 L214.3 14.6 214.3 11.7 Q214.9 11.05 215.5 11.7 L215.5 14.6 216.8 14.6 Q218.55 14.6 218.4 16.15 L218.4 25.55 Q218.4 26.6 219.3 26.5 L226.5 26.5 Q227.4 26.75 227.25 24.1 227.85 23.45 228.45 24.1 M227.1 23.65 Q227.2 25.3 225.5 25.2 L221.4 25.2 Q219.8 25.3 219.8 23.6 L219.8 13.95 Q219.8 12.4 221.4 12.4 L225.5 12.4 Q227.2 12.4 227.1 13.95 L227.1 23.65 M225.25 13.6 L221.65 13.6 Q221.0 13.6 221.0 14.25 L221.0 18.2 225.9 18.2 225.9 14.2 Q226.05 13.6 225.25 13.6 M225.9 23.4 L225.9 19.4 221.0 19.4 221.0 23.35 Q221.0 24.15 221.65 24.0 L225.25 24.0 Q226.05 24.15 225.9 23.4 M210.55 38.5 Q210.15 38.5 209.8 38.75 L209.35 39.35 Q209.2 39.75 209.2 40.8 L209.2 43.6 207.55 43.6 207.55 37.4 209.1 37.4 209.1 38.3 Q209.9 37.25 211.15 37.25 L212.15 37.45 212.8 37.95 213.15 38.65 213.2 39.75 213.2 43.6 211.6 43.6 211.6 40.4 211.45 39.1 211.15 38.65 210.55 38.5 M203.45 37.95 L203.8 38.65 203.85 39.75 203.85 43.6 202.25 43.6 202.25 40.4 202.1 39.1 201.8 38.65 201.2 38.5 200.45 38.75 200.0 39.35 Q199.85 39.75 199.85 40.8 L199.85 43.6 198.2 43.6 198.2 37.4 199.75 37.4 199.75 38.3 Q200.55 37.25 201.8 37.25 L202.8 37.45 203.45 37.95 M220.25 38.85 Q219.9 38.5 219.4 38.5 218.85 38.5 218.5 38.9 218.15 39.3 218.15 39.95 L220.6 39.95 Q220.6 39.25 220.25 38.85 M220.1 42.3 Q220.4 42.1 220.5 41.6 L222.15 41.9 Q221.85 42.8 221.15 43.25 220.45 43.75 219.45 43.75 217.85 43.75 217.05 42.7 216.45 41.85 216.45 40.55 216.45 39.0 217.25 38.1 218.05 37.25 219.3 37.25 220.65 37.25 221.5 38.15 222.3 39.05 222.25 40.95 L218.1 40.95 Q218.15 41.7 218.5 42.1 218.9 42.5 219.45 42.5 L220.1 42.3 M182.65 18.75 L188.85 18.75 188.85 13.6 182.35 13.6 Q181.7 13.0 182.35 12.4 L196.55 12.4 Q197.2 13.0 196.55 13.6 L190.05 13.6 190.05 18.75 196.0 18.75 Q196.65 19.35 196.0 19.95 L190.05 19.95 190.05 25.9 197.1 25.9 Q197.75 26.5 197.1 27.1 L181.8 27.1 Q181.15 26.5 181.8 25.9 L188.85 25.9 188.85 19.95 182.65 19.95 Q181.95 19.35 182.65 18.75 M191.9 35.0 L195.3 43.6 193.45 43.6 192.7 41.65 189.25 41.65 188.55 43.6 186.7 43.6 190.05 35.0 191.9 35.0 M192.15 40.2 L190.95 37.0 189.8 40.2 192.15 40.2 M144.45 11.1 L144.95 12.95 149.4 12.95 150.5 11.1 Q151.45 10.6 151.6 11.5 L150.65 12.95 154.65 12.95 Q155.35 13.55 154.65 14.15 L149.55 14.15 149.55 15.45 151.55 15.45 Q153.55 15.45 153.4 17.15 L153.4 18.2 155.2 18.2 Q155.9 18.8 155.25 19.4 L153.4 19.4 153.4 20.45 Q153.55 22.3 151.7 22.15 L150.1 22.15 Q152.4 24.6 155.55 25.95 156.05 26.9 155.15 27.1 152.0 26.0 149.55 22.7 L149.55 27.65 148.35 27.7 148.35 22.15 145.95 22.15 145.95 27.65 144.8 27.7 144.8 22.55 Q143.0 25.25 139.5 27.1 138.55 27.1 138.9 26.1 142.1 24.45 144.1 22.15 L141.05 22.15 Q140.35 21.55 141.05 20.95 L144.8 20.95 144.8 19.4 139.4 19.4 Q138.7 18.8 139.4 18.2 L144.8 18.2 144.8 16.65 141.3 16.65 Q140.65 16.05 141.3 15.45 L144.8 15.45 144.8 14.15 139.95 14.15 Q139.25 13.55 139.95 12.95 L143.8 12.95 143.25 11.3 Q143.85 10.6 144.45 11.1 M148.35 14.15 L145.95 14.15 145.95 15.45 148.35 15.45 148.35 14.15 M148.35 16.65 L145.95 16.65 145.95 18.2 148.35 18.2 148.35 16.65 M149.55 18.2 L152.2 18.2 152.2 17.25 Q152.35 16.65 151.55 16.65 L149.55 16.65 149.55 18.2 M145.95 20.95 L148.35 20.95 148.35 19.4 145.95 19.4 145.95 20.95 M149.55 20.95 L151.45 20.95 Q152.35 21.1 152.2 20.35 L152.2 19.4 149.55 19.4 149.55 20.95 M127.7 13.25 L134.0 13.25 Q136.0 13.25 134.85 17.25 134.05 17.75 133.7 16.85 134.65 14.4 133.85 14.4 L127.7 14.4 127.7 18.15 Q127.1 18.85 126.5 18.15 L126.5 14.4 121.2 14.4 Q120.55 14.4 120.55 15.05 L120.55 16.8 Q119.95 17.45 119.35 16.8 L119.35 14.8 Q119.35 13.25 120.9 13.25 L126.5 13.25 126.5 12.5 121.1 12.5 Q120.45 11.9 121.1 11.3 L133.65 11.3 Q134.35 11.9 133.65 12.5 L127.7 12.5 127.7 13.25 M128.3 15.2 L132.85 15.2 Q133.5 15.75 132.85 16.35 L128.3 16.35 Q127.65 15.75 128.3 15.2 M128.3 16.95 L132.85 16.95 Q133.5 17.55 132.85 18.15 L128.3 18.15 Q127.65 17.55 128.3 16.95 M125.65 18.15 L121.4 18.15 Q120.75 17.55 121.4 16.95 L125.65 16.95 Q126.35 17.55 125.65 18.15 M125.65 16.35 L121.4 16.35 Q120.85 15.75 121.4 15.2 L125.65 15.2 Q126.35 15.75 125.65 16.35 M125.7 19.15 Q125.7 18.2 126.65 18.35 L127.9 19.85 134.75 19.85 Q135.45 20.45 134.75 21.05 L132.6 21.05 Q130.85 23.75 128.4 25.0 132.1 26.35 135.35 26.75 135.85 27.55 135.15 27.95 131.35 27.5 127.4 25.7 123.0 27.5 119.35 27.95 118.65 27.55 119.15 26.75 122.8 26.35 126.25 25.0 123.55 23.6 122.2 21.05 L119.75 21.05 Q119.1 20.45 119.75 19.85 L126.5 19.85 125.7 19.15 M131.2 21.05 L123.45 21.05 Q124.65 22.95 127.4 24.4 129.75 23.1 131.2 21.05 M137.65 36.55 L136.0 36.55 136.0 35.0 137.65 35.0 137.65 36.55 M129.2 38.7 L128.8 39.35 Q128.65 39.75 128.65 40.6 L128.65 43.6 127.0 43.6 127.0 40.2 126.9 39.0 126.65 38.65 126.15 38.5 125.45 38.7 125.0 39.3 124.9 40.6 124.9 43.6 123.25 43.6 123.25 37.4 124.75 37.4 124.75 38.25 Q125.55 37.25 126.7 37.25 L127.75 37.5 128.45 38.25 Q128.85 37.75 129.35 37.5 L130.35 37.25 131.5 37.5 132.2 38.35 132.4 39.6 132.4 43.6 130.75 43.6 130.75 40.05 Q130.75 39.1 130.55 38.85 130.35 38.5 129.85 38.5 L129.2 38.7 M137.65 43.6 L136.0 43.6 136.0 37.4 137.65 37.4 137.65 43.6 M140.9 40.55 Q140.9 39.0 141.7 38.1 142.5 37.25 143.75 37.25 145.1 37.25 145.95 38.15 146.75 39.05 146.7 40.95 L142.55 40.95 Q142.6 41.7 142.95 42.1 143.35 42.5 143.9 42.5 L144.55 42.3 144.95 41.6 146.6 41.9 Q146.3 42.8 145.6 43.25 144.9 43.75 143.9 43.75 142.3 43.75 141.5 42.7 140.9 41.85 140.9 40.55 M144.7 38.85 Q144.35 38.5 143.85 38.5 143.3 38.5 142.95 38.9 142.6 39.3 142.6 39.95 L145.05 39.95 Q145.05 39.25 144.7 38.85 M105.3 11.45 L105.3 12.15 108.8 12.15 108.8 11.45 Q109.4 10.6 110.0 11.45 L110.0 12.15 114.85 12.15 Q115.65 12.75 114.85 13.3 L110.0 13.3 110.0 14.05 112.6 14.05 Q114.55 14.05 114.4 15.9 L114.4 18.4 Q114.55 20.35 112.55 20.2 L101.55 20.2 Q99.7 20.35 99.7 18.4 L99.7 15.9 Q99.7 14.05 101.55 14.05 L104.15 14.05 104.15 13.3 99.45 13.3 Q98.6 13.1 99.4 12.15 L104.15 12.15 104.15 11.45 Q104.7 10.6 105.3 11.45 M108.8 13.3 L105.3 13.3 105.3 14.05 108.8 14.05 108.8 13.3 M110.0 16.55 L113.25 16.55 113.25 16.15 Q113.35 15.25 112.3 15.25 L110.0 15.25 110.0 16.55 M108.8 15.25 L105.3 15.25 105.3 16.55 108.8 16.55 108.8 15.25 M104.15 15.25 L101.8 15.25 Q100.9 15.25 100.9 16.2 L100.9 16.55 104.15 16.55 104.15 15.25 M102.3 23.05 L102.3 23.6 112.1 23.6 112.1 23.05 Q112.25 22.15 111.2 22.15 L103.2 22.15 Q102.3 22.15 102.3 23.05 M104.15 19.05 L104.15 17.75 100.9 17.75 100.9 18.1 Q100.9 19.15 101.8 19.05 L104.15 19.05 M110.0 19.05 L112.3 19.05 Q113.35 19.15 113.25 18.15 L113.25 17.75 110.0 17.75 110.0 19.05 M105.3 17.75 L105.3 19.05 108.8 19.05 108.8 17.75 105.3 17.75 M113.3 22.8 L113.3 26.1 Q113.45 27.8 111.75 27.65 L102.95 27.65 Q101.1 27.8 101.1 25.85 L101.1 22.8 Q101.1 20.95 102.95 20.95 L111.75 20.95 Q113.45 20.95 113.3 22.8 M112.1 24.75 L102.3 24.75 102.3 25.55 Q102.3 26.6 103.2 26.5 L111.5 26.5 Q112.25 26.6 112.1 25.85 L112.1 24.75 M110.9 35.0 L110.9 40.45 110.7 42.1 Q110.45 42.85 109.8 43.3 L108.05 43.75 Q106.8 43.75 106.1 43.05 105.4 42.3 105.4 40.95 L107.05 40.75 107.25 41.8 Q107.55 42.25 108.1 42.25 L108.95 41.95 109.15 40.55 109.15 35.0 110.9 35.0 M119.75 39.65 L119.75 41.55 119.85 42.75 120.1 43.6 118.5 43.6 118.35 43.1 118.25 42.9 117.35 43.55 116.35 43.75 Q115.4 43.75 114.85 43.2 114.3 42.7 114.3 41.9 114.3 41.35 114.55 40.95 L115.25 40.35 116.55 39.95 118.15 39.55 118.15 39.4 117.9 38.7 117.05 38.5 116.35 38.65 115.95 39.3 114.45 39.0 Q114.7 38.1 115.3 37.65 115.95 37.25 117.15 37.25 L118.8 37.5 119.55 38.15 119.75 39.65 M117.15 40.85 L116.25 41.15 Q115.9 41.4 115.9 41.75 115.9 42.1 116.2 42.35 L116.85 42.6 117.7 42.3 118.1 41.75 118.15 40.95 118.15 40.6 117.15 40.85 M69.1 11.55 L69.1 14.6 71.6 12.55 Q72.7 12.4 72.4 13.5 L69.1 15.85 69.1 18.25 Q69.1 19.3 70.15 19.15 L70.95 19.15 Q72.2 19.3 72.05 16.8 72.65 16.15 73.2 16.8 73.35 20.6 70.8 20.35 L70.3 20.35 Q67.9 20.5 67.9 18.1 L67.9 16.35 66.2 17.45 Q65.15 17.25 65.75 16.3 L67.9 15.1 67.9 11.55 Q68.5 10.9 69.1 11.55 M66.2 11.8 L65.25 13.85 65.25 20.5 Q64.65 21.3 64.05 20.5 L64.05 15.4 Q63.7 16.4 62.65 17.7 61.55 17.85 61.85 16.8 64.05 14.15 65.05 11.4 66.0 10.75 66.2 11.8 M62.35 15.65 L60.55 15.65 62.35 19.15 Q62.45 20.35 61.3 19.9 L60.55 17.3 60.55 27.4 Q60.15 28.0 59.35 27.4 L59.35 17.85 Q59.0 20.4 57.3 23.05 56.3 23.4 56.3 22.35 58.4 19.0 59.2 15.65 L57.15 15.65 Q56.45 15.05 57.15 14.5 L59.35 14.5 59.35 11.3 Q59.95 10.6 60.55 11.3 L60.55 14.5 62.35 14.5 Q63.05 15.05 62.35 15.65 M62.5 21.95 L66.8 21.95 66.8 20.4 Q67.4 19.7 68.0 20.4 L68.0 21.95 73.1 21.95 Q73.8 22.5 73.1 23.1 L68.0 23.1 68.0 27.65 66.8 27.7 66.8 23.1 62.5 23.1 Q61.85 22.5 62.5 21.95 M48.2 11.55 L48.2 13.4 51.7 13.4 Q52.35 13.95 51.7 14.55 L48.2 14.55 48.2 16.95 52.8 16.95 Q53.45 17.55 52.8 18.15 L42.6 18.15 Q41.95 17.55 42.6 16.95 L47.05 16.95 47.05 14.55 43.55 14.55 Q42.9 13.95 43.55 13.4 L47.05 13.4 47.05 11.55 Q47.6 10.9 48.2 11.55 M41.05 14.85 L38.5 12.55 Q38.35 11.6 39.25 11.6 40.7 12.6 41.85 13.9 42.0 14.85 41.05 14.85 M43.4 23.8 Q39.6 28.0 39.45 25.85 L39.45 18.5 Q39.6 17.85 38.8 17.85 L36.8 17.85 Q36.15 17.3 36.8 16.7 L39.05 16.7 Q40.65 16.7 40.65 18.25 L40.65 25.15 Q40.65 25.9 42.4 23.05 43.55 22.6 43.4 23.8 M43.0 19.7 L49.8 19.7 49.8 18.6 Q50.4 17.95 51.0 18.6 L51.0 19.7 52.65 19.7 Q53.3 20.3 52.65 20.9 L51.0 20.9 51.0 25.95 Q51.0 27.65 49.15 27.8 47.05 27.95 45.4 27.2 45.25 26.05 46.15 26.05 47.4 26.75 48.85 26.6 49.8 26.75 49.8 25.7 L49.8 20.9 43.0 20.9 Q42.35 20.3 43.0 19.7 M45.5 21.4 Q46.8 23.0 47.95 25.1 47.75 26.15 46.8 25.65 L44.55 22.15 Q44.55 21.25 45.5 21.4 M42.95 37.8 Q44.35 37.8 45.25 38.7 46.15 39.6 46.15 41.0 46.15 42.45 45.25 43.35 44.35 44.3 42.95 44.3 L41.3 43.9 Q40.55 43.5 40.15 42.75 39.75 42.0 39.75 40.95 39.75 40.15 40.15 39.35 40.55 38.6 41.3 38.2 L42.95 37.8 M41.85 39.6 Q41.4 40.1 41.4 41.05 41.4 41.95 41.85 42.45 42.3 42.95 42.95 42.95 43.6 42.95 44.05 42.45 44.45 41.95 44.45 41.05 44.45 40.1 44.05 39.6 43.6 39.15 42.95 39.15 42.3 39.15 41.85 39.6 M56.55 39.6 Q56.1 40.1 56.1 41.05 56.1 41.95 56.55 42.45 57.0 42.95 57.65 42.95 58.3 42.95 58.75 42.45 59.15 41.95 59.15 41.05 59.15 40.1 58.75 39.6 58.3 39.15 57.65 39.15 57.0 39.15 56.55 39.6 M57.65 37.8 Q59.05 37.8 59.95 38.7 60.85 39.6 60.85 41.0 60.85 42.45 59.95 43.35 59.05 44.3 57.65 44.3 56.8 44.3 56.0 43.9 55.25 43.5 54.85 42.75 54.45 42.0 54.45 40.95 54.45 40.15 54.85 39.35 55.25 38.6 56.0 38.2 56.7 37.8 57.65 37.8 M49.45 35.55 L51.1 35.55 51.1 44.15 49.45 44.15 49.45 35.55 M25.55 18.75 L31.5 18.75 Q32.15 19.35 31.5 19.95 L25.55 19.95 25.55 25.9 32.6 25.9 Q33.25 26.5 32.6 27.1 L17.3 27.1 Q16.65 26.5 17.3 25.9 L24.35 25.9 24.35 19.95 18.15 19.95 Q17.45 19.35 18.15 18.75 L24.35 18.75 24.35 13.6 17.85 13.6 Q17.2 13.0 17.85 12.4 L32.05 12.4 Q32.7 13.0 32.05 13.6 L25.55 13.6 25.55 18.75 M31.85 37.0 L31.85 39.45 32.8 39.45 34.2 39.3 34.7 38.9 34.9 38.25 34.65 37.45 33.95 37.05 32.7 37.0 31.85 37.0 M36.2 36.55 Q36.7 37.2 36.7 38.2 L36.4 39.55 35.7 40.4 Q35.25 40.7 34.8 40.8 L33.0 40.9 31.85 40.9 31.85 44.15 30.1 44.15 30.1 35.55 32.9 35.55 34.95 35.7 36.2 36.55 M-14.55 14.7 Q-15.95 13.7 -17.95 12.55 -18.25 11.6 -17.35 11.6 L-13.9 13.7 Q-13.45 14.7 -14.55 14.7 M-11.95 15.95 L-19.55 16.05 Q-19.55 18.8 -19.05 21.1 L-14.85 16.45 Q-13.75 16.15 -13.9 17.2 -15.7 19.45 -18.55 22.15 -16.7 26.35 -13.9 26.75 -12.6 26.9 -12.7 23.15 -12.15 22.5 -11.55 23.15 -11.4 28.0 -14.1 27.95 -17.8 27.25 -19.5 22.85 -21.95 25.25 -26.3 27.65 -27.2 27.45 -26.9 26.65 -22.3 23.9 -20.05 21.8 -20.7 19.5 -20.7 16.05 L-27.35 16.2 Q-28.05 15.6 -27.35 15.05 L-20.7 14.9 -20.55 11.7 Q-20.0 10.9 -19.4 11.7 L-19.55 14.9 -11.95 14.75 Q-11.0 15.35 -11.95 15.95 M-38.05 43.6 L-38.05 41.95 -36.4 41.95 -36.4 43.6 -38.05 43.6 M-33.1 37.4 L-28.0 37.4 -28.0 38.55 -31.2 42.2 -30.35 42.15 -27.8 42.15 -27.8 43.6 -33.35 43.6 -33.35 42.3 -31.0 39.65 -30.15 38.7 -30.9 38.75 -33.1 38.75 -33.1 37.4 M-22.2 38.5 Q-22.75 38.5 -23.1 38.9 -23.45 39.3 -23.45 39.95 L-21.0 39.95 Q-21.0 39.25 -21.35 38.85 -21.7 38.5 -22.2 38.5 M-25.15 40.55 Q-25.15 39.0 -24.35 38.1 -23.55 37.25 -22.3 37.25 -20.95 37.25 -20.1 38.15 -19.3 39.05 -19.35 40.95 L-23.5 40.95 Q-23.45 41.7 -23.1 42.1 -22.7 42.5 -22.15 42.5 L-21.5 42.3 -21.1 41.6 -19.45 41.9 Q-19.75 42.8 -20.45 43.25 -21.15 43.75 -22.15 43.75 -23.75 43.75 -24.55 42.7 -25.15 41.85 -25.15 40.55 M-10.4 39.75 L-10.4 43.6 -12.0 43.6 -12.0 40.4 Q-12.0 39.4 -12.15 39.1 L-12.45 38.65 -13.05 38.5 -13.8 38.75 -14.25 39.35 -14.4 40.8 -14.4 43.6 -16.05 43.6 -16.05 37.4 -14.5 37.4 -14.5 38.3 Q-13.7 37.25 -12.45 37.25 L-11.45 37.45 Q-11.0 37.65 -10.8 37.95 L-10.45 38.65 -10.4 39.75 M-4.0 38.5 Q-4.6 38.5 -5.0 38.95 -5.35 39.4 -5.35 40.35 -5.35 41.35 -5.0 41.8 -4.6 42.25 -4.05 42.25 -3.45 42.25 -3.0 41.8 -2.6 41.35 -2.6 40.4 -2.6 39.45 -3.0 38.95 -3.4 38.5 -4.0 38.5 M-2.55 38.25 L-2.55 37.4 -1.0 37.4 -1.0 42.95 Q-1.0 44.05 -1.15 44.6 L-1.7 45.45 -2.55 45.95 -3.95 46.15 Q-5.5 46.15 -6.2 45.6 -6.85 45.05 -6.85 44.2 L-6.85 44.0 -4.95 44.25 -4.75 44.7 -4.0 44.85 -3.05 44.65 -2.7 44.25 -2.65 43.5 -2.65 42.6 Q-3.35 43.6 -4.5 43.6 -5.75 43.6 -6.5 42.55 -7.05 41.7 -7.05 40.45 -7.05 38.9 -6.3 38.05 -5.55 37.25 -4.45 37.25 -3.3 37.25 -2.55 38.25 M-45.55 11.8 Q-46.7 13.25 -47.6 13.8 L-45.0 13.8 Q-43.3 13.8 -43.45 15.35 L-43.45 18.8 Q-43.3 20.5 -45.05 20.35 L-55.75 20.35 Q-57.35 20.5 -57.35 18.8 L-57.35 15.35 Q-57.2 13.8 -55.8 13.8 L-53.0 13.8 -55.25 12.0 Q-55.4 11.05 -54.5 11.05 -53.3 11.9 -52.2 13.05 -52.0 13.65 -52.3 13.8 L-48.95 13.8 -47.65 12.5 -46.5 11.2 Q-45.55 10.9 -45.55 11.8 M-55.5 14.95 Q-56.15 14.95 -56.15 15.6 L-56.15 18.5 Q-56.15 19.3 -55.5 19.15 L-51.0 19.15 -51.0 14.95 -55.5 14.95 M-54.0 15.25 Q-53.1 16.65 -52.4 18.5 -52.6 19.5 -53.6 18.9 -54.15 17.35 -55.0 15.8 -55.0 14.75 -54.0 15.25 M-55.3 22.95 L-55.3 23.6 -45.2 23.6 -45.2 22.9 Q-45.05 22.3 -45.85 22.3 L-54.65 22.3 Q-55.3 22.3 -55.3 22.95 M-54.95 21.1 L-45.6 21.1 Q-43.85 21.25 -44.0 22.65 L-44.0 26.15 Q-43.85 27.95 -45.6 27.8 L-54.95 27.8 Q-56.5 27.95 -56.5 26.25 L-56.5 22.65 Q-56.35 21.1 -54.95 21.1 M-45.3 14.95 L-49.8 14.95 -49.8 19.15 -45.3 19.15 Q-44.5 19.3 -44.65 18.55 L-44.65 15.6 Q-44.5 14.95 -45.3 14.95 M-46.65 15.35 Q-45.65 15.05 -45.65 15.95 -46.35 17.5 -47.4 18.95 L-47.65 19.05 Q-48.5 19.3 -48.5 18.45 L-47.65 17.2 -46.65 15.35 M-67.0 35.0 L-63.6 43.6 -65.45 43.6 -66.2 41.65 -69.65 41.65 -70.35 43.6 -72.2 43.6 -68.85 35.0 -67.0 35.0 M-66.75 40.2 L-67.95 37.0 -69.1 40.2 -66.75 40.2 M-45.2 24.75 L-55.3 24.75 -55.3 25.95 Q-55.3 26.75 -54.7 26.6 L-45.85 26.6 Q-45.05 26.75 -45.2 26.0 L-45.2 24.75 M-59.05 35.0 L-59.05 43.6 -60.7 43.6 -60.7 35.0 -59.05 35.0 M-52.85 38.5 Q-53.4 38.5 -53.75 38.9 -54.1 39.3 -54.1 39.95 L-51.65 39.95 Q-51.65 39.25 -52.0 38.85 -52.35 38.5 -52.85 38.5 M-50.75 38.15 Q-49.95 39.05 -50.0 40.95 L-54.15 40.95 -53.75 42.1 Q-53.35 42.5 -52.8 42.5 L-52.15 42.3 -51.75 41.6 -50.1 41.9 Q-50.4 42.8 -51.1 43.25 -51.8 43.75 -52.8 43.75 -54.4 43.75 -55.2 42.7 -55.8 41.85 -55.8 40.55 -55.8 39.0 -55.0 38.1 -54.2 37.25 -52.95 37.25 -51.6 37.25 -50.75 38.15 M-44.25 39.1 L-43.1 37.4 -41.2 37.4 -43.3 40.3 -41.0 43.6 -43.0 43.6 -44.25 41.65 -45.55 43.6 -47.5 43.6 -45.25 40.4 -47.4 37.4 -45.4 37.4 -44.25 39.1 M-98.05 11.7 L-97.9 15.7 -95.7 15.7 Q-95.0 16.3 -95.65 16.9 L-97.9 16.9 -97.75 19.5 Q-97.45 23.55 -96.55 26.45 -96.05 27.6 -96.2 22.75 -95.6 22.05 -95.0 22.75 -94.85 28.0 -96.45 27.95 -97.25 27.95 -97.7 26.85 L-98.45 23.85 -98.75 22.05 Q-99.1 19.5 -99.05 16.9 L-101.6 16.9 -101.6 19.5 -99.45 19.5 Q-98.85 19.65 -99.0 20.2 L-99.25 20.5 -101.6 20.5 -101.6 25.5 -98.9 24.7 Q-97.9 24.9 -98.55 25.85 L-106.65 27.65 Q-107.5 27.25 -106.85 26.5 L-105.55 26.25 -105.55 18.35 Q-105.0 17.5 -104.4 18.35 L-104.4 26.05 -102.8 25.7 -102.8 16.9 -105.75 16.9 Q-106.4 16.3 -105.75 15.7 L-99.1 15.7 -99.2 11.7 Q-98.65 11.05 -98.05 11.7 M-97.85 12.8 Q-98.1 11.6 -97.0 12.05 -96.15 13.05 -95.4 14.5 -95.4 15.55 -96.45 14.9 L-97.85 12.8 M-100.1 13.85 L-104.9 13.85 Q-105.7 13.3 -104.9 12.7 L-100.1 12.7 Q-99.3 13.3 -100.1 13.85 M-109.1 11.65 Q-108.55 12.65 -108.3 13.8 L-105.75 13.8 Q-105.05 14.4 -105.75 14.95 L-106.6 14.95 Q-106.75 18.15 -107.7 21.0 -106.75 22.85 -106.2 25.0 -106.55 26.15 -107.35 25.2 L-108.3 22.3 Q-109.35 24.95 -111.2 27.1 -112.2 27.25 -112.05 26.3 -110.1 23.95 -109.0 21.15 L-111.2 16.65 Q-111.2 15.6 -110.2 16.05 -109.25 17.75 -108.45 19.85 -107.9 17.65 -107.75 14.95 L-111.5 14.95 Q-112.2 14.55 -111.55 13.8 L-109.45 13.8 -110.1 12.2 Q-110.1 11.2 -109.1 11.65 M-115.4 37.95 L-115.05 38.65 -115.0 39.75 -115.0 43.6 -116.6 43.6 -116.6 40.4 Q-116.6 39.4 -116.75 39.1 L-117.05 38.65 -117.65 38.5 -118.4 38.75 -118.85 39.35 -119.0 40.8 -119.0 43.6 -120.65 43.6 -120.65 37.4 -119.1 37.4 -119.1 38.3 Q-118.3 37.25 -117.05 37.25 L-116.05 37.45 -115.4 37.95 M-101.45 37.65 L-99.8 37.25 Q-98.4 37.25 -97.5 38.15 -96.6 39.05 -96.6 40.45 -96.6 41.9 -97.5 42.8 -98.4 43.75 -99.8 43.75 -100.65 43.75 -101.45 43.35 L-102.6 42.2 Q-103.0 41.45 -103.0 40.4 -103.0 39.6 -102.6 38.8 -102.2 38.05 -101.45 37.65 M-108.2 38.6 L-109.0 38.4 -109.9 38.6 -110.1 38.95 -109.95 39.25 -108.4 39.7 Q-107.1 40.0 -106.55 40.45 -106.05 40.85 -106.05 41.65 -106.05 42.5 -106.75 43.15 -107.5 43.75 -108.9 43.75 -110.15 43.75 -110.9 43.25 -111.65 42.7 -111.85 41.8 L-110.2 41.55 -109.8 42.3 -108.9 42.55 -107.95 42.3 -107.7 41.9 -107.85 41.55 -108.4 41.35 -110.9 40.55 Q-111.65 40.05 -111.65 39.15 -111.65 38.35 -111.0 37.8 -110.35 37.25 -109.0 37.25 L-107.1 37.65 Q-106.5 38.05 -106.25 38.9 L-107.8 39.15 -108.2 38.6 M-91.75 38.3 Q-90.95 37.25 -89.7 37.25 L-88.7 37.45 -88.05 37.95 Q-87.8 38.25 -87.7 38.65 L-87.65 39.75 -87.65 43.6 -89.25 43.6 -89.25 40.4 Q-89.25 39.4 -89.4 39.1 L-89.7 38.65 -90.3 38.5 -91.05 38.75 -91.5 39.35 -91.65 40.8 -91.65 43.6 -93.3 43.6 -93.3 37.4 -91.75 37.4 -91.75 38.3 M-100.9 39.05 Q-101.35 39.55 -101.35 40.5 -101.35 41.4 -100.9 41.9 -100.45 42.4 -99.8 42.4 -99.15 42.4 -98.7 41.9 -98.3 41.4 -98.3 40.5 -98.3 39.55 -98.7 39.05 -99.15 38.6 -99.8 38.6 -100.45 38.6 -100.9 39.05 M-134.5 11.8 L-135.6 13.5 -128.9 13.5 Q-127.2 13.5 -127.35 15.05 L-127.35 25.6 Q-127.2 27.8 -129.0 27.8 L-130.85 27.45 -131.5 27.2 Q-132.0 26.25 -131.1 26.05 L-130.85 26.2 Q-128.4 27.35 -128.55 25.7 L-128.55 15.3 Q-128.4 14.7 -129.2 14.7 L-139.65 14.7 Q-140.6 14.7 -140.6 15.35 L-140.6 27.4 Q-141.2 28.0 -141.75 27.4 L-141.75 15.05 Q-141.75 13.5 -139.95 13.5 L-137.0 13.5 Q-136.25 12.65 -135.65 11.35 -134.7 10.9 -134.5 11.8 M-137.8 18.5 L-137.8 22.95 Q-137.8 23.7 -137.2 23.6 L-132.5 23.6 Q-131.45 23.7 -131.55 22.95 L-131.55 18.5 Q-131.45 17.85 -132.5 17.85 L-137.2 17.85 Q-137.8 17.85 -137.8 18.5 M-137.45 16.7 L-132.2 16.7 Q-131.3 16.7 -130.85 17.05 -130.3 17.4 -130.4 18.25 L-130.4 23.25 Q-130.3 24.15 -130.85 24.5 L-132.25 24.75 -137.45 24.75 Q-139.0 24.9 -139.0 23.2 L-139.0 18.25 Q-139.0 16.7 -137.45 16.7 M-150.95 36.5 L-152.25 36.45 -153.6 36.45 -153.6 38.65 -152.3 38.65 -150.75 38.55 -150.25 38.15 Q-150.1 37.9 -150.1 37.55 L-150.3 36.85 Q-150.55 36.55 -150.95 36.5 M-148.65 36.05 Q-148.3 36.65 -148.3 37.4 -148.3 38.4 -148.85 39.0 -149.45 39.65 -150.55 39.8 L-149.65 40.55 -148.65 41.9 -147.6 43.6 -149.65 43.6 -150.95 41.75 -151.85 40.45 -152.35 40.1 -153.25 40.0 -153.6 40.0 -153.6 43.6 -155.3 43.6 -155.3 35.0 -151.65 35.0 -149.65 35.25 Q-149.05 35.45 -148.65 36.05 M-141.85 37.25 Q-140.45 37.25 -139.55 38.15 -138.65 39.05 -138.65 40.45 -138.65 41.9 -139.55 42.8 -140.45 43.75 -141.85 43.75 L-143.5 43.35 -144.65 42.2 Q-145.05 41.45 -145.05 40.4 -145.05 39.6 -144.65 38.8 -144.25 38.05 -143.5 37.65 L-141.85 37.25 M-142.95 41.9 Q-142.5 42.4 -141.85 42.4 -141.2 42.4 -140.75 41.9 -140.35 41.4 -140.35 40.5 -140.35 39.55 -140.75 39.05 -141.2 38.6 -141.85 38.6 -142.5 38.6 -142.95 39.05 -143.4 39.55 -143.4 40.5 -143.4 41.4 -142.95 41.9 M-124.35 35.0 L-124.35 36.55 -126.0 36.55 -126.0 35.0 -124.35 35.0 M-133.75 35.0 L-133.75 38.1 Q-133.0 37.25 -131.95 37.25 -130.8 37.25 -130.1 38.05 -129.35 38.9 -129.35 40.4 -129.35 42.0 -130.1 42.9 -130.85 43.75 -131.95 43.75 L-133.0 43.5 -133.9 42.7 -133.9 43.6 -135.4 43.6 -135.4 35.0 -133.75 35.0 M-133.45 41.8 Q-133.05 42.45 -132.35 42.45 -131.8 42.45 -131.4 42.0 -131.0 41.5 -131.0 40.5 -131.0 39.45 -131.4 38.95 -131.8 38.5 -132.4 38.5 -133.0 38.5 -133.4 38.95 -133.75 39.4 -133.75 40.35 L-133.45 41.8 M-126.0 37.4 L-124.35 37.4 -124.35 43.6 -126.0 43.6 -126.0 37.4 M-180.7 11.4 Q-180.25 12.4 -180.15 12.95 L-177.35 12.95 Q-176.65 13.55 -177.35 14.15 L-178.3 14.15 -178.05 14.5 -178.6 16.85 -177.05 16.85 Q-176.6 17.25 -176.75 17.65 -175.8 16.5 -175.9 14.95 L-175.9 13.85 Q-175.9 12.15 -174.35 12.15 L-172.15 12.15 -171.65 12.2 Q-170.45 12.4 -170.6 13.8 L-170.6 16.45 Q-170.6 17.25 -169.95 17.1 L-168.8 17.1 Q-168.1 17.7 -168.8 18.3 L-170.35 18.3 Q-171.35 18.35 -171.65 17.7 L-171.8 16.85 -171.8 13.8 Q-171.65 13.3 -172.3 13.3 L-174.1 13.3 Q-174.75 13.3 -174.75 13.95 L-174.75 14.85 Q-174.6 17.05 -176.05 18.65 -177.1 18.95 -177.0 17.95 L-177.05 18.0 -180.2 18.0 -180.5 18.5 Q-179.7 19.7 -179.4 20.55 L-178.1 18.8 Q-176.95 18.35 -177.1 19.55 -177.8 20.7 -178.85 21.55 L-176.15 24.5 -176.05 24.85 Q-176.1 25.4 -176.95 25.3 L-177.35 24.85 -178.75 23.1 -178.55 24.85 Q-178.5 25.7 -178.6 26.15 -178.75 28.0 -182.45 27.5 -183.1 26.5 -181.95 26.35 -179.8 27.15 -179.8 25.8 L-179.7 24.85 -179.85 23.5 -181.1 24.85 Q-182.5 26.2 -184.0 26.95 -185.15 26.8 -184.4 25.8 L-182.85 24.85 -180.05 22.35 -180.35 21.3 Q-182.1 23.1 -184.15 23.95 -185.3 23.75 -184.55 22.8 -182.75 22.1 -180.9 20.25 L-181.4 19.4 Q-182.7 20.6 -184.4 21.3 -185.6 21.3 -184.95 20.3 -182.75 19.2 -181.45 18.0 L-184.75 18.0 Q-185.45 17.6 -184.8 16.85 L-182.8 16.85 -182.8 16.8 -183.5 14.5 -183.25 14.15 -184.05 14.15 Q-184.9 13.55 -184.05 12.95 L-181.3 12.95 -181.7 11.9 Q-181.55 10.9 -180.7 11.4 M-181.5 16.8 L-179.8 16.85 -179.15 14.15 -182.3 14.15 -181.5 16.8 M-172.95 23.85 L-171.65 22.3 -170.8 20.65 Q-170.4 20.05 -171.5 19.95 L-174.85 19.95 Q-174.05 22.45 -172.95 23.85 M-176.0 19.95 L-176.35 19.95 Q-177.05 19.55 -176.4 18.75 L-171.2 18.75 Q-169.1 18.9 -169.5 20.55 -169.85 22.1 -171.65 24.2 L-172.1 24.7 -171.9 24.85 -169.15 26.8 Q-168.65 27.8 -169.75 27.8 L-173.0 25.45 Q-174.55 26.8 -177.1 27.8 -178.1 27.6 -177.5 26.65 -175.35 25.85 -174.15 24.85 L-173.85 24.55 Q-175.35 22.6 -176.0 19.95 M-201.0 14.7 Q-200.85 16.75 -203.15 16.65 L-209.2 16.65 -209.85 17.95 -203.1 17.95 Q-200.85 17.95 -201.6 20.1 -204.95 27.35 -214.75 27.65 -215.7 27.25 -214.9 26.5 -209.65 26.2 -206.75 24.45 L-211.95 20.75 Q-213.2 22.0 -214.25 22.4 -215.3 22.4 -214.85 21.4 -211.55 19.5 -210.35 16.65 L-213.05 16.65 Q-215.15 16.75 -215.15 14.8 L-215.15 13.55 Q-215.15 11.6 -213.05 11.6 L-203.0 11.6 Q-200.85 11.6 -201.0 13.55 L-201.0 14.7 M-202.2 13.65 Q-202.05 12.75 -203.0 12.75 L-205.15 12.75 -205.15 15.45 -203.1 15.45 Q-202.05 15.6 -202.2 14.55 L-202.2 13.65 M-194.05 42.8 Q-194.95 43.75 -196.35 43.75 L-198.0 43.35 -199.15 42.2 Q-199.55 41.45 -199.55 40.4 -199.55 39.6 -199.15 38.8 -198.75 38.05 -198.0 37.65 L-196.35 37.25 Q-194.95 37.25 -194.05 38.15 -193.15 39.05 -193.15 40.45 -193.15 41.9 -194.05 42.8 M-194.85 40.5 Q-194.85 39.55 -195.25 39.05 -195.7 38.6 -196.35 38.6 -197.0 38.6 -197.45 39.05 -197.9 39.55 -197.9 40.5 -197.9 41.4 -197.45 41.9 -197.0 42.4 -196.35 42.4 -195.7 42.4 -195.25 41.9 -194.85 41.4 -194.85 40.5 M-187.15 38.55 Q-187.8 38.55 -188.15 38.95 -188.5 39.4 -188.5 40.4 -188.5 41.5 -188.15 41.95 -187.75 42.4 -187.15 42.4 L-186.35 42.15 -185.95 41.2 -184.35 41.5 Q-184.6 42.6 -185.3 43.15 -186.0 43.75 -187.2 43.75 -188.6 43.75 -189.4 42.9 -190.2 42.0 -190.2 40.5 -190.2 38.95 -189.4 38.1 -188.55 37.25 -187.2 37.25 -186.05 37.25 -185.35 37.75 -184.7 38.2 -184.4 39.2 L-186.05 39.5 Q-186.1 39.0 -186.4 38.8 -186.7 38.55 -187.15 38.55 M-179.6 35.0 L-179.6 39.55 -177.65 37.4 -175.65 37.4 -177.75 39.65 -175.5 43.6 -177.25 43.6 -178.85 40.8 -179.6 41.6 -179.6 43.6 -181.25 43.6 -181.25 35.0 -179.6 35.0 M-213.95 13.7 L-213.95 14.65 Q-213.95 15.6 -213.05 15.45 L-210.75 15.45 -210.75 12.75 -213.2 12.75 Q-213.95 12.75 -213.95 13.7 M-206.35 12.75 L-209.55 12.75 -209.55 15.45 -206.35 15.45 -206.35 12.75 M-211.2 19.9 L-205.9 23.7 Q-204.2 22.4 -203.0 20.25 -202.35 19.1 -203.4 19.1 L-210.45 19.1 -211.2 19.9 M-208.1 36.45 L-208.1 38.65 -206.8 38.65 -205.25 38.55 -204.75 38.15 -204.6 37.55 -204.8 36.85 Q-205.05 36.55 -205.45 36.5 L-206.75 36.45 -208.1 36.45 M-203.15 36.05 Q-202.8 36.65 -202.8 37.4 -202.8 38.4 -203.35 39.0 -203.95 39.65 -205.05 39.8 L-204.15 40.55 -203.15 41.9 -202.1 43.6 -204.15 43.6 -205.45 41.75 -206.35 40.45 -206.85 40.1 -207.75 40.0 -208.1 40.0 -208.1 43.6 -209.8 43.6 -209.8 35.0 -206.15 35.0 -204.15 35.25 -203.15 36.05" fill="#fabd05" fill-rule="evenodd" stroke="none"/>
    <path d="M112.65 -25.2 L114.65 -25.0 Q115.35 -24.75 115.8 -24.15 116.25 -23.5 116.25 -22.6 116.25 -21.85 115.9 -21.3 L115.0 -20.4 Q114.65 -20.15 114.0 -20.0 L114.75 -19.65 115.2 -19.2 115.6 -18.6 117.0 -15.9 113.75 -15.9 112.2 -18.75 111.7 -19.45 111.0 -19.7 110.75 -19.7 110.75 -15.9 107.85 -15.9 107.85 -25.2 112.65 -25.2 M99.8 -22.8 L98.8 -19.45 100.8 -19.45 99.8 -22.8 M94.75 -15.9 L98.25 -25.2 101.4 -25.2 104.9 -15.9 101.9 -15.9 101.4 -17.45 98.15 -17.45 97.7 -15.9 94.75 -15.9 M112.0 -23.35 L110.75 -23.35 110.75 -21.45 111.95 -21.45 112.7 -21.55 113.15 -21.85 113.35 -22.4 113.05 -23.1 112.0 -23.35 M119.15 -25.2 L127.9 -25.2 127.9 -22.9 124.95 -22.9 124.95 -15.9 122.1 -15.9 122.1 -22.9 119.15 -22.9 119.15 -25.2 M143.9 -24.85 L145.2 -23.9 145.9 -22.4 146.15 -20.6 Q146.15 -19.1 145.8 -18.25 L144.85 -16.9 Q144.25 -16.35 143.6 -16.15 L141.85 -15.9 137.6 -15.9 137.6 -25.2 141.85 -25.2 143.9 -24.85 M157.35 -25.2 L157.35 -23.2 152.55 -23.2 152.55 -21.75 157.0 -21.75 157.0 -19.85 152.55 -19.85 152.55 -18.0 157.5 -18.0 157.5 -15.9 149.65 -15.9 149.65 -25.2 157.35 -25.2 M140.45 -18.0 L141.15 -18.0 142.45 -18.2 143.05 -18.9 143.25 -20.55 Q143.25 -22.0 142.8 -22.55 142.3 -23.1 141.2 -23.1 L140.45 -23.1 140.45 -18.0 M161.3 -24.0 Q161.75 -24.65 162.55 -25.0 L164.85 -25.35 Q166.65 -25.35 167.6 -24.7 168.5 -24.05 168.7 -22.6 L166.0 -22.45 165.55 -23.35 164.55 -23.65 163.8 -23.4 163.55 -22.9 163.75 -22.5 164.75 -22.15 167.45 -21.35 168.6 -20.3 Q169.0 -19.7 169.0 -18.95 169.0 -18.05 168.5 -17.3 168.0 -16.5 167.1 -16.15 L164.85 -15.75 Q162.5 -15.75 161.6 -16.65 160.65 -17.55 160.55 -19.0 L163.3 -19.15 Q163.4 -18.5 163.65 -18.15 164.1 -17.55 164.9 -17.55 165.55 -17.55 165.85 -17.85 166.2 -18.15 166.2 -18.55 L165.9 -19.2 164.4 -19.7 Q162.5 -20.15 161.7 -20.85 160.9 -21.55 160.9 -22.65 160.9 -23.35 161.3 -24.0 M186.45 -25.1 L187.75 -24.2 188.5 -22.75 185.7 -22.25 185.15 -23.05 184.1 -23.3 Q183.15 -23.3 182.6 -22.65 182.05 -22.0 182.05 -20.6 182.05 -19.05 182.6 -18.45 183.15 -17.8 184.2 -17.8 L185.1 -17.9 186.1 -18.4 186.1 -19.25 184.2 -19.25 184.2 -21.2 188.6 -21.2 188.6 -17.25 186.35 -16.05 184.05 -15.75 Q182.4 -15.75 181.35 -16.3 180.3 -16.85 179.7 -18.0 179.15 -19.1 179.15 -20.55 179.15 -22.1 179.8 -23.2 180.4 -24.35 181.6 -24.9 L184.15 -25.35 186.45 -25.1 M195.05 -25.2 L198.55 -20.05 198.55 -25.2 201.25 -25.2 201.25 -15.9 198.55 -15.9 195.1 -21.0 195.1 -15.9 192.35 -15.9 192.35 -25.2 195.05 -25.2 M175.45 -25.2 L175.45 -15.9 172.55 -15.9 172.55 -25.2 175.45 -25.2 M212.9 -25.2 L212.9 -23.2 208.1 -23.2 208.1 -21.75 212.55 -21.75 212.55 -19.85 208.1 -19.85 208.1 -18.0 213.05 -18.0 213.05 -15.9 205.2 -15.9 205.2 -25.2 212.9 -25.2 M221.45 -25.2 L223.45 -25.0 Q224.15 -24.75 224.6 -24.15 225.05 -23.5 225.05 -22.6 225.05 -21.85 224.7 -21.3 L223.8 -20.4 Q223.45 -20.15 222.8 -20.0 L223.55 -19.65 224.0 -19.2 224.4 -18.6 225.8 -15.9 222.55 -15.9 221.0 -18.75 220.5 -19.45 219.8 -19.7 219.55 -19.7 219.55 -15.9 216.65 -15.9 216.65 -25.2 221.45 -25.2 M222.15 -22.4 L221.85 -23.1 220.8 -23.35 219.55 -23.35 219.55 -21.45 220.75 -21.45 221.5 -21.55 221.95 -21.85 222.15 -22.4" fill="#e7f902" fill-rule="evenodd" stroke="none"/>
    <path d="M184.1 -43.9 L184.45 -43.75 186.75 -41.6 186.7 -41.35 186.6 -41.3 179.1 -41.3 179.35 -41.05 Q181.85 -38.55 187.4 -38.0 187.9 -38.0 187.95 -37.8 L187.6 -37.45 Q186.45 -37.05 185.95 -34.8 L185.7 -34.2 185.15 -34.25 Q179.9 -35.65 178.4 -40.0 L177.45 -38.25 Q176.1 -36.45 174.1 -35.55 171.95 -34.55 167.6 -34.15 167.3 -34.15 167.25 -34.35 L167.45 -34.6 Q170.05 -35.15 171.65 -36.4 174.2 -38.2 175.0 -41.3 L168.4 -41.3 Q168.15 -41.3 168.15 -41.65 L168.4 -41.9 175.15 -41.9 175.4 -44.0 175.5 -44.35 175.9 -44.45 178.75 -44.3 179.75 -44.0 Q179.85 -43.65 179.4 -43.45 179.1 -43.35 179.05 -42.95 L178.95 -41.9 182.5 -41.9 184.1 -43.9 M168.05 -51.2 L168.3 -51.45 173.6 -51.45 Q173.1 -52.0 173.0 -52.75 172.8 -54.4 172.1 -55.1 L172.0 -55.3 172.25 -55.4 174.4 -55.2 Q175.5 -54.9 175.95 -54.3 176.4 -53.7 176.35 -53.0 176.3 -52.15 175.6 -51.45 L178.95 -51.45 Q179.5 -53.55 179.5 -54.7 179.45 -55.05 179.75 -55.05 L183.75 -54.6 183.9 -54.15 Q183.8 -53.85 183.45 -53.8 L182.8 -53.55 180.45 -51.45 182.75 -51.45 184.35 -53.4 184.7 -53.25 187.05 -51.15 186.95 -50.9 186.85 -50.85 179.15 -50.85 179.15 -48.35 181.55 -48.35 183.15 -50.3 183.5 -50.15 185.85 -48.05 185.75 -47.8 185.65 -47.75 179.15 -47.75 179.15 -45.3 183.2 -45.3 Q184.7 -47.3 184.9 -47.3 L185.25 -47.1 187.65 -44.95 187.55 -44.7 187.45 -44.65 167.9 -44.65 Q167.6 -44.65 167.6 -45.0 167.6 -45.3 167.9 -45.3 L175.7 -45.3 175.7 -47.75 169.7 -47.75 Q169.4 -47.75 169.4 -48.1 L169.7 -48.35 175.7 -48.35 175.7 -50.85 168.3 -50.85 Q168.05 -50.85 168.05 -51.2 M217.4 -54.6 L217.35 -54.75 217.55 -54.9 219.7 -54.65 221.25 -53.75 Q221.65 -53.25 221.65 -52.6 221.7 -51.9 221.4 -51.5 220.95 -50.95 220.4 -50.85 219.8 -50.75 219.35 -51.1 218.9 -51.5 218.75 -52.15 218.3 -53.9 217.4 -54.6 M204.7 -49.55 L204.95 -49.85 212.7 -49.85 212.7 -54.9 212.75 -55.2 213.0 -55.25 215.9 -55.05 216.55 -54.85 Q217.0 -54.45 216.45 -54.0 216.15 -53.75 216.15 -53.4 L216.15 -49.85 220.7 -49.85 222.4 -51.85 222.75 -51.7 225.15 -49.55 225.05 -49.25 216.35 -49.25 Q217.05 -46.75 219.1 -44.65 221.65 -42.0 225.15 -40.8 L225.45 -40.55 225.15 -40.2 Q224.05 -39.7 223.15 -37.05 L222.85 -36.4 Q222.7 -36.35 222.3 -36.7 219.4 -38.9 218.1 -41.45 216.75 -43.8 216.15 -48.05 L216.15 -35.45 215.8 -34.5 214.45 -34.3 213.0 -34.45 Q212.7 -34.65 212.7 -35.45 L212.7 -42.8 Q211.5 -41.05 209.9 -39.7 206.35 -36.9 202.85 -35.8 207.15 -38.75 209.9 -44.45 210.9 -46.7 211.45 -49.25 L204.95 -49.25 Q204.7 -49.25 204.7 -49.55" fill="#000000" fill-rule="evenodd" stroke="none"/>
    <path d="M204.7 -49.55 Q204.7 -49.25 204.95 -49.25 L211.45 -49.25 Q210.9 -46.7 209.9 -44.45 207.15 -38.75 202.85 -35.8 206.35 -36.9 209.9 -39.7 211.5 -41.05 212.7 -42.8 L212.7 -35.45 Q212.7 -34.65 213.0 -34.45 L214.45 -34.3 215.8 -34.5 216.15 -35.45 216.15 -48.05 Q216.75 -43.8 218.1 -41.45 219.4 -38.9 222.3 -36.7 222.7 -36.35 222.85 -36.4 L223.15 -37.05 Q224.05 -39.7 225.15 -40.2 L225.45 -40.55 225.15 -40.8 Q221.65 -42.0 219.1 -44.65 217.05 -46.75 216.35 -49.25 L225.05 -49.25 225.15 -49.55 222.75 -51.7 222.4 -51.85 220.7 -49.85 216.15 -49.85 216.15 -53.4 Q216.15 -53.75 216.45 -54.0 217.0 -54.45 216.55 -54.85 L215.9 -55.05 213.0 -55.25 212.75 -55.2 212.7 -54.9 212.7 -49.85 204.95 -49.85 204.7 -49.55 M217.4 -54.6 Q218.3 -53.9 218.75 -52.15 218.9 -51.5 219.35 -51.1 219.8 -50.75 220.4 -50.85 220.95 -50.95 221.4 -51.5 221.7 -51.9 221.65 -52.6 221.65 -53.25 221.25 -53.75 L219.7 -54.65 217.55 -54.9 217.35 -54.75 217.4 -54.6 M168.05 -51.2 Q168.05 -50.85 168.3 -50.85 L175.7 -50.85 175.7 -48.35 169.7 -48.35 169.4 -48.1 Q169.4 -47.75 169.7 -47.75 L175.7 -47.75 175.7 -45.3 167.9 -45.3 Q167.6 -45.3 167.6 -45.0 167.6 -44.65 167.9 -44.65 L187.45 -44.65 187.55 -44.7 187.65 -44.95 185.25 -47.1 184.9 -47.3 Q184.7 -47.3 183.2 -45.3 L179.15 -45.3 179.15 -47.75 185.65 -47.75 185.75 -47.8 185.85 -48.05 183.5 -50.15 183.15 -50.3 181.55 -48.35 179.15 -48.35 179.15 -50.85 186.85 -50.85 186.95 -50.9 187.05 -51.15 184.7 -53.25 184.35 -53.4 182.75 -51.45 180.45 -51.45 182.8 -53.55 183.45 -53.8 Q183.8 -53.85 183.9 -54.15 L183.75 -54.6 179.75 -55.05 Q179.45 -55.05 179.5 -54.7 179.5 -53.55 178.95 -51.45 L175.6 -51.45 Q176.3 -52.15 176.35 -53.0 176.4 -53.7 175.95 -54.3 175.5 -54.9 174.4 -55.2 L172.25 -55.4 172.0 -55.3 172.1 -55.1 Q172.8 -54.4 173.0 -52.75 173.1 -52.0 173.6 -51.45 L168.3 -51.45 168.05 -51.2 M184.1 -43.9 L182.5 -41.9 178.95 -41.9 179.05 -42.95 Q179.1 -43.35 179.4 -43.45 179.85 -43.65 179.75 -44.0 L178.75 -44.3 175.9 -44.45 175.5 -44.35 175.4 -44.0 175.15 -41.9 168.4 -41.9 168.15 -41.65 Q168.15 -41.3 168.4 -41.3 L175.0 -41.3 Q174.2 -38.2 171.65 -36.4 170.05 -35.15 167.45 -34.6 L167.25 -34.35 Q167.3 -34.15 167.6 -34.15 171.95 -34.55 174.1 -35.55 176.1 -36.45 177.45 -38.25 L178.4 -40.0 Q179.9 -35.65 185.15 -34.25 L185.7 -34.2 185.95 -34.8 Q186.45 -37.05 187.6 -37.45 L187.95 -37.8 Q187.9 -38.0 187.4 -38.0 181.85 -38.55 179.35 -41.05 L179.1 -41.3 186.6 -41.3 186.7 -41.35 186.75 -41.6 184.45 -43.75 184.1 -43.9" fill="none" stroke="#000000" stroke-linecap="round" stroke-linejoin="round" stroke-width="3.5"/>
    <path d="M184.1 -43.9 L184.45 -43.75 186.75 -41.6 186.7 -41.35 186.6 -41.3 179.1 -41.3 179.35 -41.05 Q181.85 -38.55 187.4 -38.0 187.9 -38.0 187.95 -37.8 L187.6 -37.45 Q186.45 -37.05 185.95 -34.8 L185.7 -34.2 185.15 -34.25 Q179.9 -35.65 178.4 -40.0 L177.45 -38.25 Q176.1 -36.45 174.1 -35.55 171.95 -34.55 167.6 -34.15 167.3 -34.15 167.25 -34.35 L167.45 -34.6 Q170.05 -35.15 171.65 -36.4 174.2 -38.2 175.0 -41.3 L168.4 -41.3 Q168.15 -41.3 168.15 -41.65 L168.4 -41.9 175.15 -41.9 175.4 -44.0 175.5 -44.35 175.9 -44.45 178.75 -44.3 179.75 -44.0 Q179.85 -43.65 179.4 -43.45 179.1 -43.35 179.05 -42.95 L178.95 -41.9 182.5 -41.9 184.1 -43.9 M168.3 -50.85 Q168.05 -50.85 168.05 -51.2 L168.3 -51.45 173.6 -51.45 Q173.1 -52.0 173.0 -52.75 172.8 -54.4 172.1 -55.1 L172.0 -55.3 172.25 -55.4 174.4 -55.2 Q175.5 -54.9 175.95 -54.3 176.4 -53.7 176.35 -53.0 176.3 -52.15 175.6 -51.45 L178.95 -51.45 Q179.5 -53.55 179.5 -54.7 179.45 -55.05 179.75 -55.05 L183.75 -54.6 183.9 -54.15 Q183.8 -53.85 183.45 -53.8 L182.8 -53.55 180.45 -51.45 182.75 -51.45 184.35 -53.4 184.7 -53.25 187.05 -51.15 186.95 -50.9 186.85 -50.85 179.15 -50.85 179.15 -48.35 181.55 -48.35 183.15 -50.3 183.5 -50.15 185.85 -48.05 185.75 -47.8 185.65 -47.75 179.15 -47.75 179.15 -45.3 183.2 -45.3 Q184.7 -47.3 184.9 -47.3 L185.25 -47.1 187.65 -44.95 187.55 -44.7 187.45 -44.65 167.9 -44.65 Q167.6 -44.65 167.6 -45.0 167.6 -45.3 167.9 -45.3 L175.7 -45.3 175.7 -47.75 169.7 -47.75 Q169.4 -47.75 169.4 -48.1 L169.7 -48.35 175.7 -48.35 175.7 -50.85 168.3 -50.85 M217.4 -54.6 L217.35 -54.75 217.55 -54.9 219.7 -54.65 221.25 -53.75 Q221.65 -53.25 221.65 -52.6 221.7 -51.9 221.4 -51.5 220.95 -50.95 220.4 -50.85 219.8 -50.75 219.35 -51.1 218.9 -51.5 218.75 -52.15 218.3 -53.9 217.4 -54.6 M204.7 -49.55 L204.95 -49.85 212.7 -49.85 212.7 -54.9 212.75 -55.2 213.0 -55.25 215.9 -55.05 216.55 -54.85 Q217.0 -54.45 216.45 -54.0 216.15 -53.75 216.15 -53.4 L216.15 -49.85 220.7 -49.85 222.4 -51.85 222.75 -51.7 225.15 -49.55 225.05 -49.25 216.35 -49.25 Q217.05 -46.75 219.1 -44.65 221.65 -42.0 225.15 -40.8 L225.45 -40.55 225.15 -40.2 Q224.05 -39.7 223.15 -37.05 L222.85 -36.4 Q222.7 -36.35 222.3 -36.7 219.4 -38.9 218.1 -41.45 216.75 -43.8 216.15 -48.05 L216.15 -35.45 215.8 -34.5 214.45 -34.3 213.0 -34.45 Q212.7 -34.65 212.7 -35.45 L212.7 -42.8 Q211.2 -40.65 209.15 -39.1 208.0 -38.25 204.4 -36.3 L204.1 -36.35 204.2 -36.65 Q209.7 -41.45 211.45 -49.25 L204.95 -49.25 Q204.7 -49.25 204.7 -49.55" fill="#e7f902" fill-rule="evenodd" stroke="none"/>
  </g>
</svg>
