<?xml version="1.0" encoding="UTF-8" standalone="no"?>
<svg xmlns:xlink="http://www.w3.org/1999/xlink" height="17.75px" width="233.05px" xmlns="http://www.w3.org/2000/svg">
  <g transform="matrix(1.0, 0.0, 0.0, 1.0, 109.05, 8.1)">
    <path d="M2.35 -4.25 Q2.95 -5.15 4.0 -5.6 L6.85 -6.05 9.8 -5.6 Q10.9 -5.15 11.5 -4.25 12.1 -3.35 12.1 -2.2 12.1 -1.0 11.4 0.1 10.7 1.2 8.9 2.45 L7.5 3.5 6.7 3.95 12.2 3.95 12.2 7.15 1.3 7.15 Q1.5 5.35 2.45 3.95 3.35 2.55 5.9 0.65 L7.85 -1.05 Q8.25 -1.6 8.25 -2.05 8.25 -2.55 7.9 -2.95 7.5 -3.3 6.95 -3.3 6.35 -3.3 5.95 -2.9 5.6 -2.55 5.4 -1.4 L1.55 -1.7 Q1.8 -3.4 2.35 -4.25 M27.3 -2.3 L36.85 -2.3 36.85 -4.9 Q37.0 -5.55 36.2 -5.55 L27.95 -5.55 Q27.3 -5.55 27.3 -4.9 L27.3 -2.3 M27.7 -6.7 L36.5 -6.7 Q38.2 -6.7 38.05 -5.15 L38.05 7.0 Q38.35 9.5 35.7 9.5 34.25 9.5 32.5 8.45 32.35 7.5 33.25 7.5 34.5 8.3 35.65 8.3 37.0 8.45 36.85 7.0 L36.85 3.3 27.3 3.3 Q27.45 7.35 24.45 9.65 23.2 9.7 23.65 8.65 26.25 6.75 26.1 2.85 L26.1 -5.15 Q26.1 -6.7 27.7 -6.7 M27.3 -1.1 L27.3 2.1 36.85 2.1 36.85 -1.1 27.3 -1.1 M79.15 -0.45 Q79.15 0.3 79.75 0.2 L84.55 0.2 84.55 -6.6 Q85.15 -7.4 85.75 -6.6 L85.75 0.2 90.55 0.2 Q91.3 0.3 91.2 -0.45 L91.2 -5.2 Q91.6 -6.0 92.35 -5.2 L92.35 -0.2 Q92.5 1.5 90.8 1.35 L85.75 1.35 85.75 8.2 91.1 8.2 Q91.85 8.3 91.75 7.55 L91.75 2.5 Q92.3 1.7 92.9 2.5 L92.9 7.8 Q93.05 9.5 91.35 9.35 L78.95 9.35 Q77.4 9.5 77.4 7.8 L77.4 2.5 Q78.0 1.7 78.6 2.5 L78.6 7.55 Q78.6 8.3 79.2 8.2 L84.55 8.2 84.55 1.35 79.5 1.35 Q77.95 1.5 77.95 -0.2 L77.95 -5.2 Q78.55 -6.0 79.15 -5.2 L79.15 -0.45 M111.35 -1.85 Q111.35 -1.05 111.95 -1.2 L120.25 -1.2 Q121.05 -1.05 120.9 -1.8 L120.9 -4.9 Q121.05 -5.55 120.25 -5.55 L112.0 -5.55 Q111.35 -5.55 111.35 -4.9 L111.35 -1.85 M110.15 -5.15 Q110.15 -6.55 111.7 -6.7 L120.25 -6.7 Q122.25 -6.7 122.1 -5.05 L122.1 -1.7 Q122.25 0.1 120.35 0.0 L111.7 0.0 Q110.15 0.1 110.15 -1.7 L110.15 -5.15 M124.0 2.55 L124.0 7.7 Q124.15 9.5 122.45 9.35 L118.35 9.35 Q116.75 9.5 116.75 7.8 L116.75 2.7 Q116.75 1.0 118.3 1.0 L122.45 1.0 Q124.15 1.0 124.0 2.55 M122.2 2.2 L118.6 2.2 Q117.95 2.2 117.95 2.85 L117.95 7.55 Q117.95 8.3 118.6 8.2 L122.35 8.2 Q122.95 8.3 122.85 7.55 L122.85 2.8 Q122.95 2.2 122.2 2.2 M113.9 2.2 L110.3 2.2 Q109.7 2.2 109.7 2.85 L109.7 7.55 Q109.7 8.3 110.3 8.2 L113.9 8.2 Q114.7 8.3 114.55 7.7 L114.55 2.8 Q114.7 2.2 113.9 2.2 M115.75 2.7 L115.75 7.8 Q115.9 9.5 114.15 9.35 L110.2 9.35 Q108.5 9.5 108.5 7.65 L108.5 2.55 Q108.5 1.0 110.2 1.0 L114.05 1.0 Q115.9 1.0 115.75 2.7 M-107.05 -4.25 L-105.4 -5.6 -102.55 -6.05 -99.6 -5.6 Q-98.5 -5.15 -97.9 -4.25 -97.3 -3.35 -97.3 -2.2 -97.3 -1.0 -98.0 0.1 -98.7 1.2 -100.5 2.45 L-101.9 3.5 -102.7 3.95 -97.2 3.95 -97.2 7.15 -108.1 7.15 Q-107.9 5.35 -106.95 3.95 -106.05 2.55 -103.5 0.65 -101.95 -0.5 -101.55 -1.05 -101.15 -1.6 -101.15 -2.05 -101.15 -2.55 -101.5 -2.95 -101.9 -3.3 -102.45 -3.3 -103.05 -3.3 -103.45 -2.9 -103.8 -2.55 -104.0 -1.4 L-107.85 -1.7 Q-107.6 -3.4 -107.05 -4.25 M-84.8 -4.85 L-83.95 -3.75 -83.45 -2.4 Q-83.1 -1.0 -83.1 0.55 -83.1 4.05 -84.3 5.7 -85.5 7.35 -88.45 7.35 L-91.1 6.85 Q-92.15 6.3 -92.7 5.35 -93.25 4.55 -93.5 3.35 L-93.8 0.6 Q-93.8 -3.05 -92.45 -4.55 -91.1 -6.05 -88.35 -6.05 L-86.2 -5.75 -84.8 -4.85 M-89.6 -2.55 Q-89.95 -1.75 -89.95 0.6 -89.95 3.0 -89.55 3.8 -89.15 4.6 -88.45 4.6 L-87.65 4.3 Q-87.3 3.95 -87.1 3.2 -86.95 2.4 -86.95 0.7 -86.95 -1.75 -87.35 -2.55 -87.75 -3.35 -88.45 -3.35 -89.25 -3.35 -89.6 -2.55 M-69.9 -3.75 L-69.4 -2.4 Q-69.05 -1.0 -69.05 0.55 -69.05 4.05 -70.25 5.7 -71.45 7.35 -74.4 7.35 L-77.05 6.85 Q-78.1 6.3 -78.65 5.35 -79.2 4.55 -79.45 3.35 L-79.75 0.6 Q-79.75 -3.05 -78.4 -4.55 -77.05 -6.05 -74.3 -6.05 L-72.15 -5.75 -70.75 -4.85 -69.9 -3.75 M-61.5 -1.15 L-60.55 -1.55 -59.4 -1.7 Q-57.45 -1.7 -56.2 -0.5 -54.95 0.7 -54.95 2.55 -54.95 3.8 -55.6 4.95 -56.2 6.15 -57.35 6.75 -58.55 7.35 -60.35 7.35 L-62.5 7.1 -64.1 6.4 -65.15 5.3 -65.8 3.55 -61.95 3.15 Q-61.8 4.1 -61.35 4.5 -60.95 4.9 -60.35 4.9 -59.7 4.9 -59.3 4.4 -58.85 3.9 -58.85 2.85 -58.85 1.8 -59.3 1.3 -59.7 0.85 -60.45 0.85 L-61.35 1.05 -62.15 1.75 -65.35 1.3 -64.25 -5.85 -55.55 -5.85 -55.55 -2.7 -61.25 -2.7 -61.5 -1.15 M-74.4 -3.35 Q-75.2 -3.35 -75.55 -2.55 -75.9 -1.75 -75.9 0.6 -75.9 3.0 -75.5 3.8 -75.1 4.6 -74.4 4.6 L-73.6 4.3 Q-73.25 3.95 -73.05 3.2 -72.9 2.4 -72.9 0.7 -72.9 -1.75 -73.3 -2.55 -73.7 -3.35 -74.4 -3.35 M-43.15 -1.25 Q-40.4 -3.75 -39.3 -6.75 -38.35 -7.55 -38.15 -6.55 L-38.55 -5.6 -27.95 -5.6 Q-27.25 -5.0 -27.95 -4.45 L-34.0 -4.45 -34.0 -0.9 -28.2 -0.9 Q-27.55 -0.35 -28.2 0.25 L-34.0 0.25 -34.0 4.05 -27.65 4.05 Q-27.0 4.65 -27.65 5.2 L-34.0 5.2 -34.0 9.35 -35.2 9.4 -35.2 5.2 -42.8 5.2 Q-43.6 4.65 -42.8 4.05 L-40.55 4.05 -40.55 0.75 Q-40.55 -0.75 -39.15 -0.9 L-35.2 -0.9 -35.2 -4.45 -39.05 -4.45 Q-40.25 -2.15 -42.4 -0.3 -43.6 -0.15 -43.15 -1.25 M-4.15 -6.05 L-4.15 7.15 -8.1 7.15 -8.1 -1.25 Q-8.65 -0.65 -9.5 -0.2 L-11.75 0.55 -11.75 -2.6 Q-9.9 -3.2 -8.9 -4.0 -7.95 -4.8 -7.35 -6.05 L-4.15 -6.05 M-35.2 0.25 L-38.9 0.25 Q-39.4 0.25 -39.4 0.9 L-39.4 4.05 -35.2 4.05 -35.2 0.25" fill="#333333" fill-rule="evenodd" stroke="none"/>
    <path d="M8.85 -6.6 L10.55 -5.25 Q11.15 -4.35 11.15 -3.2 11.15 -2.0 10.45 -0.9 9.75 0.2 7.95 1.45 L6.55 2.5 5.75 2.95 11.25 2.95 11.25 6.15 0.35 6.15 Q0.55 4.35 1.5 2.95 2.4 1.55 4.95 -0.35 L6.9 -2.05 Q7.3 -2.6 7.3 -3.05 L6.95 -3.95 Q6.55 -4.3 6.0 -4.3 5.4 -4.3 5.0 -3.9 4.65 -3.55 4.45 -2.4 L0.6 -2.7 Q0.85 -4.4 1.4 -5.25 2.0 -6.15 3.05 -6.6 L5.9 -7.05 8.85 -6.6 M26.35 -5.9 L26.35 -3.3 35.9 -3.3 35.9 -5.9 Q36.05 -6.55 35.25 -6.55 L27.0 -6.55 Q26.35 -6.55 26.35 -5.9 M26.75 -7.7 L35.55 -7.7 Q37.25 -7.7 37.1 -6.15 L37.1 6.0 Q37.4 8.5 34.75 8.5 33.3 8.5 31.55 7.45 31.4 6.5 32.3 6.5 33.55 7.3 34.7 7.3 36.05 7.45 35.9 6.0 L35.9 2.3 26.35 2.3 Q26.5 6.35 23.5 8.65 22.25 8.7 22.7 7.65 25.3 5.75 25.15 1.85 L25.15 -6.15 Q25.15 -7.7 26.75 -7.7 M26.35 -2.1 L26.35 1.1 35.9 1.1 35.9 -2.1 26.35 -2.1 M78.8 -0.8 L83.6 -0.8 83.6 -7.6 Q84.2 -8.4 84.8 -7.6 L84.8 -0.8 89.6 -0.8 Q90.35 -0.7 90.25 -1.45 L90.25 -6.2 Q90.65 -7.0 91.4 -6.2 L91.4 -1.2 Q91.55 0.5 89.85 0.35 L84.8 0.35 84.8 7.2 90.15 7.2 Q90.9 7.3 90.8 6.55 L90.8 1.5 Q91.35 0.7 91.95 1.5 L91.95 6.8 Q92.1 8.5 90.4 8.35 L78.0 8.35 Q76.45 8.5 76.45 6.8 L76.45 1.5 Q77.05 0.7 77.65 1.5 L77.65 6.55 Q77.65 7.3 78.25 7.2 L83.6 7.2 83.6 0.35 78.55 0.35 Q77.0 0.5 77.0 -1.2 L77.0 -6.2 Q77.6 -7.0 78.2 -6.2 L78.2 -1.45 Q78.2 -0.7 78.8 -0.8 M110.75 -7.7 L119.3 -7.7 Q121.3 -7.7 121.15 -6.05 L121.15 -2.7 Q121.3 -0.9 119.4 -1.0 L110.75 -1.0 Q109.2 -0.9 109.2 -2.7 L109.2 -6.15 Q109.2 -7.55 110.75 -7.7 M110.4 -5.9 L110.4 -2.85 Q110.4 -2.05 111.0 -2.2 L119.3 -2.2 Q120.1 -2.05 119.95 -2.8 L119.95 -5.9 Q120.1 -6.55 119.3 -6.55 L111.05 -6.55 Q110.4 -6.55 110.4 -5.9 M121.5 8.35 L117.4 8.35 Q115.8 8.5 115.8 6.8 L115.8 1.7 Q115.8 0.0 117.35 0.0 L121.5 0.0 Q123.2 0.0 123.05 1.55 L123.05 6.7 Q123.2 8.5 121.5 8.35 M121.9 1.8 Q122.0 1.2 121.25 1.2 L117.65 1.2 Q117.0 1.2 117.0 1.85 L117.0 6.55 Q117.0 7.3 117.65 7.2 L121.4 7.2 Q122.0 7.3 121.9 6.55 L121.9 1.8 M112.95 1.2 L109.35 1.2 Q108.75 1.2 108.75 1.85 L108.75 6.55 Q108.75 7.3 109.35 7.2 L112.95 7.2 Q113.75 7.3 113.6 6.7 L113.6 1.8 Q113.75 1.2 112.95 1.2 M114.8 1.7 L114.8 6.8 Q114.95 8.5 113.2 8.35 L109.25 8.35 Q107.55 8.5 107.55 6.65 L107.55 1.55 Q107.55 0.0 109.25 0.0 L113.1 0.0 Q114.95 0.0 114.8 1.7 M-108.0 -5.25 Q-107.4 -6.15 -106.35 -6.6 L-103.5 -7.05 -100.55 -6.6 Q-99.45 -6.15 -98.85 -5.25 -98.25 -4.35 -98.25 -3.2 -98.25 -2.0 -98.95 -0.9 -99.65 0.2 -101.45 1.45 L-102.85 2.5 -103.65 2.95 -98.15 2.95 -98.15 6.15 -109.05 6.15 Q-108.85 4.35 -107.9 2.95 -107.0 1.55 -104.45 -0.35 -102.9 -1.5 -102.5 -2.05 -102.1 -2.6 -102.1 -3.05 -102.1 -3.55 -102.45 -3.95 -102.85 -4.3 -103.4 -4.3 -104.0 -4.3 -104.4 -3.9 -104.75 -3.55 -104.95 -2.4 L-108.8 -2.7 Q-108.55 -4.4 -108.0 -5.25 M-93.4 -5.55 Q-92.05 -7.05 -89.3 -7.05 L-87.15 -6.75 Q-86.3 -6.4 -85.75 -5.85 L-84.9 -4.75 -84.4 -3.4 Q-84.05 -2.0 -84.05 -0.45 -84.05 3.05 -85.25 4.7 -86.45 6.35 -89.4 6.35 -91.05 6.35 -92.05 5.85 -93.1 5.3 -93.65 4.35 -94.2 3.55 -94.45 2.35 L-94.75 -0.4 Q-94.75 -4.05 -93.4 -5.55 M-90.9 -0.4 Q-90.9 2.0 -90.5 2.8 -90.1 3.6 -89.4 3.6 -88.95 3.6 -88.6 3.3 -88.25 2.95 -88.05 2.2 -87.9 1.4 -87.9 -0.3 -87.9 -2.75 -88.3 -3.55 -88.7 -4.35 -89.4 -4.35 -90.2 -4.35 -90.55 -3.55 -90.9 -2.75 -90.9 -0.4 M-79.35 -5.55 Q-78.0 -7.05 -75.25 -7.05 L-73.1 -6.75 Q-72.25 -6.4 -71.7 -5.85 L-70.85 -4.75 -70.35 -3.4 Q-70.0 -2.0 -70.0 -0.45 -70.0 3.05 -71.2 4.7 -72.4 6.35 -75.35 6.35 L-78.0 5.85 Q-79.05 5.3 -79.6 4.35 -80.15 3.55 -80.4 2.35 L-80.7 -0.4 Q-80.7 -4.05 -79.35 -5.55 M-76.85 -0.4 Q-76.85 2.0 -76.45 2.8 -76.05 3.6 -75.35 3.6 -74.9 3.6 -74.55 3.3 -74.2 2.95 -74.0 2.2 -73.85 1.4 -73.85 -0.3 -73.85 -2.75 -74.25 -3.55 -74.65 -4.35 -75.35 -4.35 -76.15 -4.35 -76.5 -3.55 -76.85 -2.75 -76.85 -0.4 M-61.5 -2.55 L-60.35 -2.7 Q-58.4 -2.7 -57.15 -1.5 -55.9 -0.3 -55.9 1.55 -55.9 2.8 -56.55 3.95 -57.15 5.15 -58.3 5.75 -59.5 6.35 -61.3 6.35 L-63.45 6.1 Q-64.4 5.9 -65.05 5.4 L-66.1 4.3 -66.75 2.55 -62.9 2.15 Q-62.75 3.1 -62.3 3.5 -61.9 3.9 -61.3 3.9 -60.65 3.9 -60.25 3.4 -59.8 2.9 -59.8 1.85 -59.8 0.8 -60.25 0.3 -60.65 -0.15 -61.4 -0.15 L-62.3 0.05 -63.1 0.75 -66.3 0.3 -65.2 -6.85 -56.5 -6.85 -56.5 -3.7 -62.2 -3.7 -62.45 -2.15 -61.5 -2.55 M-44.1 -2.25 Q-41.35 -4.75 -40.25 -7.75 -39.3 -8.55 -39.1 -7.55 L-39.5 -6.6 -28.9 -6.6 Q-28.2 -6.0 -28.9 -5.45 L-34.95 -5.45 -34.95 -1.9 -29.15 -1.9 Q-28.5 -1.35 -29.15 -0.75 L-34.95 -0.75 -34.95 3.05 -28.6 3.05 Q-27.95 3.65 -28.6 4.2 L-34.95 4.2 -34.95 8.35 -36.15 8.4 -36.15 4.2 -43.75 4.2 Q-44.55 3.65 -43.75 3.05 L-41.5 3.05 -41.5 -0.25 Q-41.5 -1.75 -40.1 -1.9 L-36.15 -1.9 -36.15 -5.45 -40.0 -5.45 Q-41.2 -3.15 -43.35 -1.3 -44.55 -1.15 -44.1 -2.25 M-39.85 -0.75 Q-40.35 -0.75 -40.35 -0.1 L-40.35 3.05 -36.15 3.05 -36.15 -0.75 -39.85 -0.75 M-10.45 -1.2 Q-11.25 -0.8 -12.7 -0.45 L-12.7 -3.6 Q-10.85 -4.2 -9.85 -5.0 -8.9 -5.8 -8.3 -7.05 L-5.1 -7.05 -5.1 6.15 -9.05 6.15 -9.05 -2.25 Q-9.6 -1.65 -10.45 -1.2" fill="#fabd05" fill-rule="evenodd" stroke="none"/>
  </g>
</svg>
