<?xml version="1.0" encoding="UTF-8" standalone="no"?>
<svg xmlns:xlink="http://www.w3.org/1999/xlink" height="75.1px" width="213.5px" xmlns="http://www.w3.org/2000/svg">
  <g transform="matrix(1.0, 0.0, 0.0, 1.0, 0.0, 0.0)">
    <path d="M213.5 0.0 L213.5 75.1 0.0 75.1 0.0 11.05 Q7.65 7.95 14.85 6.15 L22.25 4.6 Q33.9 3.95 45.35 7.5 55.0 10.45 64.85 12.75 L73.75 14.7 77.85 14.65 81.85 14.5 86.0 14.3 109.35 11.3 114.0 10.6 118.1 10.3 Q124.4 9.75 130.45 10.25 L133.35 10.65 136.6 11.25 149.35 13.75 Q157.5 15.2 165.6 13.25 L168.1 12.5 Q176.85 9.7 185.55 6.55 197.2 2.15 209.5 0.6 L213.5 0.0" fill="#ffff99" fill-rule="evenodd" stroke="none"/>
  </g>
</svg>
