<?xml version="1.0" encoding="UTF-8" standalone="no"?>
<svg xmlns:xlink="http://www.w3.org/1999/xlink" height="121.85px" width="571.9px" xmlns="http://www.w3.org/2000/svg">
  <g transform="matrix(1.0, 0.0, 0.0, 1.0, 5.65, -41.4)">
    <path d="M566.25 73.25 L566.25 163.25 139.85 163.25 Q88.5 161.75 38.4 162.65 L38.35 162.65 9.55 163.25 -5.65 163.25 -5.65 61.65 6.1 60.75 42.0 58.3 Q58.75 57.75 75.15 54.45 78.5 53.75 81.45 52.0 99.7 41.55 120.5 41.4 L129.45 41.65 Q138.9 42.85 147.9 46.05 167.3 53.1 187.65 57.15 204.7 60.6 221.85 63.3 240.5 66.45 259.4 68.8 L289.8 72.25 300.3 73.25 566.25 73.25" fill="#ff9900" fill-rule="evenodd" stroke="none"/>
  </g>
</svg>
