<?xml version="1.0" encoding="UTF-8" standalone="no"?>
<svg xmlns:xlink="http://www.w3.org/1999/xlink" height="258.1px" width="573.0px" xmlns="http://www.w3.org/2000/svg">
  <g transform="matrix(1.0, 0.0, 0.0, 1.0, 0.0, 157.25)">
    <path d="M307.0 -45.15 L307.0 9.85 573.0 9.85 573.0 100.85 0.0 100.85 0.0 9.95 Q79.4 10.2 159.0 10.9 L159.0 10.95 176.25 11.05 176.25 9.45 176.5 9.45 176.5 -45.15 307.0 -45.15 M443.75 -157.15 Q452.4 -157.45 484.3 -156.9 516.2 -156.35 533.45 -144.85 L533.3 -119.9 462.25 -122.25 443.75 -122.25 378.75 -119.65 372.0 -119.9 371.0 -125.15 371.0 -139.1 Q372.55 -141.9 380.45 -147.4 388.3 -152.95 409.9 -154.85 L443.75 -157.15" fill="#ff9900" fill-rule="evenodd" stroke="none"/>
  </g>
</svg>
