<?xml version="1.0" encoding="UTF-8" standalone="no"?>
<svg xmlns:xlink="http://www.w3.org/1999/xlink" height="411.65px" width="571.0px" xmlns="http://www.w3.org/2000/svg">
  <g transform="matrix(1.0, 0.0, 0.0, 1.0, 6.0, -0.35)">
    <path d="M565.0 4.45 L565.0 253.95 560.0 253.95 560.0 254.95 282.0 307.95 237.0 320.0 101.0 320.0 237.0 320.0 191.0 330.95 91.0 357.95 54.0 378.0 2.0 411.0 2.0 412.0 -6.0 412.0 -6.0 293.2 0.0 293.5 9.0 294.0 9.0 293.05 21.0 293.05 21.0 235.55 Q70.0 243.65 100.5 237.3 L100.0 183.6 Q150.8 180.85 198.95 197.1 L198.95 108.05 Q280.45 93.9 361.9 103.05 L361.9 10.05 Q436.9 -2.5 511.9 1.2 L553.0 3.55 565.0 4.45" fill="#ff9900" fill-rule="evenodd" stroke="none"/>
  </g>
</svg>
