<?xml version="1.0" encoding="UTF-8" standalone="no"?>
<svg xmlns:xlink="http://www.w3.org/1999/xlink" height="303.3px" width="577.35px" xmlns="http://www.w3.org/2000/svg">
  <g transform="matrix(1.0, 0.0, 0.0, 1.0, 0.0, 224.3)">
    <path d="M7.5 -224.3 L143.5 -224.3 143.5 -202.3 7.5 -202.3 7.5 -224.3 M433.3 -17.95 L517.8 -17.95 517.8 6.65 518.3 6.65 518.3 33.0 577.35 33.0 577.35 79.0 0.0 79.0 0.0 9.65 27.4 9.65 22.4 9.3 27.4 9.0 Q84.6 6.65 141.75 8.15 L158.45 8.6 175.1 9.0 298.35 9.0 354.35 17.6 433.3 31.0 433.3 -17.95 M417.35 -108.0 L417.35 -131.0 567.3 -131.0 567.3 -108.0 417.35 -108.0 M522.65 45.0 L529.15 45.0 522.65 44.7 522.65 45.0" fill="#ff9900" fill-rule="evenodd" stroke="none"/>
  </g>
</svg>
