<?xml version="1.0" encoding="UTF-8" standalone="no"?>
<svg xmlns:xlink="http://www.w3.org/1999/xlink" height="255.0px" width="380.25px" xmlns="http://www.w3.org/2000/svg">
  <g transform="matrix(1.0, 0.0, 0.0, 1.0, 0.25, 0.7)">
    <path d="M369.0 -0.4 L380.0 -0.7 380.0 178.3 354.05 178.3 354.05 0.05 369.0 -0.4 M380.0 178.35 L380.0 253.75 354.05 253.75 354.05 178.35 380.0 178.35 M354.0 178.35 L354.0 253.75 166.0 253.75 166.0 253.55 161.15 254.3 -0.25 254.3 -0.25 178.35 354.0 178.35 M354.0 0.05 L354.0 178.3 -0.25 178.3 -0.25 171.05 Q42.55 151.55 84.0 150.6 L84.0 97.7 84.85 97.3 87.25 97.45 Q98.1 98.0 108.75 96.0 123.0 93.35 137.45 93.55 151.25 94.3 164.5 98.1 L168.0 99.05 168.0 23.95 Q238.55 7.0 297.0 2.1 L297.0 1.9 354.0 0.05" fill="#ff9900" fill-rule="evenodd" stroke="none"/>
  </g>
</svg>
