<?xml version="1.0" encoding="UTF-8" standalone="no"?>
<svg xmlns:xlink="http://www.w3.org/1999/xlink" height="150.45px" width="571.5px" xmlns="http://www.w3.org/2000/svg">
  <g transform="matrix(1.0, 0.0, 0.0, 1.0, 0.0, -7.85)">
    <path d="M90.5 88.35 L90.5 158.3 0.0 158.3 0.0 85.75 Q44.5 87.95 90.5 88.35 M493.3 86.75 L491.55 86.1 487.85 86.75 493.3 86.75 M536.75 18.75 L542.45 16.5 561.75 7.85 564.5 27.35 571.5 27.6 571.5 158.3 187.5 158.3 187.5 87.1 216.95 86.0 Q234.4 86.4 251.4 85.75 311.05 83.8 369.15 71.6 L372.5 70.9 452.5 49.05 Q473.35 42.55 493.65 34.85 L513.4 27.3 Q526.65 22.35 536.75 18.75" fill="#ff9900" fill-rule="evenodd" stroke="none"/>
  </g>
</svg>
