<?xml version="1.0" encoding="UTF-8" standalone="no"?>
<svg xmlns:xlink="http://www.w3.org/1999/xlink" height="240.3px" width="571.95px" xmlns="http://www.w3.org/2000/svg">
  <g transform="matrix(1.0, 0.0, 0.0, 1.0, 0.0, 146.1)">
    <path d="M77.2 -98.65 L304.1 -98.65 304.1 -76.65 77.2 -76.65 77.2 -98.65 M425.05 -146.1 L567.05 -146.1 567.05 -121.15 425.05 -121.15 425.05 11.5 477.9 12.8 545.95 14.4 561.95 14.45 571.95 14.45 571.95 94.2 0.0 94.2 0.0 0.0 33.0 0.0 Q152.75 3.95 268.0 7.25 L275.1 7.45 275.1 6.7 309.7 8.0 309.7 -49.4 355.05 -49.4 355.05 -49.3 355.1 -49.4 391.85 -49.4 391.85 -50.15 392.05 -50.15 392.05 -146.1 425.05 -146.1 M337.25 53.7 L337.55 53.7 337.5 53.25 337.25 53.7 M312.05 52.8 L312.05 53.8 312.5 53.8 312.05 52.8" fill="#ff9900" fill-rule="evenodd" stroke="none"/>
  </g>
</svg>
