<?xml version="1.0" encoding="UTF-8" standalone="no"?>
<svg xmlns:xlink="http://www.w3.org/1999/xlink" height="21.0px" width="881.925px" xmlns="http://www.w3.org/2000/svg">
  <g transform="matrix(1.5, 0.0, 0.0, 1.5, 440.925, 10.5)">
    <path d="M-293.95 0.0 Q-293.95 2.9 -291.9 4.95 -289.85 7.0 -286.95 7.0 L287.0 7.0 Q289.9 7.0 291.95 4.95 294.0 2.9 294.0 0.0 294.0 -2.9 291.95 -4.95 289.9 -7.0 287.0 -7.0 L-286.95 -7.0 Q-289.85 -7.0 -291.9 -4.95 -293.95 -2.9 -293.95 0.0" fill="#ff0000" fill-rule="evenodd" stroke="none">
      <animate attributeName="fill" dur="2s" repeatCount="indefinite" values="#ff0000;#ffcc01"/>
      <animate attributeName="fill-opacity" dur="2s" repeatCount="indefinite" values="1.0;1.0"/>
      <animate attributeName="d" dur="2s" repeatCount="indefinite" values="M-293.95 0.0 Q-293.95 2.9 -291.9 4.95 -289.85 7.0 -286.95 7.0 L287.0 7.0 Q289.9 7.0 291.95 4.95 294.0 2.9 294.0 0.0 294.0 -2.9 291.95 -4.95 289.9 -7.0 287.0 -7.0 L-286.95 -7.0 Q-289.85 -7.0 -291.9 -4.95 -293.95 -2.9 -293.95 0.0;M-293.95 0.0 Q-293.95 2.9 -291.9 4.95 -289.85 7.0 -286.95 7.0 L287.0 7.0 Q289.9 7.0 291.95 4.95 294.0 2.9 294.0 0.0 294.0 -2.9 291.95 -4.95 289.9 -7.0 287.0 -7.0 L-286.95 -7.0 Q-289.85 -7.0 -291.9 -4.95 -293.95 -2.9 -293.95 0.0"/>
    </path>
    <path d="M-293.95 0.0 Q-293.95 -2.9 -291.9 -4.95 -289.85 -7.0 -286.95 -7.0 L287.0 -7.0 Q289.9 -7.0 291.95 -4.95 294.0 -2.9 294.0 0.0 294.0 2.9 291.95 4.95 289.9 7.0 287.0 7.0 L-286.95 7.0 Q-289.85 7.0 -291.9 4.95 -293.95 2.9 -293.95 0.0" fill="none" stroke="#000000" stroke-linecap="round" stroke-linejoin="round" stroke-opacity="0.0" stroke-width="1.0">
      <animate attributeName="stroke" dur="2s" repeatCount="indefinite" values="#000000;#000001"/>
      <animate attributeName="stroke-width" dur="2s" repeatCount="indefinite" values="0.0;0.0"/>
      <animate attributeName="fill-opacity" dur="2s" repeatCount="indefinite" values="0.0;0.0"/>
      <animate attributeName="d" dur="2s" repeatCount="indefinite" values="M-293.95 0.0 Q-293.95 -2.9 -291.9 -4.95 -289.85 -7.0 -286.95 -7.0 L287.0 -7.0 Q289.9 -7.0 291.95 -4.95 294.0 -2.9 294.0 0.0 294.0 2.9 291.95 4.95 289.9 7.0 287.0 7.0 L-286.95 7.0 Q-289.85 7.0 -291.9 4.95 -293.95 2.9 -293.95 0.0;M-293.95 0.0 Q-293.95 -2.9 -291.9 -4.95 -289.85 -7.0 -286.95 -7.0 L287.0 -7.0 Q289.9 -7.0 291.95 -4.95 294.0 -2.9 294.0 0.0 294.0 2.9 291.95 4.95 289.9 7.0 287.0 7.0 L-286.95 7.0 Q-289.85 7.0 -291.9 4.95 -293.95 2.9 -293.95 0.0"/>
    </path>
  </g>
</svg>
