<?xml version="1.0" encoding="UTF-8" standalone="no"?>
<svg xmlns:xlink="http://www.w3.org/1999/xlink" height="32.0px" width="468.0px" xmlns="http://www.w3.org/2000/svg">
  <g transform="matrix(1.0, 0.0, 0.0, 1.0, 0.0, 0.0)">
    <path d="M0.0 4.85 L0.0 27.15 Q0.0 32.0 5.05 32.0 L463.0 32.0 Q468.0 32.0 468.0 27.15 L468.0 4.85 Q468.0 0.0 463.0 0.0 L5.05 0.0 Q0.0 0.0 0.0 4.85" fill="#6a98ff" fill-opacity="0.5019608" fill-rule="evenodd" stroke="none">
      <animate attributeName="fill" dur="2s" repeatCount="indefinite" values="#6a98ff;#6a98ff"/>
      <animate attributeName="fill-opacity" dur="2s" repeatCount="indefinite" values="0.5019608;0.0"/>
      <animate attributeName="d" dur="2s" repeatCount="indefinite" values="M0.0 4.85 L0.0 27.15 Q0.0 32.0 5.05 32.0 L463.0 32.0 Q468.0 32.0 468.0 27.15 L468.0 4.85 Q468.0 0.0 463.0 0.0 L5.05 0.0 Q0.0 0.0 0.0 4.85;M0.0 4.85 L0.0 27.15 Q0.0 32.0 5.05 32.0 L463.0 32.0 Q468.0 32.0 468.0 27.15 L468.0 4.85 Q468.0 0.0 463.0 0.0 L5.05 0.0 Q0.0 0.0 0.0 4.85"/>
    </path>
    <path d="M0.0 4.85 Q0.0 0.0 5.05 0.0 L463.0 0.0 Q468.0 0.0 468.0 4.85 L468.0 27.15 Q468.0 32.0 463.0 32.0 L5.05 32.0 Q0.0 32.0 0.0 27.15 L0.0 4.85" fill="none" stroke="#000000" stroke-linecap="round" stroke-linejoin="round" stroke-opacity="0.0" stroke-width="1.0">
      <animate attributeName="stroke" dur="2s" repeatCount="indefinite" values="#000000;#000001"/>
      <animate attributeName="stroke-width" dur="2s" repeatCount="indefinite" values="0.0;0.0"/>
      <animate attributeName="fill-opacity" dur="2s" repeatCount="indefinite" values="0.0;0.0"/>
      <animate attributeName="d" dur="2s" repeatCount="indefinite" values="M0.0 4.85 Q0.0 0.0 5.05 0.0 L463.0 0.0 Q468.0 0.0 468.0 4.85 L468.0 27.15 Q468.0 32.0 463.0 32.0 L5.05 32.0 Q0.0 32.0 0.0 27.15 L0.0 4.85;M0.0 4.85 Q0.0 0.0 5.05 0.0 L463.0 0.0 Q468.0 0.0 468.0 4.85 L468.0 27.15 Q468.0 32.0 463.0 32.0 L5.05 32.0 Q0.0 32.0 0.0 27.15 L0.0 4.85"/>
    </path>
  </g>
</svg>
